<svg width="41" height="36" viewBox="0 0 41 36" fill="none" xmlns="http://www.w3.org/2000/svg">
<path d="M41 20.8711C41 20.9921 40.8519 21.3552 40.7846 21.4089C40.5827 21.5703 40.3943 21.7451 40.1655 21.8392C38.7521 22.4307 37.3253 22.9954 35.8986 23.5332C35.5351 23.6677 35.4005 23.829 35.4005 24.2323C35.4274 27.7817 35.414 31.3177 35.414 34.8671C35.414 35.7007 35.1717 35.9427 34.3506 35.9427C23.2594 35.9427 12.1816 35.9427 1.09028 35.9561C0.646093 35.9561 0.323047 35.8486 0.0942219 35.5259C0.0538411 35.4856 0 35.2436 0 35.1763C0 28.1985 0 21.2342 0 14.2563C0 14.1891 0.0673014 13.9874 0.107682 13.9471C0.403808 13.6782 0.686474 13.3555 1.03644 13.2076C2.8132 12.4547 4.63033 11.7556 6.43401 11.043C14.914 7.66841 23.4074 4.29378 31.8874 0.919154C32.6815 0.609925 32.9911 0.744372 33.3007 1.53761C35.1717 6.22983 37.0427 10.9355 38.9137 15.6277C39.5732 17.2948 40.2597 18.962 40.9327 20.6157C40.9731 20.656 41 20.8308 41 20.8711ZM33.7853 15.0899C23.044 15.0899 12.3296 15.0899 1.62869 15.0899C1.62869 21.5165 1.62869 27.9162 1.62869 34.3293C12.3565 34.3293 23.0709 34.3293 33.7853 34.3293C33.7853 27.9162 33.7853 21.5165 33.7853 15.0899ZM4.92646 13.369C4.92646 13.3959 4.93992 13.4228 4.93992 13.4496C6.44747 13.4496 7.95502 13.4496 9.46257 13.4496C9.57026 13.4496 9.67794 13.3824 9.77216 13.3286C9.98752 13.2076 10.176 13.0194 10.3913 12.9253C12.7738 11.9707 15.1697 11.0162 17.5522 10.075C20.6077 8.86499 23.6632 7.65497 26.7321 6.44494C27.2301 6.24327 27.4859 6.33738 27.8224 6.72728C28.8723 7.93731 30.2049 8.52888 31.8201 8.44821C32.372 8.42132 32.6008 8.54232 32.8162 9.06666C33.368 10.4246 33.9064 11.7825 34.4583 13.1404C34.5121 13.2614 34.5929 13.4093 34.7141 13.4631C35.3063 13.7185 35.4005 13.8395 35.4005 14.4714C35.4005 16.8108 35.4005 19.1637 35.4005 21.503C35.4005 21.6509 35.4005 21.7854 35.4005 22.0139C36.6793 21.503 37.8907 21.019 39.1425 20.5216C36.76 14.5387 34.3775 8.58265 31.9951 2.59975C22.9632 6.18949 13.9448 9.77924 4.92646 13.369ZM13.6353 13.369C13.6353 13.3824 13.6487 13.4093 13.6487 13.4228C20.0289 13.4228 26.4225 13.4228 32.8431 13.4228C32.4393 12.4144 32.0489 11.4329 31.672 10.4515C31.5643 10.1691 31.4297 10.0481 31.1067 10.0212C29.5857 9.94057 28.2666 9.349 27.1628 8.31376C26.9475 8.11209 26.7859 8.11209 26.5437 8.2062C23.0171 9.6179 19.4905 11.0162 15.9639 12.4278C15.1967 12.7505 14.416 13.0598 13.6353 13.369Z" fill="#292929"/>
<path d="M17.7006 16.6631C20.8368 16.6631 23.9731 16.6631 27.1093 16.6631C28.1054 16.6631 28.1592 16.7034 28.5092 17.6177C29.0611 19.0025 30.0437 19.9302 31.4435 20.4276C32.0358 20.6427 32.1839 20.8175 32.1839 21.4494C32.1973 23.6275 32.1973 25.7921 32.1839 27.9701C32.1839 28.602 32.0223 28.7768 31.4301 28.9919C29.9494 29.5163 28.9534 30.5246 28.4284 31.9901C28.1996 32.6354 28.065 32.743 27.392 32.743C20.9176 32.743 14.4432 32.743 7.98228 32.743C7.39002 32.743 7.20158 32.5951 6.99968 32.0439C6.47472 30.5246 5.45174 29.4894 3.91727 28.965C3.39232 28.7902 3.2308 28.5886 3.2308 28.0239C3.21734 25.819 3.21734 23.6275 3.2308 21.4225C3.2308 20.7772 3.37886 20.6293 3.98457 20.4142C5.43828 19.8898 6.43434 18.8949 6.97275 17.4429C7.20158 16.7975 7.3631 16.6631 8.04958 16.6631C11.2666 16.6631 14.4836 16.6765 17.7006 16.6631C17.7006 16.6765 17.7006 16.6765 17.7006 16.6631ZM30.5955 21.8259C28.9938 21.1402 27.8227 20.0243 27.1093 18.4512C27.0689 18.3571 26.8805 18.2899 26.7728 18.2899C20.7426 18.2765 14.7124 18.2899 8.68221 18.2765C8.46685 18.2765 8.35916 18.3437 8.26494 18.5453C7.60539 19.9839 6.55549 21.0326 5.11524 21.7049C4.89987 21.799 4.83257 21.92 4.83257 22.1485C4.84603 23.8426 4.84603 25.5366 4.83257 27.2306C4.83257 27.5264 4.94025 27.6474 5.18254 27.755C6.54203 28.4003 7.56501 29.3953 8.2111 30.7666C8.3457 31.0624 8.50723 31.1565 8.83027 31.1565C14.0125 31.1431 19.1812 31.1431 24.3634 31.1431C25.1576 31.1431 25.9652 31.1565 26.7594 31.1296C26.8805 31.1296 27.0689 31.0355 27.1228 30.9279C27.8093 29.4356 28.8995 28.3466 30.3936 27.6743C30.4879 27.634 30.5821 27.4861 30.5955 27.392C30.5955 25.5366 30.5955 23.6812 30.5955 21.8259Z" fill="#292929"/>
<path d="M22.5319 24.7159C22.5185 27.378 20.3379 29.556 17.6862 29.5291C15.0211 29.5022 12.8675 27.3376 12.8809 24.6621C12.8944 22.0001 15.0749 19.8489 17.7401 19.8624C20.3918 19.8893 22.5319 22.0673 22.5319 24.7159ZM20.9167 24.7294C20.9302 22.9412 19.4899 21.4892 17.6997 21.4892C15.9364 21.4892 14.4962 22.9278 14.4827 24.689C14.4692 26.4772 15.9095 27.9292 17.6997 27.9292C19.4765 27.9158 20.9032 26.4906 20.9167 24.7294Z" fill="#292929"/>
<path d="M8.85617 25.9C8.19661 25.9 7.6582 25.3622 7.6582 24.7034C7.6582 24.0446 8.19661 23.4934 8.84271 23.4934C9.50226 23.4799 10.0811 24.0581 10.0676 24.7169C10.0541 25.3757 9.51572 25.9 8.85617 25.9ZM9.09845 24.9858C9.20613 24.8916 9.21959 24.7706 9.21959 24.7034C9.21959 24.6362 9.19267 24.5152 9.11191 24.4345C9.04461 24.3673 8.97731 24.3001 8.86963 24.3001C8.61388 24.2866 8.4389 24.4614 8.47928 24.7034C8.49274 24.7706 8.5062 24.8513 8.54658 24.9185C8.61388 25.0126 8.66772 25.0261 8.80233 25.053C8.91001 25.0799 9.04461 25.0261 9.09845 24.9858Z" fill="#292929"/>
<path d="M26.5711 25.9C25.9115 25.9 25.3731 25.3757 25.3596 24.7169C25.3462 24.0581 25.8711 23.5068 26.5307 23.4934C27.1902 23.48 27.769 24.0446 27.769 24.7034C27.769 25.3622 27.2306 25.9 26.5711 25.9ZM26.7864 25.0127C26.8806 24.9051 26.9479 24.7572 26.9345 24.6631C26.9076 24.4211 26.773 24.3404 26.6249 24.3135C26.3961 24.2597 26.1538 24.4614 26.1807 24.7034C26.1942 24.7975 26.2076 24.8648 26.2749 24.9454C26.3018 24.9723 26.3422 25.053 26.4903 25.0799C26.6114 25.0933 26.7595 25.0395 26.7864 25.0127Z" fill="#292929"/>
</svg>
