<svg width="29" height="31" viewBox="0 0 29 31" fill="none" xmlns="http://www.w3.org/2000/svg">
<g clip-path="url(#clip0_57_1691)">
<path d="M0.339844 22.8716C0.43588 20.8584 1.21156 19.1479 2.58562 17.7251C7.74204 12.4045 12.8985 7.09912 18.0475 1.7937C18.8527 0.96875 19.7983 0.401123 20.9138 0.143799C21.0394 0.113525 21.165 0.0908203 21.2906 0.0605469C21.3866 0.0378418 21.7855 0 21.889 0C22.0441 0 22.1992 0 22.3544 0C22.4652 0 22.8789 0.0529785 22.9749 0.0681152C25.3167 0.385986 27.3483 2.39917 27.7176 4.77563C28.0353 6.82666 27.4665 8.58252 26.0333 10.0432C21.8077 14.3723 17.5821 18.709 13.3491 23.0381C13.2383 23.1516 13.1275 23.2651 13.0019 23.3711C11.4579 24.741 9.09394 24.582 7.73466 23.0229C6.37537 21.4639 6.44186 19.1782 7.90457 17.6646C9.93611 15.5605 11.9824 13.4792 14.0214 11.3904C14.11 11.2996 14.206 11.2087 14.3169 11.1406C15.0334 10.6562 16.0233 11.0498 16.2154 11.905C16.3336 12.4348 16.1563 12.8662 15.7796 13.2446C13.7997 15.2654 11.8199 17.2937 9.84746 19.322C9.73665 19.4355 9.62584 19.5491 9.5298 19.6777C8.97574 20.4421 9.40421 21.532 10.3129 21.6985C10.83 21.7969 11.2215 21.5698 11.5761 21.2065C15.787 16.885 20.0052 12.571 24.216 8.25708C24.3268 8.14355 24.4376 8.03003 24.5411 7.90137C25.2207 7.05371 25.4349 6.08496 25.1764 5.03296C24.8809 3.84473 24.1347 3.05005 22.9823 2.72461C21.8003 2.3916 20.7365 2.68677 19.8648 3.57983C14.6936 8.90039 9.52241 14.2209 4.3586 19.5491C3.17662 20.7676 2.68166 22.2434 2.87373 23.9614C3.20616 26.8752 6.1242 28.9717 8.92403 28.3132C9.96566 28.071 10.83 27.5413 11.5761 26.7693C16.5183 21.6758 21.4753 16.5898 26.4027 11.4736C27.3261 10.5125 28.545 10.9893 28.7297 11.9731C28.7371 12.011 28.7371 12.1775 28.7223 12.2607C28.7076 12.3516 28.6928 12.45 28.678 12.4802C28.5598 12.7451 28.449 13.0251 28.2643 13.2219C23.2926 18.376 18.2913 23.53 13.29 28.6765C12.4404 29.5544 11.4505 30.228 10.2833 30.5837C9.80314 30.7351 9.30818 30.8259 8.82061 30.9319C8.71719 30.9546 8.25916 31 8.13358 31C7.95628 31 7.78637 31 7.60907 31C7.49826 31 7.02546 30.947 6.90727 30.9167C6.34582 30.7957 5.77699 30.7048 5.25248 30.4929C2.85157 29.5469 1.27805 27.7834 0.598404 25.2329C0.480205 24.7939 0.428493 24.3474 0.376781 23.8933C0.347231 23.7192 0.339844 22.9548 0.339844 22.8716Z" fill="#979797"/>
</g>
<defs>
<clipPath id="clip0_57_1691">
<rect width="28.412" height="31" fill="white" transform="translate(0.339844)"/>
</clipPath>
</defs>
</svg>
