<svg width="20" height="20" viewBox="0 0 20 20" fill="none" xmlns="http://www.w3.org/2000/svg">
<path d="M7.9 0C9.3 0 10.7 0 12.1 0H12.2C12.5 0.1 12.7 0.3 12.8 0.6C13 0.8 13.1 0.9 13.3 1C16.3 2.3 18.1 4.5 18.8 7.7C18.9 8.1 18.9 8.6 19 9C19.1 9 19.2 9 19.4 9C19.7 9.1 19.8 9.3 19.9 9.6C19.9 9.6 19.9 9.7 19.9 9.8C19.9 10.1 19.9 10.4 19.9 10.6V10.8C19.7 11.3 19.4 11.5 18.8 11.5C12.9 11.5 7 11.5 1.1 11.5C0.7 11.5 0.3 11.3 0.1 10.9C0.1 10.8 0.1 10.8 0 10.7V10.5C0 10.2 0 10 0 9.7V9.6C0.1 9.4 0.2 9.2 0.4 9C0.7 9 0.9 9 1.1 8.9C1.2 8.4 1.2 7.9 1.3 7.4C1.7 5.3 2.8 3.6 4.4 2.3C5.1 1.7 6 1.2 6.8 0.9C7 0.9 7.1 0.8 7.1 0.8C7.2 0.4 7.4 0.2 7.8 0H7.9ZM1.8 8.9C7.3 8.9 12.8 8.9 18.3 8.9C18.2 7 17.6 5.4 16.4 4C15.5 2.9 14.4 2.1 13 1.6C13 1.7 13 1.8 13 1.8C13 3.6 13 5.3 13 7.1C13 7.2 13 7.3 13 7.4C13 7.6 12.8 7.6 12.7 7.6C12.5 7.6 12.4 7.5 12.4 7.3C12.4 7.2 12.4 7.1 12.4 7C12.4 5 12.4 3 12.4 1C12.4 0.7 12.3 0.5 11.9 0.5C11.4 0.5 11 0.5 10.5 0.5C10.4 0.5 10.4 0.5 10.3 0.5C10.3 0.6 10.3 0.7 10.3 0.8C10.3 3.1 10.3 5.3 10.3 7.6C10.3 7.7 10.3 7.8 10.3 7.9C10.3 8.1 10.2 8.1 10 8.1C9.9 8.3 9.7 8.2 9.7 8C9.7 7.9 9.7 7.8 9.7 7.7C9.7 5.4 9.7 3.2 9.7 0.9C9.7 0.8 9.7 0.7 9.7 0.6C9.2 0.6 8.7 0.6 8.2 0.6C7.8 0.6 7.7 0.7 7.7 1.1C7.7 3.1 7.7 5 7.7 7C7.7 7.1 7.7 7.1 7.7 7.2C7.7 7.4 7.6 7.5 7.4 7.5C7.2 7.6 7.1 7.5 7.1 7.3C7.1 7.2 7.1 7.1 7.1 7.1C7.1 5.3 7.1 3.6 7.1 1.8C7.1 1.7 7.1 1.7 7.1 1.6C3.9 2.7 1.8 5.8 1.8 8.9ZM10 10.9C12.9 10.9 15.8 10.9 18.7 10.9C18.8 10.9 18.9 10.9 18.9 10.9C19.1 10.9 19.2 10.8 19.2 10.6C19.2 10.4 19.2 10.2 19.2 10C19.2 9.8 19.1 9.7 18.9 9.7C18.8 9.7 18.8 9.7 18.7 9.7C12.9 9.7 7.1 9.7 1.2 9.7H1.1C0.8 9.7 0.7 9.8 0.7 10.1C0.7 10.2 0.7 10.4 0.7 10.5C0.7 10.9 0.8 11 1.2 11C4.2 10.9 7.1 10.9 10 10.9Z" fill="white"/>
<path d="M0.100006 15.0992C0.200006 14.8992 0.400006 14.8992 0.500006 14.8992C0.900006 14.8992 1.30001 14.8992 1.60001 14.8992C1.70001 14.6992 1.70001 14.3992 1.80001 14.1992C2.10001 13.4992 2.70001 13.1992 3.40001 13.1992C7.70001 13.1992 11.9 13.1992 16.2 13.1992C16.3 13.1992 16.5 13.1992 16.6 13.1992C17.2 13.2992 17.8 13.6992 18 14.2992C18 14.3992 18.1 14.4992 18.2 14.4992C18.5 14.4992 18.9 14.4992 19.2 14.4992C19.4 14.4992 19.6 14.4992 19.7 14.6992V14.7992C19.7 15.6992 19.7 16.5992 19.7 17.4992V17.5992C19.6 17.6992 19.4 17.7992 19.3 17.7992C19 17.7992 18.6 17.7992 18.3 17.7992C18.2 17.7992 18.1 17.7992 18.1 17.9992C18 18.5992 17.7 18.9992 17.2 19.3992C16.9 19.5992 16.6 19.6992 16.3 19.7992H16.2H16C15.3 19.7992 14.6 19.7992 13.9 19.7992C13.8 19.7992 13.4 19.7992 13.3 19.7992C12.2 19.5992 11.3 19.0992 10.6 18.2992C10.5 18.0992 10.3 17.8992 10.2 17.6992C10 17.4992 9.80001 17.4992 9.70001 17.6992C9.60001 17.7992 9.60001 17.8992 9.50001 17.9992C9.00001 18.6992 8.30001 19.1992 7.50001 19.4992C7.20001 19.5992 6.80001 19.6992 6.50001 19.6992H6.20001C5.50001 19.6992 4.70001 19.6992 4.00001 19.6992C4.00001 19.6992 3.90001 19.6992 3.80001 19.6992C2.90001 19.5992 2.20001 19.0992 1.90001 18.1992C1.90001 18.0992 1.80001 18.0992 1.70001 18.0992C1.30001 18.0992 0.900006 18.0992 0.500006 18.0992C0.300006 18.0992 0.200006 18.0992 0.100006 17.8992V17.7992C0.100006 16.9992 0.100006 16.0992 0.100006 15.0992ZM10 13.8992C7.90001 13.8992 5.70001 13.8992 3.60001 13.8992C3.50001 13.8992 3.40001 13.8992 3.30001 13.8992C2.90001 13.9992 2.50001 14.2992 2.50001 14.7992C2.50001 15.7992 2.50001 16.6992 2.50001 17.6992C2.50001 18.3992 3.20001 19.0992 3.90001 19.1992C4.70001 19.1992 5.50001 19.1992 6.40001 19.1992C7.30001 19.1992 8.00001 18.7992 8.60001 18.1992C8.90001 17.8992 9.10001 17.5992 9.30001 17.2992C9.70001 16.7992 10.5 16.7992 10.9 17.2992C11 17.3992 11.1 17.5992 11.2 17.6992C11.8 18.4992 12.7 18.9992 13.7 19.0992C14.5 19.1992 15.3 19.1992 16.1 19.0992C17.1 19.0992 17.7 18.3992 17.7 17.3992C17.7 16.4992 17.7 15.6992 17.7 14.7992C17.7 14.5992 17.7 14.4992 17.6 14.2992C17.4 13.8992 17 13.6992 16.6 13.6992C14.3 13.8992 12.2 13.8992 10 13.8992ZM18.3 17.1992C18.6 17.1992 19 17.1992 19.3 17.1992C19.3 16.8992 19.3 16.4992 19.3 16.1992C19 16.1992 18.7 16.1992 18.3 16.1992C18.3 16.4992 18.3 16.8992 18.3 17.1992ZM1.70001 16.5992C1.40001 16.5992 1.00001 16.5992 0.700006 16.5992C0.700006 16.8992 0.700006 17.1992 0.700006 17.5992C1.00001 17.5992 1.30001 17.5992 1.70001 17.5992C1.70001 17.1992 1.70001 16.8992 1.70001 16.5992ZM1.70001 15.5992C1.40001 15.5992 1.00001 15.5992 0.700006 15.5992C0.700006 15.6992 0.700006 15.7992 0.700006 15.8992C1.00001 15.8992 1.30001 15.8992 1.70001 15.8992C1.70001 15.7992 1.70001 15.6992 1.70001 15.5992ZM19.3 15.1992C19 15.1992 18.6 15.1992 18.3 15.1992C18.3 15.2992 18.3 15.3992 18.3 15.4992C18.6 15.4992 19 15.4992 19.3 15.4992C19.3 15.3992 19.3 15.2992 19.3 15.1992Z" fill="white"/>
<path d="M6.19995 14.5996C6.89995 14.5996 7.49995 14.5996 8.19995 14.5996C8.29995 14.5996 8.29995 14.5996 8.39995 14.5996C8.59995 14.5996 8.69995 14.7996 8.69995 14.8996C8.69995 15.0996 8.59995 15.1996 8.39995 15.1996C8.29995 15.1996 8.29995 15.1996 8.19995 15.1996C6.89995 15.1996 5.59995 15.1996 4.29995 15.1996C3.89995 15.1996 3.79995 15.2996 3.79995 15.6996C3.79995 15.9996 3.79995 16.3996 3.79995 16.6996C3.79995 16.7996 3.79995 16.7996 3.79995 16.8996C3.79995 17.0996 3.59995 17.1996 3.49995 17.1996C3.29995 17.1996 3.19995 17.0996 3.19995 16.8996C3.19995 16.3996 3.19995 15.8996 3.19995 15.3996C3.19995 14.9996 3.59995 14.5996 3.99995 14.5996C4.59995 14.5996 5.09995 14.5996 5.69995 14.5996C5.79995 14.5996 5.99995 14.5996 6.19995 14.5996Z" fill="white"/>
<path d="M9.99999 14.5C10.1 14.5 10.3 14.5 10.4 14.5C10.6 14.5 10.7 14.7 10.7 14.8C10.7 15 10.6 15.1 10.4 15.1C10.1 15.1 9.89999 15.1 9.59999 15.1C9.39999 15.1 9.29999 14.9 9.29999 14.8C9.29999 14.6 9.39999 14.5 9.59999 14.5C9.79999 14.6 9.89999 14.6 9.99999 14.5Z" fill="white"/>
</svg>
