<svg width="24" height="24" viewBox="0 0 24 24" fill="none" xmlns="http://www.w3.org/2000/svg">
<g clip-path="url(#clip0_59_54623)">
<path d="M9.53748 0C11.1687 0 12.8 0 14.4312 0C14.4937 0 14.7125 0.03125 14.7562 0.05C15.075 0.18125 15.3625 0.35625 15.475 0.70625C15.5625 0.98125 15.7375 1.08125 15.9812 1.18125C19.6062 2.7 21.8125 5.3875 22.6125 9.23125C22.7187 9.7375 22.75 10.2625 22.8125 10.775C22.9812 10.825 23.1562 10.8562 23.3187 10.925C23.6125 11.05 23.7875 11.275 23.9125 11.5437C23.9437 11.6125 24.0062 11.9187 24.0062 11.9937C24.0062 12.2437 24.0062 12.5 24.0062 12.75C24.0062 12.8438 23.9625 13.1438 23.9375 13.2C23.7062 13.7188 23.3062 14 22.6875 14C15.5687 14 8.44998 14 1.32498 14C0.787476 14 0.368726 13.8 0.124976 13.3062C0.106226 13.2687 0.0874756 13.225 0.0687256 13.1812C0.0499756 13.1312 0.00622559 12.8938 0.00622559 12.825C0.00622559 12.5375 0.00622559 12.25 0.00622559 11.9563C0.00622559 11.8938 0.0374756 11.675 0.0562256 11.6313C0.156226 11.3813 0.287476 11.15 0.531226 11.0125C0.737476 10.9 0.968726 10.8313 1.18748 10.75C1.27498 10.15 1.33123 9.51875 1.46873 8.90625C2.01248 6.41875 3.28123 4.36875 5.26873 2.76875C6.16248 2.05 7.14998 1.49375 8.22498 1.09375C8.30623 1.0625 8.41873 1.00625 8.43748 0.94375C8.55622 0.475 8.86872 0.20625 9.28123 0.0375C9.30622 0.025 9.48123 0 9.53748 0ZM2.03748 10.7812C8.68123 10.7812 15.3187 10.7812 21.975 10.7812C21.8625 8.525 21.1062 6.53125 19.675 4.80625C18.5812 3.4875 17.2312 2.51875 15.6 1.8875C15.6 2.0125 15.6 2.1 15.6 2.18125C15.6 4.31875 15.6 6.4625 15.6 8.6C15.6 8.70625 15.5937 8.81875 15.5625 8.925C15.5062 9.1125 15.3625 9.2 15.1687 9.1875C14.975 9.175 14.85 9.0625 14.8125 8.875C14.7937 8.775 14.8 8.675 14.8 8.56875C14.8 6.1625 14.8 3.75625 14.8 1.35C14.8 0.9375 14.6625 0.8 14.2562 0.8C13.7125 0.8 13.1625 0.8 12.6187 0.8C12.55 0.8 12.4875 0.80625 12.4062 0.8125C12.4062 0.9375 12.4062 1.0375 12.4062 1.1375C12.4062 3.88125 12.4062 6.61875 12.4062 9.3625C12.4062 9.46875 12.4062 9.58125 12.3812 9.6875C12.3375 9.88125 12.2062 9.98125 12.0125 9.9875C11.8062 9.99375 11.6687 9.8875 11.625 9.6875C11.6 9.58125 11.6 9.46875 11.6 9.3625C11.6 6.6125 11.6 3.8625 11.6 1.1125C11.6 1.0125 11.6 0.91875 11.6 0.8C10.9875 0.8 10.4125 0.8 9.83747 0.8C9.31248 0.8 9.19998 0.90625 9.19998 1.425C9.19998 3.80625 9.19998 6.1875 9.19998 8.575C9.19998 8.6625 9.19998 8.75 9.19373 8.83125C9.16873 9.04375 9.02497 9.18125 8.82498 9.1875C8.60623 9.19375 8.46873 9.0875 8.41873 8.875C8.39997 8.7875 8.39373 8.6875 8.39373 8.59375C8.39373 6.45625 8.39373 4.3125 8.39373 2.175C8.39373 2.0875 8.39373 2 8.39373 1.9C4.60623 3.2875 2.09373 7.0625 2.03748 10.7812ZM11.975 13.2C15.4937 13.2 19.0187 13.2 22.5375 13.2C22.6312 13.2 22.725 13.2 22.8187 13.1875C23.0562 13.1562 23.1875 13.025 23.1937 12.7812C23.2062 12.525 23.2062 12.2688 23.1937 12.0063C23.1812 11.7563 23.0437 11.625 22.8 11.5938C22.725 11.5875 22.6437 11.5875 22.5687 11.5875C15.525 11.5875 8.48123 11.5875 1.43748 11.5875C1.38123 11.5875 1.32498 11.5875 1.27498 11.5875C0.949976 11.6062 0.806226 11.7438 0.799976 12.0688C0.793726 12.2313 0.799976 12.3938 0.799976 12.5625C0.799976 13.0813 0.906226 13.1938 1.43123 13.1938C4.94373 13.2 8.45623 13.2 11.975 13.2Z" fill="black"/>
<path d="M0.0437699 18.2125C0.16877 18.0437 0.34377 17.9875 0.56877 17.9937C1.03752 18.0062 1.50627 18 1.95627 18C2.03752 17.7125 2.08127 17.4188 2.20002 17.1688C2.59377 16.3375 3.29377 16 4.19377 16C9.35627 16 14.5125 16 19.675 16C19.8563 16 20.0313 16.0125 20.2125 16.025C20.9875 16.0937 21.6688 16.6375 21.8938 17.3875C21.9438 17.55 22.0063 17.6125 22.1813 17.6063C22.5875 17.5938 22.9938 17.6063 23.4 17.6C23.5938 17.5938 23.7688 17.625 23.9063 17.7437C23.9438 17.775 24.0063 17.9625 24.0063 18.0125C24.0063 19.05 24.0063 20.0875 24.0063 21.1313C24.0063 21.2 23.9625 21.4 23.9375 21.425C23.8125 21.5687 23.6375 21.6187 23.4313 21.6125C23.0188 21.6 22.6063 21.6188 22.1875 21.6063C22.0313 21.6 21.9688 21.6375 21.925 21.8125C21.7688 22.4875 21.4063 23.0375 20.85 23.4625C20.5063 23.7187 20.1188 23.85 19.7188 23.9625C19.6625 23.9812 19.4375 24.0125 19.3813 24.0125C18.4938 24.0125 17.6125 24.0125 16.725 24.0125C16.6375 24.0125 16.1813 23.975 16.0438 23.95C14.7563 23.7313 13.675 23.15 12.8313 22.1437C12.65 21.9312 12.5 21.6875 12.3313 21.4688C12.1375 21.225 11.875 21.225 11.6813 21.4688C11.5875 21.5813 11.5125 21.7125 11.425 21.8312C10.7938 22.7 9.98127 23.3375 8.96252 23.6812C8.54377 23.8187 8.10627 23.8875 7.67502 23.9813C7.63752 23.9875 7.36877 24.0063 7.26877 24.0063C6.42502 24.0063 5.58752 24.0063 4.74377 24.0063C4.66252 24.0063 4.48752 23.9813 4.46877 23.9813C3.36252 23.8063 2.59377 23.2 2.18752 22.15C2.13752 22.0187 2.06252 22 1.93752 22C1.46877 22.0062 1.00002 21.9938 0.53752 22.0063C0.31877 22.0125 0.15002 21.95 0.0437699 21.775C0.0312699 21.7562 0.0125199 21.6562 0.0125199 21.625C0.0125199 20.5563 0.0125199 19.4813 0.0125199 18.4125C1.98521e-05 18.3625 0.0250199 18.2375 0.0437699 18.2125ZM12 16.7938C9.41252 16.7938 6.83127 16.7938 4.24377 16.7938C4.10627 16.7938 3.96252 16.8 3.82502 16.8188C3.28752 16.8875 2.82502 17.3438 2.81877 17.8875C2.80002 19.05 2.78752 20.2125 2.82502 21.375C2.85002 22.2812 3.61252 23.0937 4.51877 23.15C5.50627 23.2125 6.50002 23.2 7.48752 23.1688C8.53127 23.1313 9.44377 22.7125 10.1938 21.9937C10.5188 21.6812 10.775 21.3 11.05 20.95C11.55 20.3188 12.4563 20.325 12.9438 20.9688C13.0563 21.1188 13.1563 21.2812 13.2688 21.425C14.0438 22.4312 15.0625 23.0562 16.3313 23.15C17.2875 23.225 18.25 23.2125 19.2125 23.1875C20.3688 23.1562 21.1688 22.3062 21.1813 21.1437C21.1938 20.1125 21.1875 19.0812 21.175 18.05C21.175 17.8562 21.1313 17.6437 21.05 17.4625C20.8063 16.95 20.3563 16.7875 19.8125 16.7875C17.2188 16.8 14.6063 16.7938 12 16.7938ZM22.0063 20.7812C22.4188 20.7812 22.8 20.7812 23.1813 20.7812C23.1813 20.375 23.1813 19.9937 23.1813 19.6125C22.7813 19.6125 22.3938 19.6125 22.0063 19.6125C22.0063 20.0062 22.0063 20.3875 22.0063 20.7812ZM1.99377 20.0187C1.58752 20.0187 1.20627 20.0187 0.81877 20.0187C0.81877 20.4187 0.81877 20.8 0.81877 21.175C1.21877 21.175 1.60627 21.175 1.99377 21.175C1.99377 20.7875 1.99377 20.4125 1.99377 20.0187ZM1.99377 18.8125C1.58127 18.8125 1.19377 18.8125 0.81252 18.8125C0.81252 18.9437 0.81252 19.0625 0.81252 19.1812C1.21252 19.1812 1.60002 19.1812 1.99377 19.1812C1.99377 19.05 1.99377 18.9375 1.99377 18.8125ZM23.1938 18.4188C22.7875 18.4188 22.4063 18.4188 22.0125 18.4188C22.0125 18.55 22.0125 18.6625 22.0125 18.7812C22.4125 18.7812 22.8063 18.7812 23.1938 18.7812C23.1938 18.65 23.1938 18.5438 23.1938 18.4188Z" fill="black"/>
<path d="M7.38747 17.5941C8.18122 17.5941 8.98122 17.5941 9.77497 17.5941C9.84372 17.5941 9.91872 17.5941 9.98747 17.6004C10.2375 17.6254 10.4 17.7816 10.4 17.9941C10.4 18.2066 10.2375 18.3691 9.98747 18.3879C9.91247 18.3941 9.83122 18.3941 9.75622 18.3941C8.16872 18.3941 6.58747 18.3941 4.99997 18.3941C4.51247 18.3941 4.40622 18.5066 4.40622 18.9816C4.40622 19.4004 4.40622 19.8254 4.40622 20.2441C4.40622 20.3191 4.39997 20.4004 4.38122 20.4754C4.33122 20.6754 4.15622 20.8066 3.96872 20.7816C3.75622 20.7504 3.61247 20.6316 3.61247 20.4129C3.60622 19.8191 3.59372 19.2254 3.61872 18.6316C3.64372 18.1066 4.11247 17.6441 4.64372 17.6129C5.31247 17.5754 5.98747 17.5941 6.65622 17.5879C6.89997 17.5941 7.14372 17.5941 7.38747 17.5941Z" fill="black"/>
<path d="M11.9937 17.5879C12.1562 17.5941 12.3125 17.5941 12.4625 17.6191C12.6625 17.6504 12.8062 17.8191 12.7937 18.0066C12.7812 18.2066 12.675 18.3629 12.4687 18.3754C12.1562 18.3941 11.8437 18.3941 11.5375 18.3754C11.3375 18.3629 11.1937 18.1816 11.2062 17.9879C11.2187 17.7879 11.325 17.6441 11.5312 17.6191C11.6812 17.5941 11.8375 17.6004 11.9937 17.5879Z" fill="black"/>
</g>
<defs>
<clipPath id="clip0_59_54623">
<rect width="24" height="24" fill="white"/>
</clipPath>
</defs>
</svg>
