<svg width="68" height="68" viewBox="0 0 68 68" fill="none" xmlns="http://www.w3.org/2000/svg">
<path d="M63.7109 51.9725C63.7109 41.2292 63.7109 30.4706 63.7109 19.7273C63.7109 19.5738 63.6189 19.0213 63.6035 18.8985C62.9282 13.6803 58.4928 9.45976 53.2593 9.13747C52.231 9.07608 51.2027 9.12212 50.1284 9.12212C50.1284 8.47752 50.0977 7.95571 50.1284 7.44924C50.2358 6.06796 49.714 5.11641 48.4708 4.60994C48.4248 4.57925 48.1332 4.5332 48.0564 4.5332C47.8876 4.5332 47.7188 4.5332 47.55 4.5332C47.4886 4.5332 47.2584 4.5639 47.2123 4.57925C45.8924 5.10106 45.4013 6.114 45.5088 7.51063C45.5548 8.00175 45.5088 8.49287 45.5088 9.01469C37.9731 9.01469 30.4835 9.01469 22.9479 9.01469C22.9479 8.49287 22.9172 8.00175 22.9479 7.51063C23.0553 6.09865 22.5488 5.08571 21.2443 4.57925C21.1982 4.5639 20.968 4.5332 20.8913 4.5332C20.7225 4.5332 20.569 4.5332 20.4002 4.5332C20.3234 4.5332 20.0779 4.5639 20.0318 4.59459C18.758 5.10106 18.2208 6.06796 18.3283 7.44924C18.3743 7.97105 18.3283 8.50822 18.3283 9.06073C17.6069 9.06073 16.9777 9.06073 16.3484 9.06073C10.9307 9.13747 6.52599 12.4372 5.14471 17.4865C5.02193 17.9163 4.92984 18.3613 4.83776 18.8064C4.80706 18.9599 4.74567 19.5431 4.74567 19.6966C4.74567 30.5319 4.74567 41.352 4.74567 52.1873C4.74567 52.3715 4.83776 53.4305 4.85311 53.5379C5.48236 58.2496 8.90486 62.0405 13.5398 63.1455C14.0616 63.2683 16.1642 63.4678 16.7014 63.4678C28.5344 63.4678 40.3673 63.4678 52.2003 63.4678C52.5686 63.4678 53.5202 63.3757 53.6429 63.3757C58.4774 62.7618 62.3143 59.3086 63.404 54.5662C63.5421 54.1058 63.7109 52.3868 63.7109 51.9725ZM59.1067 27.2629C59.1067 27.5238 59.1067 27.708 59.1067 27.9075C59.1067 35.9036 59.1067 43.8997 59.1067 51.8957C59.1067 55.8707 56.1599 58.8482 52.1696 58.8482C40.2138 58.8635 28.2735 58.8635 16.3177 58.8482C12.3274 58.8482 9.38063 55.8707 9.38063 51.8804C9.38063 43.8843 9.38063 35.8882 9.38063 27.8922C9.38063 27.6926 9.38063 27.4931 9.38063 27.2629C25.9867 27.2629 42.516 27.2629 59.1067 27.2629ZM59.0606 22.5973C42.4853 22.5973 25.956 22.5973 9.42667 22.5973C8.6593 15.4146 13.7393 13.005 18.3589 13.7724C18.3589 15.2304 18.3436 16.6731 18.3589 18.1311C18.3743 19.3896 19.2798 20.3565 20.4769 20.4333C21.8428 20.5253 22.9325 19.5278 22.9479 18.1465C22.9632 16.6731 22.9479 15.1997 22.9479 13.6957C30.4835 13.6957 37.9731 13.6957 45.5088 13.6957C45.5088 13.9412 45.5088 14.1408 45.5088 14.3556C45.5088 15.6141 45.4934 16.888 45.5088 18.1465C45.5241 19.4664 46.537 20.4486 47.8109 20.4333C49.1001 20.4333 50.0823 19.451 50.0977 18.1158C50.113 17.4405 50.0977 16.7805 50.0977 16.1053C50.0977 15.3072 50.0977 14.5091 50.0977 13.711C55.5921 13.0357 59.782 16.0746 59.0606 22.5973Z" fill="black"/>
<path d="M47.8125 47.582C47.0604 47.582 46.3238 47.5667 45.5717 47.582C44.2672 47.6127 43.2696 48.6256 43.2696 49.8841C43.2696 51.1273 44.2518 52.1556 45.5257 52.1709C47.0604 52.2016 48.5952 52.2016 50.1146 52.1709C51.4038 52.1556 52.4167 51.0813 52.386 49.8381C52.3553 48.595 51.3731 47.6127 50.0993 47.582C49.3472 47.5667 48.5798 47.582 47.8125 47.582Z" fill="black"/>
<path d="M20.6445 47.582C19.8925 47.582 19.1558 47.5667 18.4038 47.582C17.0992 47.6127 16.0863 48.6103 16.0863 49.8841C16.0863 51.1426 17.0992 52.1709 18.4038 52.1863C19.9232 52.2016 21.4272 52.217 22.9466 52.1863C24.2512 52.1709 25.2488 51.112 25.2181 49.8535C25.2027 48.6103 24.2205 47.6127 22.9313 47.582C22.1792 47.5667 21.4119 47.582 20.6445 47.582Z" fill="black"/>
<path d="M20.6915 38.6043C21.4435 38.6043 22.1802 38.6197 22.9322 38.6043C24.2368 38.5736 25.2344 37.5607 25.2344 36.3022C25.219 35.0284 24.2214 34.0308 22.9169 34.0154C21.4282 34.0001 19.9241 34.0001 18.4354 34.0154C17.1309 34.0308 16.1179 35.0284 16.1026 36.2869C16.0872 37.5453 17.1002 38.5736 18.4047 38.6043C19.1567 38.6197 19.9241 38.6043 20.6915 38.6043Z" fill="black"/>
<path d="M47.8712 38.6041C48.6232 38.6041 49.3599 38.6194 50.1119 38.6041C51.4165 38.5734 52.4141 37.5451 52.4141 36.2866C52.3987 35.0281 51.3858 34.0151 50.0812 33.9998C48.5925 33.9844 47.0885 33.9844 45.5998 33.9998C44.2952 34.0151 43.2823 35.0127 43.2823 36.2866C43.2669 37.5451 44.2799 38.5734 45.5691 38.6041C46.3364 38.6194 47.1038 38.6041 47.8712 38.6041Z" fill="black"/>
<path d="M34.2892 38.6041C35.0412 38.6041 35.7779 38.6194 36.5299 38.6041C37.8344 38.5734 38.832 37.5451 38.832 36.2866C38.8167 35.0281 37.8191 34.0151 36.4992 33.9998C35.0105 33.9844 33.5064 33.9844 32.0177 33.9998C30.6978 34.0151 29.7156 35.0127 29.7002 36.2866C29.6849 37.5604 30.6825 38.5734 31.987 38.6041C32.7544 38.6194 33.5218 38.6041 34.2892 38.6041Z" fill="black"/>
<path d="M34.212 47.582C33.4599 47.582 32.7233 47.5667 31.9712 47.582C30.6974 47.6127 29.7151 48.6103 29.6998 49.8535C29.6844 51.0966 30.6513 52.1402 31.9252 52.1709C33.4753 52.2016 35.0254 52.2016 36.5755 52.1709C37.834 52.1402 38.8316 51.0966 38.8162 49.8688C38.8162 48.6256 37.8186 47.6127 36.5448 47.582C35.7774 47.5667 34.9947 47.582 34.212 47.582Z" fill="black"/>
</svg>
