<svg width="12" height="12" viewBox="0 0 12 12" fill="none" xmlns="http://www.w3.org/2000/svg">
<g clip-path="url(#clip0_8261_2181)">
<path d="M11.484 2.2422C11.484 5.49489 11.484 8.74759 11.484 12.0003C7.82788 12.0003 4.17175 12.0003 0.515625 12.0003C0.515625 9.78139 0.515625 7.56565 0.515625 5.34676C0.515625 5.31839 0.54084 5.2396 0.553447 5.23014C0.591269 5.19232 0.625939 5.14819 0.666913 5.11667C0.685824 5.10091 0.758316 5.06309 0.774075 5.05679C2.23653 4.40121 3.69898 3.75193 5.16458 3.1058C5.26544 3.06168 5.29065 3.0081 5.29065 2.90409C5.2875 2.00897 5.29065 1.117 5.28435 0.221878C5.28435 0.0863488 5.31902 -0.0145099 5.42618 -0.0838502C5.43564 -0.0901539 5.47346 -0.0996094 5.48607 -0.0996094C5.50498 -0.0996094 5.52074 -0.0996094 5.53965 -0.0996094C5.55856 -0.0996094 5.65626 -0.068091 5.69093 -0.0554837C7.54106 0.631616 9.39119 1.31872 11.2413 2.00266C11.3359 2.03733 11.4178 2.08461 11.4682 2.16971C11.4745 2.17601 11.484 2.22644 11.484 2.2422ZM7.30152 11.5243C7.30152 11.4645 7.30152 11.4172 7.30152 11.3699C7.30152 10.6418 7.30152 9.91376 7.30152 9.18254C7.30152 8.9493 7.38032 8.87051 7.61355 8.87051C8.12415 8.87051 8.6379 8.87051 9.1485 8.87051C9.39119 8.87051 9.46683 8.94615 9.46683 9.18884C9.46683 9.92007 9.46683 10.6544 9.46683 11.3857C9.46683 11.4298 9.46683 11.4771 9.46683 11.518C9.65909 11.518 9.83559 11.518 10.0152 11.518C10.0152 11.1115 10.0152 10.7143 10.0152 10.3172C10.0152 10.2731 10.0152 10.2321 10.0152 10.188C10.0184 10.0241 10.1067 9.92007 10.2485 9.92007C10.3935 9.92007 10.4849 10.0209 10.4849 10.1848C10.4849 10.5914 10.4849 10.9948 10.4849 11.4014C10.4849 11.4424 10.4849 11.4834 10.4849 11.5212C10.6677 11.5212 10.8316 11.5212 11.0018 11.5212C11.0018 11.4771 11.0018 11.4424 11.0018 11.4077C11.0018 8.44816 11.0018 5.49174 11.0049 2.53217C11.0049 2.44077 10.9703 2.4061 10.8883 2.37458C9.26196 1.77573 7.62931 1.16743 5.99351 0.562276C5.92102 0.533909 5.84853 0.511846 5.76343 0.480328C5.76343 0.543365 5.76343 0.590642 5.76343 0.63792C5.76343 2.3273 5.76343 4.01668 5.76343 5.70922C5.76343 5.75334 5.76658 5.79747 5.76027 5.83844C5.74767 5.95821 5.66257 6.04331 5.54595 6.05277C5.42618 6.06222 5.32847 5.99288 5.29696 5.87942C5.2875 5.83844 5.2875 5.79432 5.2875 5.75019C5.2875 5.0694 5.2875 4.3886 5.2875 3.70465C5.2875 3.66368 5.2875 3.62271 5.2875 3.56912C5.23392 3.59119 5.19925 3.60379 5.16143 3.61955C3.80614 4.22155 2.45085 4.82355 1.09556 5.4224C1.01046 5.46022 0.982096 5.50435 0.982096 5.59575C0.991552 7.06451 0.9884 8.53641 0.9884 10.0052C0.9884 10.0461 0.9884 10.0903 0.9884 10.1312C1.26576 10.1312 1.52736 10.1312 1.79527 10.1312C1.79527 10.0777 1.79527 10.0367 1.79527 9.99256C1.79527 9.51979 1.79527 9.04701 1.79527 8.57424C1.79527 8.35046 1.87722 8.26851 2.10415 8.26851C2.79755 8.26851 3.49096 8.26851 4.18436 8.26851C4.40184 8.26851 4.48378 8.35045 4.48378 8.56793C4.48378 9.04701 4.48378 9.52924 4.48378 10.0083C4.48378 10.0493 4.48378 10.0903 4.48378 10.1312C4.76114 10.1312 5.01959 10.1312 5.2875 10.1312C5.2875 9.97995 5.2875 9.83497 5.2875 9.68998C5.2875 9.12265 5.2875 8.55532 5.2875 7.98799C5.2875 7.80834 5.41357 7.69487 5.57116 7.72324C5.69409 7.7453 5.76027 7.84301 5.76027 8.01006C5.76027 9.13211 5.76027 10.2542 5.76027 11.3794C5.76027 11.4266 5.76027 11.4708 5.76027 11.5212C5.93993 11.5212 6.10382 11.5212 6.27718 11.5212C6.27718 11.4802 6.27718 11.4519 6.27718 11.4203C6.27718 11.0074 6.27718 10.5946 6.27718 10.1785C6.27718 9.99256 6.42846 9.87279 6.58921 9.93267C6.70898 9.9768 6.74995 10.0714 6.74995 10.1943C6.74995 10.5946 6.74995 10.998 6.74995 11.3983C6.74995 11.4393 6.74995 11.4802 6.74995 11.5212C6.94536 11.5244 7.11556 11.5243 7.30152 11.5243ZM0.994704 11.5212C2.43194 11.5212 3.85657 11.5212 5.28435 11.5212C5.28435 11.2155 5.28435 10.9192 5.28435 10.6198C3.85026 10.6198 2.42564 10.6198 0.994704 10.6198C0.994704 10.9224 0.994704 11.2155 0.994704 11.5212ZM8.9909 9.35274C8.58432 9.35274 8.18719 9.35274 7.78375 9.35274C7.78375 10.0808 7.78375 10.7994 7.78375 11.5212C8.19034 11.5212 8.59062 11.5212 8.9909 11.5212C8.9909 10.7963 8.9909 10.0777 8.9909 9.35274ZM4.0047 10.1312C4.0047 9.66792 4.0047 9.20775 4.0047 8.74443C3.42477 8.74443 2.85428 8.74443 2.27435 8.74443C2.27435 9.20775 2.27435 9.66792 2.27435 10.1312C2.85428 10.1312 3.42792 10.1312 4.0047 10.1312Z" fill="#292929"/>
<path d="M3.14075 7.59088C2.79405 7.59088 2.44735 7.59088 2.10065 7.59088C1.87687 7.59088 1.79492 7.50893 1.79492 7.282C1.79492 6.88802 1.79807 6.49404 1.79492 6.10007C1.79492 5.95193 1.85481 5.86053 1.99349 5.80064C2.4442 5.61468 2.89176 5.42242 3.34247 5.23646C3.41181 5.2081 3.49376 5.19234 3.5694 5.18919C3.78688 5.18288 4.0012 5.18603 4.21868 5.18919C4.39203 5.19234 4.48344 5.28059 4.48344 5.45079C4.48659 6.0717 4.48344 6.69576 4.48344 7.31667C4.48344 7.49633 4.39518 7.58458 4.21553 7.58773C3.85622 7.59403 3.50006 7.59088 3.14075 7.59088ZM4.00751 5.67772C3.84046 5.67772 3.66396 5.63675 3.52213 5.68718C3.11869 5.82901 2.73102 6.01181 2.33704 6.17886C2.30867 6.19147 2.274 6.22299 2.274 6.2482C2.27085 6.53502 2.27085 6.82184 2.27085 7.1118C2.85709 7.1118 3.43072 7.1118 4.00751 7.1118C4.00751 6.62957 4.00751 6.1568 4.00751 5.67772Z" fill="#292929"/>
<path d="M6.28125 3.58765C6.28125 3.19682 6.28125 2.80915 6.28125 2.41832C6.28125 2.2166 6.36635 2.12205 6.56807 2.1315C6.69414 2.13466 6.82652 2.15357 6.94629 2.19454C7.25201 2.2954 7.55144 2.41517 7.85401 2.52548C8.01161 2.58537 8.05573 2.6484 8.05573 2.81545C8.05573 3.46158 8.05573 4.10455 8.05573 4.75068C8.05573 4.94609 7.97378 5.03434 7.77837 5.03434C7.37178 5.03749 6.96835 5.03749 6.56176 5.03434C6.3632 5.03434 6.28125 4.94924 6.28125 4.75068C6.28125 4.36615 6.28125 3.97848 6.28125 3.58765ZM7.57981 2.92892C7.3119 2.82806 7.04084 2.73035 6.76348 2.62634C6.76348 3.27877 6.76348 3.91544 6.76348 4.55842C7.03769 4.55842 7.3056 4.55842 7.57981 4.55842C7.57981 4.01315 7.57981 3.47418 7.57981 2.92892Z" fill="#292929"/>
<path d="M8.05453 6.88543C8.05453 7.19746 8.05453 7.50634 8.05453 7.81837C8.05453 8.01064 7.96628 8.09889 7.77087 8.09889C7.37059 8.09889 6.96715 8.09889 6.56687 8.09889C6.37145 8.09889 6.2832 8.01064 6.2832 7.81837C6.2832 7.19116 6.2832 6.5671 6.2832 5.93988C6.2832 5.74762 6.36515 5.66252 6.55426 5.66252C6.964 5.65937 7.37374 5.65937 7.78348 5.66252C7.97259 5.66252 8.05453 5.75077 8.05768 5.93988C8.05453 6.25506 8.05453 6.57025 8.05453 6.88543ZM6.76543 6.13845C6.76543 6.64274 6.76543 7.13127 6.76543 7.61981C7.04279 7.61981 7.30755 7.61981 7.57545 7.61981C7.57545 7.12182 7.57545 6.63328 7.57545 6.13845C7.30125 6.13845 7.03334 6.13845 6.76543 6.13845Z" fill="#292929"/>
<path d="M8.7168 6.88228C8.7168 6.5671 8.7168 6.25191 8.7168 5.93673C8.7168 5.74762 8.79874 5.66252 8.99101 5.66252C9.40074 5.65937 9.81048 5.65937 10.2171 5.66252C10.4062 5.66252 10.4881 5.75077 10.4913 5.93988C10.4913 6.56394 10.4913 7.19116 10.4913 7.81522C10.4913 8.00748 10.403 8.09889 10.2108 8.09889C9.80418 8.10204 9.40074 8.10204 8.99416 8.09889C8.8019 8.09889 8.7168 8.00748 8.7168 7.81207C8.7168 7.50319 8.7168 7.19431 8.7168 6.88228ZM9.19903 6.1416C9.19903 6.64589 9.19903 7.13443 9.19903 7.62296C9.47639 7.62296 9.74114 7.62296 10.009 7.62296C10.009 7.12497 10.009 6.63644 10.009 6.1416C9.73484 6.1416 9.47008 6.1416 9.19903 6.1416Z" fill="#292929"/>
<path d="M8.7168 3.99763C8.7168 3.74233 8.7168 3.48703 8.7168 3.22858C8.7168 3.00796 8.86178 2.90395 9.0698 2.97959C9.48269 3.13088 9.89558 3.28532 10.3085 3.43976C10.4472 3.49019 10.4913 3.56268 10.4913 3.70766C10.4913 4.06067 10.4913 4.41683 10.4913 4.76983C10.4913 4.94633 10.4062 5.03774 10.2328 5.03774C9.81048 5.04089 9.39129 5.04089 8.96894 5.03774C8.8019 5.03458 8.71995 4.94318 8.7168 4.77613C8.7168 4.51453 8.7168 4.25608 8.7168 3.99763ZM9.19587 3.52801C9.19587 3.88101 9.19587 4.21511 9.19587 4.55866C9.47008 4.55866 9.73799 4.55866 10.0185 4.55866C10.0185 4.32857 10.0185 4.10479 10.0154 3.88101C10.0154 3.85895 9.99329 3.82743 9.97438 3.82113C9.71908 3.72342 9.46378 3.62887 9.19587 3.52801Z" fill="#292929"/>
<path d="M5.76379 6.88836C5.76694 7.01758 5.65348 7.13105 5.52425 7.1279C5.40133 7.12475 5.29417 7.01758 5.29102 6.89466C5.29102 6.76859 5.38872 6.66143 5.51795 6.65828C5.65348 6.65512 5.76064 6.75598 5.76379 6.88836Z" fill="#292929"/>
</g>
<defs>
<clipPath id="clip0_8261_2181">
<rect width="12" height="12" fill="white"/>
</clipPath>
</defs>
</svg>
