<svg width="38" height="38" viewBox="0 0 38 38" fill="none" xmlns="http://www.w3.org/2000/svg">
<circle cx="19" cy="19" r="19" fill="#723CD9"/>
<g clip-path="url(#clip0_35_422)">
<path d="M14.5566 11C14.4199 11 14.2783 11 14.1416 11C14.0684 11 13.7998 11.0248 13.7412 11.0348C13.3799 11.1043 13.0137 11.154 12.6719 11.2732C10.8018 11.9387 9.69336 13.3195 9.2002 15.2368C9.11719 15.5497 9.07812 15.8775 9.0293 16.2003C9.01953 16.2699 9 16.4834 9 16.5232C9 16.702 9 16.8808 9 17.0596C9 17.1192 9.02441 17.3377 9.0293 17.3874C9.11719 18.5844 9.54688 19.6573 10.1914 20.6507C11.041 21.9669 12.125 23.0745 13.2773 24.1126C14.9082 25.5828 16.5684 27.0232 18.2139 28.4735C18.3896 28.6275 18.5801 28.7616 18.7656 28.9007C18.79 28.9205 18.9463 29 19 29C19.0537 29 19.2148 28.9205 19.249 28.9007C19.3271 28.851 19.4053 28.8013 19.4785 28.7417C21.0361 27.3758 22.5986 26.0149 24.1465 24.644C25.3232 23.601 26.4609 22.5083 27.4082 21.2368C28.0381 20.3924 28.5459 19.4834 28.7949 18.4404C28.8828 18.0778 28.9268 17.7053 28.9854 17.3377C28.9902 17.3079 29 17.149 29 17.1043C29 16.9205 29 16.7368 29 16.553C29 16.5033 28.9805 16.2897 28.9658 16.2301C28.8633 15.7285 28.8096 15.207 28.6436 14.7252C28.0234 12.8924 26.8125 11.6606 24.9375 11.1589C24.6934 11.0944 24.4443 11.0596 24.1953 11.0199C24.1562 11.0149 24 11 23.9561 11C23.7803 11 23.6094 11 23.4336 11C23.375 11 23.1406 11.0248 23.0869 11.0348C22.8574 11.0795 22.6279 11.1192 22.4033 11.1838C21.2363 11.5166 20.333 12.2368 19.6152 13.2103C19.4004 13.5033 19.2051 13.8162 19 14.1242C18.7949 13.8162 18.6045 13.5033 18.3848 13.2103C17.584 12.1374 16.5781 11.3775 15.2549 11.0993C15.1328 11.0745 15.0107 11.0497 14.8887 11.0298C14.8398 11.0199 14.6152 11 14.5566 11Z" fill="white"/>
</g>
<defs>
<clipPath id="clip0_35_422">
<rect width="20" height="18" fill="white" transform="matrix(-1 0 0 1 29 11)"/>
</clipPath>
</defs>
</svg>
