<svg width="32" height="28" viewBox="0 0 32 28" fill="none" xmlns="http://www.w3.org/2000/svg">
<path d="M1.68456 6.71507L1.68454 6.71507C2.41631 3.87025 4.03715 1.86854 6.76682 0.896542C7.14073 0.76631 7.52733 0.696613 7.95883 0.618821C8.08528 0.596025 8.21558 0.572534 8.35056 0.54662C8.3515 0.546482 8.35268 0.546313 8.35411 0.546113L8.37412 0.543495C8.39095 0.5414 8.41232 0.538942 8.43744 0.536235C8.48759 0.530829 8.54879 0.524848 8.61135 0.519274C8.74662 0.507222 8.85638 0.5 8.88694 0.5H8.88818H8.88943H8.89067H8.89192H8.89317H8.89442H8.89566H8.89691H8.89816H8.89941H8.90065H8.9019H8.90315H8.9044H8.90565H8.9069H8.90815H8.90939H8.91064H8.91189H8.91314H8.91439H8.91564H8.91689H8.91814H8.91939H8.92064H8.92189H8.92315H8.92439H8.92565H8.9269H8.92815H8.9294H8.93065H8.9319H8.93316H8.93441H8.93566H8.93691H8.93817H8.93942H8.94067H8.94193H8.94318H8.94443H8.94568H8.94694H8.94819H8.94945H8.9507H8.95195H8.95321H8.95446H8.95572H8.95697H8.95823H8.95948H8.96074H8.96199H8.96325H8.9645H8.96576H8.96701H8.96827H8.96953H8.97078H8.97204H8.9733H8.97455H8.97581H8.97707H8.97832H8.97958H8.98084H8.98209H8.98335H8.98461H8.98587H8.98713H8.98838H8.98964H8.9909H8.99216H8.99342H8.99467H8.99593H8.99719H8.99845H8.99971H9.00097H9.00223H9.00349H9.00475H9.00601H9.00727H9.00853H9.00978H9.01105H9.01231H9.01357H9.01483H9.01609H9.01735H9.01861H9.01987H9.02113H9.02239H9.02365H9.02491H9.02617H9.02744H9.0287H9.02996H9.03122H9.03248H9.03374H9.035H9.03627H9.03753H9.03879H9.04005H9.04132H9.04258H9.04384H9.0451H9.04637H9.04763H9.04889H9.05015H9.05142H9.05268H9.05394H9.05521H9.05647H9.05773H9.059H9.06026H9.06152H9.06279H9.06405H9.06532H9.06658H9.06784H9.06911H9.07037H9.07164H9.0729H9.07417H9.07543H9.07669H9.07796H9.07922H9.08049H9.08175H9.08302H9.08428H9.08555H9.08681H9.08808H9.08934H9.09061H9.09188H9.09314H9.09441H9.09567H9.09694H9.0982H9.09947H9.10073H9.102H9.10327H9.10453H9.1058H9.10707H9.10833H9.1096H9.11086H9.11213H9.1134H9.11466H9.11593H9.1172H9.11846H9.11973H9.121H9.12226H9.12353H9.1248H9.12606H9.12733H9.1286H9.12986H9.13113H9.1324H9.13367H9.13493H9.1362H9.13747H9.13873H9.14H9.14127H9.14254H9.1438H9.14507H9.14634H9.14761H9.14887H9.15014H9.15141H9.15268H9.15395H9.15521H9.15648H9.15775H9.15902H9.16028H9.16155H9.16282H9.16409H9.16536H9.16662H9.16789H9.16916H9.17043H9.1717H9.17296H9.17423H9.1755H9.17677H9.17804H9.1793H9.18057H9.18184H9.18311H9.18438H9.18565H9.18691H9.18818H9.18945H9.19072H9.19199H9.19326H9.19452H9.19579H9.19706H9.19833H9.1996H9.20087H9.20214H9.2034H9.20467H9.20594H9.20721H9.20848H9.20974H9.21101H9.21228H9.21355H9.21482H9.21609H9.21735H9.21862H9.21989H9.22116H9.22243H9.2237H9.22496H9.22623H9.2275H9.22877H9.23004H9.23131H9.23257H9.23384H9.23511H9.23638H9.23765H9.23892H9.24018H9.24145H9.24272H9.24399H9.24526H9.24652H9.24779H9.24906H9.25033H9.2516H9.25286H9.25413H9.2554H9.25667H9.25794H9.2592H9.26047H9.26174H9.26301H9.26428H9.26554H9.26681H9.26808H9.26935H9.27061H9.27188H9.27315H9.27442H9.27568H9.27695H9.27822H9.27949H9.28075H9.28202H9.28329H9.28456H9.28582H9.28709H9.28836H9.28963H9.29089H9.29216H9.29343H9.29469H9.29596H9.29723H9.29849H9.29976H9.30103H9.30229H9.30356H9.30483H9.30609H9.30736H9.30862H9.30989H9.31116H9.31242H9.31369H9.31496H9.31622H9.31749H9.31875H9.32002H9.32129H9.32255H9.32382H9.32508H9.32635H9.32761H9.32888H9.33014H9.33141H9.33267H9.33394H9.33521H9.33647H9.33773H9.339H9.34027H9.34153H9.34279H9.34406H9.34532H9.34659H9.34785H9.34912H9.35038H9.35164H9.35291H9.35417H9.35544H9.3567H9.35797H9.35923H9.36049H9.36176H9.36302H9.36428H9.36555H9.36681H9.36807H9.36934H9.3706H9.37186H9.37312H9.37439H9.37565H9.37691H9.37817H9.37944H9.3807H9.38196H9.38322H9.38449H9.38575H9.38701H9.38827H9.38953H9.39079H9.39205H9.39332H9.39458H9.39584H9.3971H9.39836H9.39962H9.40088H9.40214H9.4034H9.40466H9.40592H9.40718H9.40844H9.4097H9.41096H9.41222H9.41348H9.41474H9.416H9.41726H9.41852H9.41978H9.42104H9.4223H9.42356H9.42481H9.42607H9.42733H9.42859H9.42985H9.43111H9.43236H9.43362H9.43488H9.43614H9.4374H9.43865H9.43991H9.44117H9.44242H9.44368H9.44494H9.44619H9.44745H9.44871H9.44996H9.45122H9.45247H9.45373H9.45498H9.45624H9.4575H9.45875H9.46001H9.46126H9.46252H9.46377H9.46502H9.46628H9.46754H9.46879H9.47004H9.4713H9.47255H9.4738H9.47506H9.47631H9.47756H9.47882H9.48007H9.48132H9.48258H9.48383H9.48508H9.48633H9.48759H9.48884H9.49009H9.49134H9.49259H9.49384H9.49509H9.49634H9.49759H9.49885H9.5001H9.50135H9.5026H9.50385H9.5051H9.50635H9.5076H9.50885H9.5101H9.51134H9.51259H9.51384H9.51509H9.51634H9.51759H9.51884H9.52008H9.52133H9.52258H9.52382H9.52507H9.52632H9.52757H9.52881H9.53006H9.53131H9.53255L1.68456 6.71507ZM1.68456 6.71507L1.68359 6.71871M1.68456 6.71507L1.68359 6.71871M1.68359 6.71871C1.58648 7.08478 1.53163 7.4617 1.47219 7.87015C1.45834 7.96536 1.44424 8.06229 1.42929 8.16119C1.42351 8.20321 1.41325 8.30068 1.40392 8.40322C1.39934 8.45353 1.39532 8.50135 1.3925 8.53933C1.38912 8.58483 1.38889 8.59809 1.38889 8.59161V8.59324V8.59487V8.5965V8.59813V8.59976V8.60139V8.60302V8.60465V8.60628V8.60791V8.60954V8.61117V8.6128V8.61443V8.61606V8.61769V8.61932V8.62095V8.62258V8.62421V8.62584V8.62747V8.6291V8.63072V8.63235V8.63398V8.63561V8.63724V8.63887V8.6405V8.64213V8.64376V8.64539V8.64702V8.64865V8.65028V8.65191V8.65354V8.65517V8.6568V8.65843V8.66006V8.66169V8.66332V8.66495V8.66658V8.66821V8.66984V8.67147V8.6731V8.67473V8.67636V8.67799V8.67962V8.68125V8.68288V8.68451V8.68614V8.68777V8.6894V8.69103V8.69266V8.69429V8.69592V8.69755V8.69917V8.7008V8.70243V8.70406V8.70569V8.70732V8.70895V8.71058V8.71221V8.71384V8.71547V8.7171V8.71873V8.72036V8.72199V8.72362V8.72525V8.72688V8.72851V8.73014V8.73177V8.7334V8.73503V8.73666V8.73829V8.73992V8.74155V8.74318V8.74481V8.74644V8.74807V8.7497V8.75133V8.75296V8.75459V8.75622V8.75785V8.75948V8.76111V8.76274V8.76437V8.766V8.76762V8.76925V8.77088V8.77251V8.77414V8.77577V8.7774V8.77903V8.78066V8.78229V8.78392V8.78555V8.78718V8.78881V8.79044V8.79207V8.7937V8.79533V8.79696V8.79859V8.80022V8.80185V8.80348V8.80511V8.80674V8.80837V8.81V8.81163V8.81326V8.81489V8.81652V8.81815V8.81978V8.82141V8.82304V8.82467V8.8263V8.82793V8.82956V8.83119V8.83282V8.83444V8.83607V8.8377V8.83933V8.84096V8.84259V8.84422V8.84585V8.84748V8.84911V8.85074V8.85237V8.854V8.85563V8.85726V8.85889V8.86052V8.86215V8.86378V8.86541V8.86704V8.86867V8.8703V8.87193V8.87356V8.87519V8.87682V8.87845V8.88008V8.88171V8.88334V8.88497V8.8866V8.88823V8.88986V8.89149V8.89312V8.89475V8.89638V8.89801V8.89964V8.90127V8.90289V8.90452V8.90615V8.90778V8.90941V8.91104V8.91267V8.9143V8.91593V8.91756V8.91919V8.92082V8.92245V8.92408V8.92571V8.92734V8.92897V8.9306V8.93223V8.93386V8.93549V8.93712V8.93875V8.94038V8.94201V8.94364V8.94527V8.9469V8.94853V8.95016V8.95179V8.95342V8.95505V8.95668V8.95831V8.95994V8.96157V8.9632V8.96483V8.96646V8.96809V8.96972V8.97134V8.97297V8.9746V8.97623V8.97786V8.97949V8.98112V8.98275V8.98438V8.98601V8.98764V8.98927V8.9909V8.99253V8.99416V8.99579V8.99742V8.99905V9.00068V9.00231V9.00394V9.00557V9.0072V9.00883V9.01046V9.01209V9.01372V9.01535V9.01698V9.01861V9.02024V9.02187V9.0235V9.02513V9.02676V9.02839V9.03002V9.03165V9.03328V9.03491V9.03654V9.03817V9.03979V9.04142V9.04305V9.04468V9.04631V9.04794V9.04957V9.0512V9.05283V9.05446V9.05609V9.05772V9.05935V9.06098V9.06261V9.06424V9.06587V9.0675V9.06913V9.07076V9.07239V9.07402V9.07565V9.07728V9.07891V9.08054V9.08217V9.0838V9.08543V9.08706V9.08869V9.09032V9.09195V9.09358V9.09521V9.09684V9.09847V9.1001V9.10173V9.10336V9.10499V9.10662V9.10824V9.10987V9.1115V9.11313V9.11476V9.11639V9.11802V9.11965V9.12128V9.12291V9.12454V9.12617V9.1278V9.12943V9.13106V9.13269V9.13432V9.13595V9.13758V9.13921V9.14084V9.14247V9.1441V9.14573V9.14736V9.14899V9.15062V9.15225V9.15388V9.15551V9.15714V9.15877V9.1604V9.16203V9.16366V9.16529V9.16692V9.16855V9.17018V9.17181V9.17344V9.17507V9.17669V9.17832V9.17995V9.18158V9.18321V9.18484V9.18647V9.1881V9.18973V9.19136V9.19299V9.19462V9.19625V9.19788V9.19951V9.20114V9.20277V9.2044V9.20603V9.20766V9.20929V9.21092V9.21255V9.21418V9.21581V9.21744V9.21907V9.2207V9.22233V9.22396V9.22559V9.22722V9.22885V9.23048V9.23211V9.23374V9.23537V9.237V9.23863V9.24026V9.24189V9.24352V9.24514V9.24677V9.2484V9.25003V9.25166V9.25329V9.25492V9.25655V9.25818V9.25981V9.26144V9.26307V9.2647V9.26633V9.26796V9.26959V9.27122V9.27285V9.27448V9.27611V9.27774V9.27937V9.281V9.28263V9.28426V9.28589V9.28752V9.28915V9.29078V9.29241V9.29404V9.29567V9.2973V9.29893V9.30056V9.30219V9.30382V9.30545V9.30708V9.30871V9.31034V9.31196V9.31359V9.31522V9.31685V9.31848V9.32011V9.32174V9.32337V9.325V9.32663V9.32826V9.32989V9.33152V9.33315V9.33478V9.33641V9.33804V9.33967V9.3413V9.34293V9.34456V9.34619V9.34782V9.34945V9.35108V9.35271V9.35434V9.35597V9.3576V9.35923V9.36086V9.36249V9.36412V9.36575V9.36738V9.36901V9.37064V9.37227V9.3739V9.37553V9.37716V9.37879V9.38041V9.38204V9.38367V9.3853V9.38693V9.38856V9.39019V9.39182V9.39345V9.39508V9.39671V9.39834V9.39997V9.4016V9.40323V9.40486V9.40649V9.40812V9.40975V9.41138V9.41301V9.41464V9.41627V9.4179V9.41953V9.42116V9.42279V9.42442V9.42538C1.38889 9.42521 1.3889 9.42545 1.38892 9.42614C1.38898 9.42802 1.38916 9.43324 1.38971 9.44271C1.39048 9.45611 1.39169 9.47336 1.39336 9.49421C1.39668 9.53591 1.40133 9.58606 1.40643 9.63789C1.41149 9.6894 1.41682 9.74077 1.42142 9.78466L1.42447 9.81374C1.42767 9.84418 1.43045 9.87068 1.43206 9.88707L1.43221 9.88705M1.68359 6.71871L1.43221 9.88705M1.43221 9.88705L1.43312 9.89937M1.43221 9.88705L1.43312 9.89937M1.43312 9.89937C1.56237 11.6597 2.19402 13.2487 3.16163 14.74L3.16227 14.741M1.43312 9.89937L3.16227 14.741M3.16227 14.741C4.44905 16.7345 6.09806 18.4231 7.87719 20.0259L7.87732 20.026M3.16227 14.741L7.87732 20.026M7.87732 20.026C9.67327 21.645 11.4908 23.2396 13.3097 24.8355C14.0573 25.4913 14.8051 26.1474 15.5517 26.8055C15.7482 26.9776 15.9538 27.1296 16.1775 27.2951C16.2399 27.3413 16.3037 27.3885 16.3691 27.4374M7.87732 20.026L16.3691 27.4374M29.1231 15.6249L29.1229 15.6251C27.6805 17.5613 25.9414 19.234 24.1186 20.8498L29.1231 15.6249ZM29.1231 15.6249C30.0777 14.3452 30.8281 12.993 31.1947 11.4578L31.1951 11.4562M29.1231 15.6249L31.1951 11.4562M16.3691 27.4374C16.3717 27.4389 16.3751 27.4407 16.3792 27.443C16.3972 27.4527 16.4214 27.465 16.4473 27.477C16.4481 27.4767 16.4489 27.4763 16.4497 27.476C16.4812 27.4622 16.5129 27.4473 16.5393 27.4343C16.5577 27.4252 16.5699 27.4188 16.576 27.4156C16.6922 27.3417 16.7837 27.2825 16.8665 27.2158C17.5646 26.6037 18.2629 25.9925 18.961 25.3816C20.685 23.8727 22.4072 22.3654 24.1184 20.8499L16.3691 27.4374ZM31.1951 11.4562C31.2914 11.0586 31.3507 10.6605 31.4136 10.2383C31.4356 10.0906 31.458 9.9399 31.4826 9.78527L31.1951 11.4562ZM31.4589 8.24554L31.4613 8.25509C31.4608 8.25315 31.4609 8.2535 31.4614 8.25655C31.4624 8.26251 31.4652 8.27881 31.4691 8.30857C31.4743 8.34698 31.4796 8.39392 31.4844 8.44247C31.4893 8.49081 31.4934 8.5381 31.4963 8.57671C31.499 8.61363 31.4998 8.63263 31.5 8.63702C31.5 8.63785 31.5 8.63816 31.5 8.63797V8.63964V8.64132V8.64299V8.64467V8.64634V8.64802V8.64969V8.65137V8.65304V8.65472V8.65639V8.65807V8.65974V8.66142V8.66309V8.66477V8.66644V8.66812V8.6698V8.67147V8.67314V8.67482V8.67649V8.67817V8.67984V8.68152V8.6832V8.68487V8.68655V8.68822V8.68989V8.69157V8.69324V8.69492V8.6966V8.69827V8.69995V8.70162V8.7033V8.70497V8.70665V8.70832V8.71V8.71167V8.71335V8.71502V8.7167V8.71837V8.72005V8.72172V8.7234V8.72507V8.72675V8.72842V8.7301V8.73177V8.73345V8.73512V8.7368V8.73847V8.74015V8.74182V8.7435V8.74517V8.74685V8.74852V8.7502V8.75187V8.75355V8.75522V8.7569V8.75857V8.76025V8.76192V8.7636V8.76527V8.76695V8.76862V8.7703V8.77197V8.77365V8.77532V8.777V8.77867V8.78035V8.78202V8.7837V8.78537V8.78705V8.78872V8.7904V8.79207V8.79375V8.79542V8.7971V8.79877V8.80045V8.80212V8.8038V8.80547V8.80715V8.80882V8.8105V8.81217V8.81385V8.81552V8.8172V8.81887V8.82055V8.82222V8.8239V8.82557V8.82725V8.82892V8.8306V8.83227V8.83395V8.83562V8.8373V8.83897V8.84065V8.84232V8.844V8.84567V8.84735V8.84902V8.8507V8.85237V8.85405V8.85572V8.8574V8.85907V8.86075V8.86242V8.8641V8.86577V8.86745V8.86912V8.8708V8.87247V8.87415V8.87582V8.8775V8.87917V8.88085V8.88252V8.8842V8.88587V8.88755V8.88922V8.8909V8.89257V8.89425V8.89592V8.8976V8.89927V8.90095V8.90262V8.9043V8.90597V8.90765V8.90932V8.911V8.91267V8.91435V8.91602V8.9177V8.91937V8.92105V8.92272V8.9244V8.92607V8.92775V8.92942V8.9311V8.93277V8.93445V8.93612V8.9378V8.93948V8.94115V8.94283V8.9445V8.94617V8.94785V8.94952V8.9512V8.95288V8.95455V8.95623V8.9579V8.95958V8.96125V8.96292V8.9646V8.96628V8.96795V8.96963V8.9713V8.97298V8.97465V8.97633V8.978V8.97968V8.98135V8.98303V8.9847V8.98638V8.98805V8.98973V8.9914V8.99308V8.99475V8.99643V8.9981V8.99978V9.00145V9.00313V9.0048V9.00648V9.00815V9.00983V9.0115V9.01318V9.01485V9.01653V9.0182V9.01988V9.02155V9.02323V9.0249V9.02658V9.02825V9.02993V9.0316V9.03328V9.03495V9.03663V9.0383V9.03998V9.04165V9.04333V9.045V9.04668V9.04835V9.05003V9.0517V9.05338V9.05505V9.05673V9.0584V9.06008V9.06175V9.06343V9.0651V9.06678V9.06845V9.07013V9.0718V9.07348V9.07515V9.07683V9.0785V9.08018V9.08185V9.08353V9.0852V9.08688V9.08855V9.09023V9.0919V9.09358V9.09525V9.09693V9.0986V9.10028V9.10195V9.10363V9.1053V9.10698V9.10865V9.11033V9.112V9.11368V9.11535V9.11703V9.1187V9.12038V9.12205V9.12373V9.1254V9.12708V9.12875V9.13043V9.1321V9.13378V9.13545V9.13713V9.1388V9.14048V9.14215V9.14383V9.1455V9.14718V9.14885V9.15053V9.1522V9.15388V9.15555V9.15723V9.1589V9.16058V9.16225V9.16393V9.1656V9.16728V9.16895V9.17063V9.1723V9.17398V9.17565V9.17733V9.179V9.18068V9.18235V9.18403V9.1857V9.18738V9.18905V9.19073V9.1924V9.19408V9.19576V9.19743V9.1991V9.20078V9.20245V9.20413V9.2058V9.20748V9.20916V9.21083V9.21251V9.21418V9.21585V9.21753V9.2192V9.22088V9.22256V9.22423V9.22591V9.22758V9.22926V9.23093V9.2326V9.23428V9.23596V9.23763V9.23931V9.24098V9.24266V9.24433V9.24601V9.24768V9.24936V9.25103V9.25271V9.25438V9.25606V9.25773V9.25941V9.26108V9.26276V9.26443V9.26611V9.26778V9.26946V9.27113V9.27281V9.27448V9.27616V9.27783V9.27951V9.28118V9.28286V9.28453V9.28621V9.28788V9.28956V9.29123V9.29291V9.29458V9.29626V9.29793V9.29961V9.30128V9.30296V9.30463V9.30631V9.30798V9.30966V9.31133V9.31301V9.31468V9.31636V9.31803V9.31971V9.32138V9.32306V9.32473V9.32641V9.32808V9.32976V9.33143V9.33311V9.33478V9.33646V9.33813V9.33981V9.34148V9.34316V9.34483V9.34651V9.34818V9.34986V9.35153V9.35321V9.35488V9.35656V9.35823V9.35991V9.36158V9.36326V9.36493V9.36661V9.36828V9.36996V9.37163V9.37331V9.37498V9.37666V9.37833V9.38001V9.38168V9.38336V9.38503V9.38671V9.38838V9.39006V9.39173V9.39341V9.39508V9.39676V9.39843V9.40011V9.40178V9.40346V9.40513V9.40681V9.40848V9.41016V9.41183V9.41351V9.41518V9.41686V9.41853V9.42021V9.42188V9.42356V9.42523V9.42691V9.42858V9.43026V9.43193V9.43361V9.43528V9.43696V9.43863V9.44031V9.44198V9.44366V9.44533V9.44701V9.44868V9.45036V9.45203V9.45371V9.45538V9.45706V9.45873V9.46041V9.46208V9.46376V9.46544V9.46711V9.46879V9.47046V9.47213V9.47381V9.47548V9.47716V9.47884V9.48051V9.48219V9.48386V9.48554V9.48721V9.48888V9.49056V9.49224V9.49391V9.49559L31.5 9.49597L31.5 9.49684L31.4999 9.50059L31.4996 9.51333L31.498 9.55226C31.4966 9.58275 31.4947 9.61886 31.4924 9.65479C31.4902 9.69086 31.4878 9.72504 31.4856 9.75185C31.4845 9.76535 31.4836 9.77557 31.4829 9.78252L31.4589 8.24554ZM31.4589 8.24554L31.457 8.23589M31.4589 8.24554L31.457 8.23589M31.457 8.23589C31.4013 7.96363 31.3567 7.70458 31.3137 7.45484C31.2227 6.92644 31.1389 6.4397 30.9728 5.95759L30.9728 5.9576M31.457 8.23589L30.9728 5.9576M30.9728 5.9576L30.9719 5.95495M30.9728 5.9576L30.9719 5.95495M30.9719 5.95495C30.056 3.24789 28.2923 1.46382 25.552 0.730442M30.9719 5.95495L25.552 0.730442M25.552 0.730442C25.2525 0.651264 24.9486 0.603536 24.6144 0.551047C24.5625 0.542893 24.5098 0.534625 24.4563 0.526107C24.4304 0.523066 24.3679 0.516694 24.299 0.510634C24.2624 0.507419 24.2271 0.504567 24.198 0.502564C24.1723 0.500795 24.1589 0.500231 24.1549 0.500064C24.1537 0.500014 24.1534 0.5 24.1539 0.5H24.1523H24.1507H24.1491H24.1475H24.1459H24.1443H24.1427H24.1411H24.1395H24.1378H24.1362H24.1346H24.133H24.1314H24.1298H24.1282H24.1267H24.1251H24.1235H24.1219H24.1203H24.1187H24.1171H24.1155H24.1139H24.1123H24.1107H24.1091H24.1075H24.1059H24.1043H24.1027H24.1011H24.0995H24.0979H24.0963H24.0947H24.0931H24.0915H24.0899H24.0883H24.0867H24.0851H24.0835H24.0819H24.0803H24.0787H24.0771H24.0756H24.074H24.0724H24.0708H24.0692H24.0676H24.066H24.0644H24.0628H24.0612H24.0596H24.058H24.0564H24.0548H24.0532H24.0517H24.0501H24.0485H24.0469H24.0453H24.0437H24.0421H24.0405H24.0389H24.0373H24.0357H24.0341H24.0325H24.031H24.0294H24.0278H24.0262H24.0246H24.023H24.0214H24.0198H24.0182H24.0166H24.0151H24.0135H24.0119H24.0103H24.0087H24.0071H24.0055H24.0039H24.0023H24.0008H23.9992H23.9976H23.996H23.9944H23.9928H23.9912H23.9896H23.988H23.9865H23.9849H23.9833H23.9817H23.9801H23.9785H23.9769H23.9754H23.9738H23.9722H23.9706H23.969H23.9674H23.9658H23.9642H23.9627H23.9611H23.9595H23.9579H23.9563H23.9547H23.9531H23.9516H23.95H23.9484H23.9468H23.9452H23.9436H23.942H23.9405H23.9389H23.9373H23.9357H23.9341H23.9325H23.931H23.9294H23.9278H23.9262H23.9246H23.923H23.9214H23.9199H23.9183H23.9167H23.9151H23.9135H23.9119H23.9104H23.9088H23.9072H23.9056H23.904H23.9024H23.9009H23.8993H23.8977H23.8961H23.8945H23.8929H23.8914H23.8898H23.8882H23.8866H23.885H23.8834H23.8819H23.8803H23.8787H23.8771H23.8755H23.874H23.8724H23.8708H23.8692H23.8676H23.866H23.8645H23.8629H23.8613H23.8597H23.8581H23.8566H23.855H23.8534H23.8518H23.8502H23.8486H23.8471H23.8455H23.8439H23.8423H23.8407H23.8392H23.8376H23.836H23.8344H23.8328H23.8313H23.8297H23.8281H23.8265H23.8249H23.8234H23.8218H23.8202H23.8186H23.817H23.8154H23.8139H23.8123H23.8107H23.8091H23.8075H23.806H23.8044H23.8028H23.8012H23.7996H23.7981H23.7965H23.7949H23.7933H23.7917H23.7902H23.7886H23.787H23.7854H23.7838H23.7823H23.7807H23.7791H23.7775H23.7759H23.7744H23.7728H23.7712H23.7696H23.768H23.7665H23.7649H23.7633H23.7617H23.7601H23.7586H23.757H23.7554H23.7538H23.7522H23.7507H23.7491H23.7475H23.7459H23.7443H23.7428H23.7412H23.7396H23.738H23.7364H23.7349H23.7333H23.7317H23.7301H23.7285H23.727H23.7254H23.7238H23.7222H23.7206H23.7191H23.7175H23.7159H23.7143H23.7127H23.7112H23.7096H23.708H23.7064H23.7048H23.7033H23.7017H23.7001H23.6985H23.6969H23.6954H23.6938H23.6922H23.6906H23.689H23.6875H23.6859H23.6843H23.6827H23.6811H23.6796H23.678H23.6764H23.6748H23.6732H23.6717H23.6701H23.6685H23.6669H23.6653H23.6638H23.6622H23.6606H23.659H23.6574H23.6558H23.6543H23.6527H23.6511H23.6495H23.6479H23.6464H23.6448H23.6432H23.6416H23.64H23.6385H23.6369H23.6353H23.6337H23.6321H23.6305H23.629H23.6274H23.6258H23.6242H23.6226H23.6211H23.6195H23.6179H23.6163H23.6147H23.6131H23.6116H23.61H23.6084H23.6068H23.6052H23.6036H23.6021H23.6005H23.5989H23.5973H23.5957H23.5941H23.5926H23.591H23.5894H23.5878H23.5862H23.5846H23.5831H23.5815H23.5799H23.5783H23.5767H23.5751H23.5736H23.572H23.5704H23.5688H23.5672H23.5656H23.5641H23.5625H23.5609H23.5593H23.5577H23.5561H23.5545H23.553H23.5514H23.5498H23.5482H23.5466H23.545H23.5435H23.5419H23.5403H23.5387H23.5371H23.5355H23.5339H23.5324H23.5308H23.5292H23.5276H23.526H23.5244H23.5228H23.5212H23.5197H23.5181H23.5165H23.5149H23.5133H23.5117H23.5101H23.5085H23.507H23.5054H23.5038H23.5022H23.5006H23.499H23.4974H23.4958H23.4943H23.4927H23.4911H23.4895H23.4879H23.4863H23.4847H23.4831H23.4815H23.48H23.4784H23.4768H23.4752H23.4736H23.472H23.4704H23.4688H23.4672H23.4656H23.464H23.4625H23.4609H23.4593H23.4577H23.4561H23.4545H23.4529H23.4513H23.4497H23.4481H23.4465H23.445H23.4434H23.4418H23.4402H23.4386H23.437H23.4354H23.4338H23.4322H23.4306H23.429H23.4274H23.4258H23.4242H23.4226H23.4211H23.4195H23.4179H23.4163H23.4147H23.4131H23.4115H23.4099H23.4083H23.4067H23.4051H23.4035H23.4019H23.4003H23.3987H23.3971H23.3955H23.3939H23.3923H23.3907H23.3891H23.3875H23.3859H23.3843H23.3827H23.3811H23.3795H23.378H23.3764H23.3748H23.3732H23.3716H23.37H23.3684H23.3668H23.3652H23.3636H23.362H23.3604H23.3588H23.3572H23.3556H23.354H23.3524H23.3508H23.3492H23.3476H23.346H23.3443H23.3427H23.3419L25.552 0.730442Z" fill="white" stroke="#723CD9"/>
</svg>
