<svg width="30" height="30" viewBox="0 0 30 30" fill="none" xmlns="http://www.w3.org/2000/svg">
<path d="M23.4001 14.8998C23.4001 19.3998 19.8001 22.9998 15.3001 22.9998C10.8001 22.9998 7.20012 19.3998 7.20012 14.8998C7.20012 10.3998 10.8001 6.7998 15.3001 6.7998C19.7001 6.7998 23.4001 10.3998 23.4001 14.8998ZM22.4001 14.8998C22.4001 10.8998 19.2001 7.6998 15.2001 7.7998C11.3001 7.7998 8.10012 10.9998 8.10012 14.8998C8.10012 18.8998 11.3001 22.0998 15.3001 22.0998C19.2001 21.9998 22.4001 18.7998 22.4001 14.8998Z" fill="#723CD9"/>
<path d="M22.0001 0.8C21.8001 0.6 21.7001 0.4 21.9001 0.2C22.0001 0 22.2001 0 22.5001 0C22.6001 0 22.7001 0.1 22.7001 0.2C23.6001 0.9 24.4001 1.6 25.3001 2.2C25.6001 2.5 25.6001 2.8 25.3001 3C24.4001 3.7 23.5001 4.4 22.7001 5.1C22.5001 5.3 22.3001 5.3 22.1001 5.2C21.8001 5 21.8001 4.7 22.1001 4.4C22.5001 4 23.0001 3.6 23.5001 3.3C23.5001 3.3 23.6001 3.2 23.7001 3.1C23.5001 3.1 23.4001 3.1 23.3001 3.1C18.0001 3.1 12.8001 3.1 7.50012 3.1C6.50012 3.1 5.90012 3.7 5.90012 4.7C5.90012 4.9 5.90012 5 5.90012 5.2C5.90012 5.5 5.70012 5.6 5.40012 5.6C5.20012 5.5 5.10012 5.4 5.00012 5.1C4.80012 3.2 6.00012 2.1 7.50012 2.1C12.7001 2.1 18.0001 2.1 23.2001 2.1C23.3001 2.1 23.6001 2.1 23.7001 2.1C23.7001 2.1 22.6001 1.3 22.0001 0.8Z" fill="#723CD9"/>
<path d="M6.90012 27.6998C7.40012 28.0998 7.90012 28.4998 8.40012 28.8998C8.70012 29.0998 8.70012 29.3998 8.60012 29.5998C8.40012 29.7998 8.20012 29.7998 7.90012 29.5998C7.00012 28.8998 6.20012 28.1998 5.30012 27.5998C5.00012 27.3998 5.00012 26.9998 5.30012 26.7998C6.20012 26.0998 7.00012 25.3998 7.90012 24.6998C7.90012 24.6998 8.00012 24.6998 8.00012 24.5998C8.20012 24.3998 8.50012 24.4998 8.70012 24.6998C8.90012 24.8998 8.80012 25.1998 8.60012 25.3998C8.20012 25.6998 7.80012 25.9998 7.50012 26.2998C7.40012 26.3998 7.20012 26.4998 7.00012 26.6998C7.10012 26.6998 7.20012 26.6998 7.30012 26.6998C12.6001 26.6998 17.9001 26.6998 23.3001 26.6998C24.1001 26.6998 24.7001 26.0998 24.8001 25.2998C24.8001 25.0998 24.8001 24.8998 24.8001 24.6998C24.8001 24.3998 25.0001 24.2998 25.3001 24.2998C25.6001 24.2998 25.7001 24.4998 25.8001 24.6998C26.0001 26.6998 24.6001 27.6998 23.2001 27.6998C18.0001 27.6998 12.8001 27.6998 7.60012 27.6998C7.20012 27.5998 7.10012 27.5998 6.90012 27.6998Z" fill="#723CD9"/>
<path d="M14.8001 10.9C14.8001 10.8 14.8001 10.6 14.8001 10.4C14.8001 10.1 15.0001 10 15.3001 10C15.6001 10 15.7001 10.2 15.8001 10.4C15.8001 10.9 15.9001 10.9 16.4001 11C17.2001 11.2 17.8001 11.7 18.0001 12.5C18.1001 12.8 18.0001 13.1 17.7001 13.2C17.4001 13.3 17.1001 13.2 17.0001 12.9C16.8001 12.2 16.3001 11.9 15.6001 11.9C15.2001 11.9 14.7001 11.9 14.3001 12C13.8001 12.1 13.6001 12.5 13.6001 12.9C13.6001 13.4 13.8001 13.6 14.3001 13.8C15.0001 14 15.8001 14.2 16.6001 14.4C16.8001 14.5 17.0001 14.5 17.1001 14.6C17.9001 15 18.3001 15.5 18.3001 16.4C18.3001 17.3 17.9001 17.9 17.1001 18.3C16.7001 18.5 16.3001 18.6 15.8001 18.7L15.7001 18.8C15.7001 18.9 15.7001 19 15.7001 19.2C15.7001 19.5 15.5001 19.6 15.3001 19.7C15.0001 19.7 14.9001 19.5 14.8001 19.2V19.1C14.9001 18.8 14.7001 18.7 14.4001 18.7C13.4001 18.5 12.6001 18 12.3001 17C12.2001 16.8 12.2001 16.6 12.3001 16.5C12.4001 16.4 12.6001 16.2 12.7001 16.3C12.9001 16.3 13.1001 16.5 13.1001 16.6C13.4001 18 15.7001 18.2 16.6001 17.6C17.3001 17.1 17.3001 16.2 16.5001 15.8C15.9001 15.5 15.3001 15.4 14.7001 15.2C14.4001 15 14.0001 14.9 13.6001 14.8C12.9001 14.5 12.4001 13.9 12.5001 13.1C12.5001 12.3 12.9001 11.7 13.7001 11.3C14.0001 11.1 14.4001 11 14.8001 10.9Z" fill="#723CD9"/>
</svg>
