<svg width="34" height="39" viewBox="0 0 34 39" fill="none" xmlns="http://www.w3.org/2000/svg">
<g clip-path="url(#clip0_72_5556)">
<path d="M0.0313436 32.1439C0.086195 31.4774 0.141046 30.8109 0.227241 30.1443C0.509334 27.9702 0.799263 25.796 1.49666 23.7092C2.09219 21.9397 3.23623 20.7732 5.00714 20.194C6.0885 19.8369 7.13851 19.3846 8.18852 18.9482C8.4236 18.853 8.50979 18.9879 8.62733 19.1069C9.52846 20.0353 10.5628 20.7732 11.793 21.1541C15.0763 22.1698 18.0618 21.6699 20.6006 19.2259C20.8905 18.9482 21.0864 18.9165 21.4547 19.0752C22.6536 19.583 23.8838 20.0194 25.0906 20.5035C25.8663 20.8129 26.5089 21.289 27.0182 22.0428C23.257 22.0428 20.3028 23.5584 18.4692 26.8672C16.62 30.184 16.8785 33.5246 18.861 36.8017C18.1166 36.8731 17.4035 36.9604 16.6826 37.016C13.2975 37.2858 9.98295 36.8097 6.68403 36.1352C4.88177 35.7702 3.09518 35.3179 1.36345 34.6672C0.783591 34.453 0.3056 34.1753 0.0783591 33.6119C0.0470154 33.5325 0 33.2152 0 33.1437C0 33.0485 0 32.9454 0 32.8501C0 32.7391 0.0235077 32.2709 0.0313436 32.1439Z" fill="#723CD9"/>
<path d="M15.9775 0.071414C16.385 0.142828 16.7924 0.206307 17.1921 0.309461C20.0913 1.0236 22.0895 3.22157 22.4891 6.23683C22.9671 9.79166 22.3167 13.164 20.5693 16.2745C19.4958 18.1788 17.8816 19.4167 15.6876 19.6944C13.0939 20.0197 10.9155 19.1866 9.31698 17.0362C7.99271 15.2509 7.36584 13.1957 6.99755 11.0374C6.77031 9.71231 6.62926 8.37925 6.77031 7.02238C7.02106 4.64191 7.89868 2.61851 9.94385 1.25371C11.0017 0.555443 12.1928 0.222177 13.4387 0.071414C13.5719 0.0555442 14.2066 0 14.2614 0C14.5592 0 14.857 0 15.1469 0C15.2879 0 15.8443 0.0476094 15.9775 0.071414Z" fill="#723CD9"/>
<path d="M25.2788 38.8722C24.8713 38.777 24.456 38.6897 24.0642 38.5468C21.1101 37.4756 19.2138 34.8016 19.1119 31.6356C19.0179 28.6203 20.8123 25.7875 23.6097 24.5497C28.1311 22.5422 33.436 25.6685 33.9296 30.6278C33.9453 30.7548 34.0001 31.1991 34.0001 31.3023C34.0001 31.4292 34.0001 31.5641 34.0001 31.6911C34.0001 31.7625 33.9531 32.1116 33.9375 32.2069C33.5378 35.2935 31.908 37.428 29.0322 38.5468C28.6326 38.7055 28.2016 38.7928 27.7784 38.888C27.6217 38.9198 26.9557 38.9991 26.7754 38.9991C26.5952 38.9991 26.4228 38.9991 26.2426 38.9991C26.0937 38.9991 25.4512 38.9119 25.2788 38.8722ZM25.2709 30.1676C24.6362 30.1676 24.0485 30.1517 23.4687 30.1755C23.2101 30.1835 22.9358 30.2231 22.7086 30.3342C22.1836 30.5802 21.925 31.1991 22.0582 31.7784C22.1914 32.3338 22.6773 32.7385 23.2571 32.7464C23.9153 32.7623 24.5736 32.7464 25.2709 32.7464C25.2709 33.4526 25.2553 34.1033 25.2709 34.7619C25.2866 35.5475 25.8821 36.0791 26.6579 36.0315C27.3161 35.9839 27.8019 35.4443 27.8176 34.7222C27.8333 34.0795 27.8176 33.4368 27.8176 32.7464C28.5072 32.7464 29.1497 32.7544 29.8001 32.7464C30.3565 32.7385 30.8031 32.4052 30.9833 31.9053C31.2889 31.0484 30.7012 30.1993 29.7609 30.1676C29.1262 30.1438 28.4915 30.1676 27.8725 30.1676C27.849 30.1041 27.8255 30.0803 27.8255 30.0565C27.8255 29.4614 27.8255 28.8663 27.8176 28.2712C27.8098 27.4539 27.2691 26.8826 26.5325 26.8826C25.796 26.8905 25.2709 27.4618 25.2709 28.287C25.2709 28.898 25.2709 29.5011 25.2709 30.1676Z" fill="#723CD9"/>
</g>
<defs>
<clipPath id="clip0_72_5556">
<rect width="34" height="39" fill="white"/>
</clipPath>
</defs>
</svg>
