<svg width="30" height="30" viewBox="0 0 30 30" fill="none" xmlns="http://www.w3.org/2000/svg">
<g clip-path="url(#clip0_8254_3557)">
<path d="M24.165 22.3306H22.8291V16.6996L23.883 17.3869C23.9283 17.4164 23.9811 17.4321 24.0352 17.4321C24.0815 17.4322 24.127 17.4206 24.1676 17.3984C24.2117 17.3745 24.2485 17.3392 24.2742 17.2961C24.2999 17.2531 24.3134 17.2039 24.3135 17.1538V15.6694C24.3135 15.6232 24.3019 15.5776 24.2799 15.5369C24.2579 15.4962 24.2261 15.4617 24.1873 15.4364L19.4444 12.3429C19.9197 11.6253 20.1902 10.7915 20.2267 9.9315C20.2633 9.07147 20.0644 8.21778 19.6517 7.46238C19.239 6.70699 18.6279 6.07853 17.8844 5.64471C17.1409 5.21088 16.2932 4.98815 15.4325 5.00049C12.8704 5.0376 10.7782 7.15283 10.7686 9.71338C10.765 10.6484 11.0388 11.5635 11.5553 12.3429L6.8127 15.4364C6.77395 15.4617 6.74212 15.4962 6.72009 15.5369C6.69806 15.5776 6.68652 15.6232 6.68652 15.6694V17.1538C6.68656 17.2039 6.70013 17.2531 6.7258 17.2961C6.75147 17.3392 6.78829 17.3745 6.83236 17.3984C6.87297 17.4206 6.91854 17.4322 6.96484 17.4321C7.01888 17.4321 7.07175 17.4164 7.11699 17.3869L8.1709 16.6996V22.3306H6.83496C6.61352 22.3306 6.40114 22.4185 6.24455 22.5751C6.08797 22.7317 6 22.9441 6 23.1655C6 23.387 6.08797 23.5993 6.24455 23.7559C6.40114 23.9125 6.61352 24.0005 6.83496 24.0005H24.165C24.3865 24.0005 24.5989 23.9125 24.7554 23.7559C24.912 23.5993 25 23.387 25 23.1655C25 22.9441 24.912 22.7317 24.7554 22.5751C24.5989 22.4185 24.3865 22.3306 24.165 22.3306ZM23.7568 15.8201V16.6398L18.6194 13.2896C18.7951 13.1353 18.9589 12.9681 19.1096 12.7894L23.7568 15.8201ZM15.4403 5.55713H15.5C16.4571 5.55747 17.3851 5.88663 18.1285 6.4895C18.8719 7.09236 19.3857 7.93233 19.5837 8.86875C19.7817 9.80517 19.652 10.7812 19.2163 11.6334C18.7806 12.4856 18.0654 13.1623 17.1903 13.5501C17.1406 13.5721 17.0984 13.6082 17.069 13.654L15.7765 15.6676C15.7467 15.714 15.7058 15.7522 15.6574 15.7787C15.609 15.8051 15.5548 15.819 15.4996 15.819C15.4445 15.819 15.3902 15.8051 15.3419 15.7787C15.2935 15.7522 15.2525 15.714 15.2228 15.6676L13.9303 13.654C13.9009 13.6082 13.8587 13.5721 13.8089 13.5501C13.0674 13.2211 12.4377 12.6834 11.9967 12.0025C11.5557 11.3217 11.3223 10.5272 11.3252 9.71598C11.3337 7.45453 13.1799 5.58904 15.4403 5.55713ZM7.24316 15.8201L11.8896 12.7897C12.0408 12.9682 12.2049 13.1353 12.3806 13.2896L7.24316 16.6398V15.8201ZM8.72754 16.3367L12.8467 13.6496C13.056 13.7918 13.2764 13.917 13.5057 14.024L14.7541 15.9685C14.8342 16.0934 14.9445 16.1961 15.0747 16.2673C15.2049 16.3384 15.3509 16.3757 15.4993 16.3757C15.6476 16.3757 15.7936 16.3384 15.9238 16.2673C16.054 16.1961 16.1643 16.0934 16.2444 15.9685L17.4928 14.024C17.7221 13.917 17.9425 13.7918 18.1518 13.6496L22.271 16.3367V22.3306H13.5503V18.8979C13.5503 18.8244 13.5212 18.7538 13.4693 18.7017C13.4174 18.6495 13.347 18.62 13.2734 18.6196H10.3047C10.2309 18.6196 10.1601 18.649 10.1079 18.7011C10.0557 18.7533 10.0264 18.8241 10.0264 18.8979V22.3306H8.72754V16.3367ZM12.9951 22.3306H10.583V19.1763H12.9951V22.3306ZM24.165 23.4438H6.83496C6.76115 23.4438 6.69035 23.4145 6.63816 23.3623C6.58596 23.3101 6.55664 23.2393 6.55664 23.1655C6.55664 23.0917 6.58596 23.0209 6.63816 22.9687C6.69035 22.9165 6.76115 22.8872 6.83496 22.8872H24.165C24.2389 22.8872 24.3096 22.9165 24.3618 22.9687C24.414 23.0209 24.4434 23.0917 24.4434 23.1655C24.4434 23.2393 24.414 23.3101 24.3618 23.3623C24.3096 23.4145 24.2389 23.4438 24.165 23.4438Z" fill="#723CD9"/>
<path d="M15.5 12.9785C16.1422 12.9785 16.77 12.7881 17.304 12.4313C17.838 12.0745 18.2541 11.5674 18.4999 10.974C18.7457 10.3807 18.81 9.72784 18.6847 9.09797C18.5594 8.4681 18.2501 7.88953 17.796 7.43542C17.3419 6.98131 16.7633 6.67206 16.1335 6.54677C15.5036 6.42148 14.8507 6.48578 14.2574 6.73154C13.6641 6.97731 13.157 7.39349 12.8002 7.92747C12.4434 8.46145 12.2529 9.08924 12.2529 9.73145C12.2539 10.5923 12.5963 11.4177 13.2051 12.0264C13.8138 12.6351 14.6391 12.9775 15.5 12.9785ZM15.5 7.04102C16.0321 7.04102 16.5523 7.19881 16.9947 7.49444C17.4372 7.79006 17.782 8.21025 17.9856 8.70186C18.1893 9.19348 18.2425 9.73443 18.1387 10.2563C18.0349 10.7782 17.7787 11.2576 17.4024 11.6339C17.0262 12.0101 16.5468 12.2664 16.0249 12.3702C15.503 12.474 14.962 12.4207 14.4704 12.2171C13.9788 12.0134 13.5586 11.6686 13.263 11.2262C12.9674 10.7837 12.8096 10.2636 12.8096 9.73145C12.8104 9.01814 13.0941 8.33428 13.5984 7.82989C14.1028 7.32551 14.7867 7.0418 15.5 7.04102Z" fill="#723CD9"/>
<path d="M12.8096 20.5674C12.8096 20.4137 12.685 20.2891 12.5312 20.2891C12.3775 20.2891 12.2529 20.4137 12.2529 20.5674V20.9385C12.2529 21.0922 12.3775 21.2168 12.5312 21.2168C12.685 21.2168 12.8096 21.0922 12.8096 20.9385V20.5674Z" fill="#723CD9"/>
<path d="M15.5 20.6602H21.4375C21.5113 20.6602 21.5821 20.6308 21.6343 20.5786C21.6865 20.5264 21.7158 20.4557 21.7158 20.3818C21.7158 20.308 21.6865 20.2372 21.6343 20.185C21.5821 20.1328 21.5113 20.1035 21.4375 20.1035H20.9736V17.4131C20.9736 17.3393 20.9443 17.2685 20.8921 17.2163C20.8399 17.1641 20.7691 17.1348 20.6953 17.1348H16.2422C16.1684 17.1348 16.0976 17.1641 16.0454 17.2163C15.9932 17.2685 15.9639 17.3393 15.9639 17.4131V20.1035H15.5C15.4262 20.1035 15.3554 20.1328 15.3032 20.185C15.251 20.2372 15.2217 20.308 15.2217 20.3818C15.2217 20.4557 15.251 20.5264 15.3032 20.5786C15.3554 20.6308 15.4262 20.6602 15.5 20.6602ZM16.5205 17.6914H20.417V20.1035H16.5205V17.6914Z" fill="#723CD9"/>
<path d="M14.9768 10.6675C15.0027 10.6942 15.0338 10.7155 15.0682 10.7301C15.1025 10.7446 15.1395 10.7521 15.1768 10.7521C15.2141 10.7521 15.251 10.7446 15.2854 10.7301C15.3197 10.7155 15.3508 10.6942 15.3768 10.6675L16.8133 9.18309C16.8387 9.15683 16.8588 9.12581 16.8722 9.0918C16.8857 9.0578 16.8923 9.02148 16.8917 8.98492C16.8911 8.94836 16.8833 8.91227 16.8688 8.87872C16.8543 8.84516 16.8333 8.8148 16.807 8.78936C16.7807 8.76392 16.7497 8.74391 16.7157 8.73046C16.6817 8.71701 16.6454 8.71039 16.6088 8.71097C16.5723 8.71156 16.5362 8.71934 16.5026 8.73387C16.4691 8.74841 16.4387 8.7694 16.4133 8.79567L15.1768 10.0733L14.5867 9.46364C14.5354 9.41059 14.465 9.38013 14.3912 9.37894C14.3173 9.37776 14.2461 9.40596 14.193 9.45733C14.14 9.50871 14.1095 9.57905 14.1083 9.65289C14.1071 9.72673 14.1353 9.79801 14.1867 9.85106L14.9768 10.6675Z" fill="#723CD9"/>
</g>
<defs>
<clipPath id="clip0_8254_3557">
<rect width="19" height="19" fill="white" transform="translate(6 5)"/>
</clipPath>
</defs>
</svg>
