<svg width="34" height="34" viewBox="0 0 34 34" fill="none" xmlns="http://www.w3.org/2000/svg">
<circle cx="17" cy="17" r="17" fill="#723CD9"/>
<g clip-path="url(#clip0_34_739)">
<path d="M9.00001 20.4536C9.00001 21.1572 9.00001 21.8662 9.00001 22.5698C9.00001 22.5806 9.00001 22.6235 9.00543 22.6343C9.01085 22.6611 9.0271 22.6934 9.0271 22.7041C9.08129 22.8867 9.20593 22.9888 9.3956 22.9565C9.60153 22.9243 9.66655 22.7686 9.66655 22.5752C9.66655 21.9092 9.67197 21.2432 9.66655 20.5771C9.66113 19.8467 9.91041 19.2344 10.4794 18.7617C10.6041 18.6597 10.7395 18.5522 10.8913 18.4878C11.6879 18.1655 12.4953 17.854 13.3028 17.5371C13.3461 17.623 13.384 17.6821 13.4166 17.7466C13.7146 18.3428 14.0127 18.939 14.3161 19.5298C14.5112 19.9058 14.8418 19.9863 15.1994 19.7661C15.2319 19.7446 15.2699 19.7285 15.3132 19.707C15.4595 19.9058 15.5896 20.0723 15.5408 20.3516C15.2211 22.1401 14.9231 23.9341 14.6142 25.7227C14.5762 25.9482 14.6304 26.1309 14.7822 26.2974C15.0585 26.5981 15.3349 26.8989 15.6113 27.2051C15.6492 27.248 15.6871 27.2964 15.7305 27.3501C14.5546 27.3501 13.4057 27.3501 12.246 27.3501C12.246 27.248 12.246 27.1621 12.246 27.0762C12.246 25.1211 12.246 23.166 12.246 21.2109C12.246 21.1411 12.2515 21.0659 12.2406 20.9961C12.2135 20.8081 12.078 20.6899 11.8992 20.7061C11.715 20.7222 11.6174 20.835 11.5957 21.0122C11.5903 21.082 11.5903 21.1572 11.5903 21.227C11.5903 23.1875 11.5903 25.1479 11.5903 27.1138C11.5903 27.1943 11.5903 27.2803 11.5903 27.3662C11.0376 27.3662 10.5173 27.3662 9.99712 27.3662C9.69907 27.3662 9.66113 27.3286 9.66113 27.0332C9.66113 26.1362 9.66113 25.2446 9.66113 24.3477C9.66113 24.2886 9.67197 24.2241 9.66113 24.165C9.66113 24.1543 9.66113 24.1113 9.64488 24.0791C9.62862 24.0361 9.59069 23.9932 9.57443 23.9717C9.52566 23.9126 9.45521 23.8696 9.3956 23.8589C9.34141 23.8535 9.26554 23.8535 9.20593 23.8804C9.17342 23.8965 9.09755 23.9341 9.04878 23.9985C9.0271 24.0254 9.01085 24.063 9.00001 24.0952C8.99459 24.1167 8.98375 24.1812 8.98375 24.1973C8.98375 25.1963 8.98375 26.1953 8.98375 27.1943C9.03252 27.5757 9.23845 27.8335 9.57985 27.9893C9.59611 28 9.70991 28.0107 9.74242 28.0107C12.6741 28.0107 15.6004 28.0107 18.5322 28.0107C18.5593 28.0107 18.646 27.9839 18.6622 27.9731C18.7706 27.8979 18.8465 27.8066 18.8302 27.6562C18.8085 27.4736 18.6785 27.3716 18.44 27.3716C18.0499 27.3662 17.6543 27.3716 17.2153 27.3716C17.5676 26.9902 17.8765 26.6465 18.1962 26.3027C18.3425 26.147 18.4075 25.9644 18.3696 25.7495C18.0661 23.9717 17.7735 22.1938 17.4483 20.4214C17.3942 20.1206 17.4809 19.9165 17.6705 19.7178C18.207 20.0186 18.4617 19.9434 18.7272 19.4062C18.7652 19.3311 18.8031 19.2505 18.841 19.1753C19.112 18.6382 19.383 18.1011 19.6539 17.5532C19.7352 17.5801 19.8002 17.6016 19.8707 17.6284C20.4776 17.8594 21.0791 18.0957 21.6861 18.3267C22.8132 18.7617 23.3064 19.4761 23.3064 20.6685C23.3064 22.1294 23.3064 23.5903 23.3064 25.0513C23.3064 25.7119 23.3064 26.3672 23.3064 27.0278C23.3064 27.3286 23.2684 27.3662 22.9758 27.3662C22.5043 27.3662 22.0383 27.3662 21.5668 27.3662C21.5072 27.3662 21.4422 27.3555 21.3772 27.3501C21.3772 27.2427 21.3772 27.1567 21.3772 27.0708C21.3772 25.1157 21.3772 23.1606 21.3772 21.2056C21.3772 21.1357 21.3826 21.0605 21.3718 20.9907C21.3501 20.8242 21.2525 20.7114 21.0791 20.7007C20.8895 20.6899 20.7811 20.792 20.7431 20.9639C20.7269 21.0391 20.7323 21.1196 20.7323 21.2002C20.7323 23.1714 20.7323 25.1372 20.7323 27.1084C20.7323 27.189 20.7323 27.2749 20.7323 27.3608C20.483 27.3608 20.2608 27.3501 20.0495 27.3608C19.7731 27.377 19.6322 27.6348 19.7677 27.8442C19.7948 27.8872 19.8327 27.9248 19.8707 27.9624C19.8815 27.9731 19.9791 28 20.017 28C21.09 28 22.1575 28 23.2305 28C23.263 28 23.4093 27.9678 23.4418 27.9463C23.7453 27.7905 23.9296 27.5381 23.9783 27.1836C23.9783 24.9224 23.9783 22.6558 23.9783 20.3945C23.9675 20.3462 23.9512 20.2978 23.9458 20.2495C23.8429 19.0303 23.1817 18.2246 22.0654 17.7734C21.0466 17.3599 20.0116 16.9785 18.9819 16.5811C18.776 16.5005 18.4834 16.4683 18.3858 16.3125C18.2775 16.146 18.3425 15.8667 18.3533 15.6411C18.3588 15.5552 18.4075 15.4478 18.4726 15.394C19.047 14.9214 19.4046 14.3252 19.5401 13.6055C19.5618 13.4819 19.6106 13.4497 19.7298 13.4282C20.6131 13.2671 21.1496 12.3057 20.7377 11.5483C20.5697 11.2422 20.5372 10.9521 20.5426 10.6299C20.5481 10.4365 20.5426 10.2432 20.5426 10.0498C20.521 8.11084 19.2908 6.56396 17.4104 6.10205C17.302 6.0752 17.1937 6.05371 17.0798 6.02686C17.0365 6.01611 16.8468 6 16.7926 6C16.6138 6 16.435 6 16.2561 6C16.1965 6 15.9635 6.0376 15.8985 6.04834C14.1481 6.31152 12.7446 7.70801 12.5278 9.44287C12.4628 9.9585 12.4953 10.4849 12.4736 11.0059C12.4682 11.1079 12.4411 11.2207 12.3869 11.3013C11.8233 12.1445 12.284 13.2402 13.2919 13.4282C13.4166 13.4497 13.4545 13.5034 13.4762 13.6162C13.5737 14.1641 13.7851 14.6851 14.2023 15.0503C14.5654 15.3672 14.6358 15.7109 14.6033 16.1406C14.5925 16.291 14.5546 16.3608 14.4082 16.4145C13.216 16.8657 12.0184 17.3115 10.8371 17.7842C9.93209 18.144 9.32515 18.7886 9.07588 19.7393C9.0271 19.9219 9.00543 20.1099 8.97833 20.2979C9.01085 20.3354 9.00001 20.4321 9.00001 20.4536ZM14.9068 9.85107C16.1586 10.6245 17.5025 10.9951 18.9711 10.9414C18.9711 11.6182 18.9765 12.2627 18.9711 12.9019C18.9711 13.0845 18.9603 13.2725 18.9332 13.4551C18.7489 14.6475 17.6434 15.4854 16.3483 15.4155C15.1507 15.3511 14.1535 14.3735 14.1156 13.1973C14.0885 12.4131 14.1048 11.6235 14.1102 10.834C14.1102 10.7642 14.1427 10.6782 14.1915 10.6245C14.4137 10.3721 14.6521 10.125 14.9068 9.85107ZM13.1781 10.7534C13.0264 9.24951 13.4436 7.93359 14.8526 7.0957C16.0231 6.40283 17.5188 6.51562 18.6297 7.36963C19.6106 8.12158 20.1904 9.69531 19.8707 10.8018C19.7677 10.7534 19.6214 10.7266 19.5835 10.6514C19.4317 10.356 19.1879 10.2969 18.8844 10.2861C18.4075 10.27 17.9306 10.2539 17.4646 10.1733C16.6897 10.0444 15.9744 9.73828 15.3024 9.33008C14.9231 9.09912 14.6846 9.13672 14.3811 9.45898C14.1265 9.73291 13.8718 10.0068 13.6225 10.2808C13.5629 10.3506 13.4762 10.4365 13.4762 10.5117C13.4762 10.7373 13.3353 10.748 13.1781 10.7534ZM16.5 27.1997C16.1315 26.7969 15.7901 26.4102 15.427 26.0395C15.2807 25.8945 15.259 25.7495 15.297 25.5615C15.5192 24.3154 15.7251 23.0693 15.9418 21.8179C16.0285 21.3237 16.1153 20.835 16.1965 20.3354C16.4025 20.3354 16.5976 20.3354 16.8035 20.3354C16.8522 20.6255 16.901 20.9048 16.9498 21.1895C17.2045 22.6934 17.4646 24.1919 17.7139 25.6958C17.7247 25.7656 17.7193 25.8623 17.6759 25.9106C17.2966 26.335 16.9064 26.7539 16.5 27.1997ZM16.5 17.9453C16.1532 17.521 15.8389 17.0967 15.4812 16.7153C15.2265 16.4468 15.2753 16.1567 15.2916 15.8345C16.1044 16.1567 16.901 16.1353 17.7464 15.8452C17.7085 16.103 17.7464 16.3662 17.638 16.522C17.302 17.0054 16.9064 17.4512 16.5 17.9453ZM13.9259 17.3008C14.2457 17.1826 14.5383 17.0752 14.8364 16.9678C15.0152 17.1719 15.194 17.376 15.3674 17.5801C15.4216 17.6445 15.4758 17.7144 15.53 17.7788C15.6926 17.9829 15.8606 18.187 16.0285 18.3965C15.6384 18.6704 15.2699 18.9282 14.8797 19.2021C14.56 18.5684 14.2511 17.9507 13.9259 17.3008ZM16.9715 18.3965C17.3508 17.9346 17.7139 17.4834 18.0878 17.0376C18.1149 17.0054 18.1908 16.9731 18.2233 16.9839C18.5051 17.0859 18.7814 17.1934 19.0741 17.3062C18.7489 17.9507 18.44 18.5684 18.1203 19.2021C17.7356 18.9336 17.3671 18.6704 16.9715 18.3965ZM13.4382 12.7837C13.0318 12.6924 12.8042 12.4077 12.8205 12.0532C12.8367 11.7095 13.086 11.4355 13.4382 11.3926C13.4382 11.8491 13.4382 12.311 13.4382 12.7837ZM15.8497 19.3149C16.0502 19.1753 16.2236 19.0464 16.4025 18.9282C16.4458 18.9014 16.5325 18.8799 16.5705 18.9067C16.7655 19.0356 16.9552 19.1753 17.1286 19.2988C17.0094 19.8198 16.6084 19.6533 16.2887 19.6855C16.0069 19.7124 15.9852 19.4707 15.8497 19.3149ZM19.6322 12.7783C19.6322 12.3218 19.6322 11.8706 19.6322 11.4141C20.0116 11.4893 20.2554 11.7739 20.2446 12.1123C20.2338 12.4614 19.9845 12.7354 19.6322 12.7783Z" fill="white"/>
</g>
<defs>
<clipPath id="clip0_34_739">
<rect width="15" height="22" fill="white" transform="matrix(-1 0 0 1 24 6)"/>
</clipPath>
</defs>
</svg>
