<svg width="30" height="30" viewBox="0 0 30 30" fill="none" xmlns="http://www.w3.org/2000/svg">
<path d="M8.44048 2.59307C8.55094 2.71203 8.6614 2.83098 8.74636 2.97542C10.5647 6.14468 12.3744 9.32244 14.1842 12.5002C14.2182 12.5597 14.2522 12.6107 14.2777 12.6616C14.4986 13.095 14.2777 13.4603 13.7934 13.4688C13.1476 13.4773 12.5019 13.4688 11.8561 13.4688C8.82283 13.4688 5.78952 13.4688 2.7562 13.4773C2.40784 13.4773 2.15294 13.3839 2.02549 13.061C2.0085 13.0525 2 13.01 2 13.0015C2 12.9845 2 12.9675 2 12.9505C2 12.9335 2.0085 12.8826 2.01699 12.8741C2.08497 12.7466 2.15294 12.6107 2.22091 12.4832C4.01371 9.33094 5.79802 6.18717 7.59931 3.0434C7.68428 2.89895 7.79474 2.76301 7.90519 2.63556C7.92219 2.61007 7.96467 2.57608 8.00715 2.55908C8.03264 2.53359 8.10062 2.5166 8.10911 2.5166C8.1516 2.5166 8.19408 2.5166 8.23656 2.5166C8.25356 2.5166 8.41499 2.56758 8.44048 2.59307ZM12.9522 12.4407C11.3548 9.63682 9.78296 6.8669 8.17709 4.046C6.57121 6.8754 4.99933 9.64532 3.41045 12.4407C6.6137 12.4407 9.75747 12.4407 12.9522 12.4407Z" fill="#292929"/>
<path d="M21.8134 27.6839C21.1082 27.5904 20.6154 27.1571 20.1396 26.6728C18.9755 25.4832 17.786 24.3107 16.6049 23.1297C15.6703 22.195 15.6788 21.0565 16.6134 20.1218C17.8879 18.8473 19.1624 17.5643 20.4454 16.2898C21.3801 15.3552 22.5101 15.3552 23.4533 16.2898C24.6173 17.4539 25.7729 18.6264 26.9454 19.7735C27.4637 20.2833 27.931 20.8016 27.999 21.5578C27.999 21.6003 27.999 21.6428 27.999 21.6852C27.931 22.4414 27.4637 22.9682 26.9454 23.4695C25.8748 24.5146 24.8127 25.5682 23.7676 26.6388C23.2833 27.1316 22.7905 27.5734 22.0683 27.6754C21.9833 27.6839 21.8984 27.6839 21.8134 27.6839ZM26.9539 21.3624C26.8859 21.2094 26.7585 21.0735 26.6565 20.9715C25.331 19.6205 23.9971 18.2866 22.6546 16.9611C22.2213 16.5277 21.6775 16.5277 21.2441 16.9611C19.9102 18.2866 18.5847 19.612 17.2592 20.946C16.8344 21.3709 16.8259 21.9061 17.2507 22.331C18.5847 23.6735 19.9187 25.0074 21.2611 26.3414C21.686 26.7662 22.2213 26.7662 22.6461 26.3414C23.9971 25.0074 25.3395 23.665 26.6735 22.3055C26.7755 22.2035 26.8944 22.1016 26.9709 21.9571C27.0644 21.7362 26.9964 21.4473 26.9539 21.3624Z" fill="#292929"/>
<path d="M16.8438 8.37105C16.8438 7.38544 16.8438 6.39982 16.8438 5.41421C16.8522 4.1567 17.7189 3.29004 18.9679 3.29004C20.9561 3.29004 22.9359 3.29004 24.9241 3.29004C26.1731 3.29004 27.0398 4.1652 27.0398 5.41421C27.0398 7.40243 27.0483 9.38216 27.0398 11.3704C27.0398 12.6024 26.1646 13.4776 24.9326 13.4776C22.9359 13.4861 20.9391 13.4861 18.9509 13.4776C17.7189 13.4776 16.8522 12.5939 16.8522 11.3619C16.8438 10.3678 16.8438 9.36517 16.8438 8.37105ZM26.0202 8.37105C26.0202 7.39394 26.0202 6.41682 26.0202 5.4397C26.0202 4.71748 25.6123 4.30114 24.8986 4.30114C22.9274 4.30114 20.9476 4.30114 18.9764 4.30114C18.2797 4.30114 17.8634 4.70898 17.8634 5.41421C17.8634 7.38544 17.8634 9.36517 17.8634 11.3364C17.8634 12.0501 18.2797 12.458 18.9934 12.458C20.9561 12.458 22.9189 12.458 24.8901 12.458C25.6038 12.458 26.0202 12.0501 26.0202 11.3279C26.0202 10.3423 26.0202 9.35667 26.0202 8.37105Z" fill="#292929"/>
<path d="M13.7852 21.6084C13.7852 24.7182 11.2787 27.2332 8.19443 27.2332C5.07615 27.2332 2.57812 24.7267 2.57812 21.5999C2.57812 18.5156 5.11014 16.0176 8.21992 16.0176C11.2702 16.0261 13.7852 18.5496 13.7852 21.6084ZM8.22842 17.0457C5.67941 17.0372 3.60622 19.0679 3.59773 21.5999C3.58073 24.1404 5.62843 26.2051 8.16894 26.2136C10.684 26.2221 12.7656 24.1659 12.7656 21.6594C12.7741 19.1274 10.7349 17.0542 8.22842 17.0457Z" fill="#292929"/>
</svg>
