<svg width="42" height="42" viewBox="0 0 42 42" fill="none" xmlns="http://www.w3.org/2000/svg">
<path d="M41.4634 20.7317C41.4634 32.1815 32.1815 41.4634 20.7317 41.4634C9.2819 41.4634 0 32.1815 0 20.7317C0 9.2819 9.2819 0 20.7317 0C32.1815 0 41.4634 9.2819 41.4634 20.7317Z" fill="#292929"/>
<path d="M8.33007 19.4297C8.50929 19.1135 8.81592 18.9414 9.15063 18.8165C10.538 18.2991 11.9281 17.7891 13.3182 17.2785C18.0791 15.5279 22.84 13.7778 27.6014 12.0288C27.7142 11.9873 27.8314 11.9495 27.9501 11.9334C28.5882 11.8463 29.0422 12.2123 29.0239 12.8618C29.012 13.2838 28.9132 13.7073 28.8214 14.1236C27.8432 18.5469 26.8596 22.9687 25.8717 27.39C25.8215 27.615 25.7422 27.8415 25.6326 28.0457C25.4204 28.4408 25.0549 28.589 24.6128 28.4615C24.3974 28.3993 24.1799 28.3065 23.9985 28.181C22.5128 27.1484 21.0353 26.1044 19.555 25.064C19.4956 25.0225 19.4357 24.9816 19.3628 24.9318C19.304 24.9816 19.2484 25.0257 19.196 25.0733C18.4397 25.7664 17.6828 26.4595 16.9276 27.1541C16.7041 27.3599 16.4466 27.4812 16.1022 27.476C16.1216 27.1956 16.14 26.9209 16.1605 26.6461C16.2506 25.4316 16.3386 24.217 16.4369 23.0029C16.4439 22.9127 16.5011 22.8054 16.5713 22.7448C19.4384 20.2648 22.3098 17.7896 25.1807 15.3138C25.2007 15.2967 25.2282 15.2832 25.2401 15.262C25.2941 15.166 25.3443 15.0681 25.3956 14.9706C25.2725 14.9473 25.1424 14.8898 25.0274 14.91C24.8876 14.9338 24.7515 15.0116 24.6274 15.0862C21.0547 17.2302 17.4836 19.3769 13.9093 21.5188C13.8311 21.566 13.7037 21.5919 13.6189 21.567C12.0987 21.1212 10.5818 20.6661 9.06425 20.2125C8.76464 20.1228 8.49256 19.9953 8.32035 19.7299C8.31765 19.7257 8.29066 19.649 8.29282 19.5738C8.29606 19.5033 8.32629 19.4365 8.33007 19.4297Z" fill="white"/>
</svg>
