<svg width="30" height="30" viewBox="0 0 30 30" fill="none" xmlns="http://www.w3.org/2000/svg">
<path d="M12.7999 5C14.1999 5 15.5999 5 16.9999 5H17.0999C17.3999 5.1 17.5999 5.3 17.6999 5.6C17.8999 5.8 17.9999 5.9 18.1999 6C21.1999 7.3 22.9999 9.5 23.6999 12.7C23.7999 13.1 23.7999 13.6 23.8999 14C23.9999 14 24.0999 14 24.2999 14C24.5999 14.1 24.6999 14.3 24.7999 14.6C24.7999 14.6 24.7999 14.7 24.7999 14.8C24.7999 15.1 24.7999 15.4 24.7999 15.6V15.8C24.5999 16.3 24.2999 16.5 23.6999 16.5C17.7999 16.5 11.8999 16.5 5.9999 16.5C5.5999 16.5 5.1999 16.3 4.9999 15.9C4.9999 15.8 4.9999 15.8 4.8999 15.7V15.5C4.8999 15.2 4.8999 15 4.8999 14.7V14.6C4.9999 14.4 5.0999 14.2 5.2999 14C5.5999 14 5.7999 14 5.9999 13.9C6.0999 13.4 6.0999 12.9 6.1999 12.4C6.5999 10.3 7.6999 8.6 9.2999 7.3C9.9999 6.7 10.8999 6.2 11.6999 5.9C11.8999 5.9 11.9999 5.8 11.9999 5.8C12.0999 5.4 12.2999 5.2 12.6999 5H12.7999ZM6.6999 13.9C12.1999 13.9 17.6999 13.9 23.1999 13.9C23.0999 12 22.4999 10.4 21.2999 9C20.3999 7.9 19.2999 7.1 17.8999 6.6C17.8999 6.7 17.8999 6.8 17.8999 6.8C17.8999 8.6 17.8999 10.3 17.8999 12.1C17.8999 12.2 17.8999 12.3 17.8999 12.4C17.8999 12.6 17.6999 12.6 17.5999 12.6C17.3999 12.6 17.2999 12.5 17.2999 12.3C17.2999 12.2 17.2999 12.1 17.2999 12C17.2999 10 17.2999 8 17.2999 6C17.2999 5.7 17.1999 5.5 16.7999 5.5C16.2999 5.5 15.8999 5.5 15.3999 5.5C15.2999 5.5 15.2999 5.5 15.1999 5.5C15.1999 5.6 15.1999 5.7 15.1999 5.8C15.1999 8.1 15.1999 10.3 15.1999 12.6C15.1999 12.7 15.1999 12.8 15.1999 12.9C15.1999 13.1 15.0999 13.1 14.8999 13.1C14.7999 13.3 14.5999 13.2 14.5999 13C14.5999 12.9 14.5999 12.8 14.5999 12.7C14.5999 10.4 14.5999 8.2 14.5999 5.9C14.5999 5.8 14.5999 5.7 14.5999 5.6C14.0999 5.6 13.5999 5.6 13.0999 5.6C12.6999 5.6 12.5999 5.7 12.5999 6.1C12.5999 8.1 12.5999 10 12.5999 12C12.5999 12.1 12.5999 12.1 12.5999 12.2C12.5999 12.4 12.4999 12.5 12.2999 12.5C12.0999 12.6 11.9999 12.5 11.9999 12.3C11.9999 12.2 11.9999 12.1 11.9999 12.1C11.9999 10.3 11.9999 8.6 11.9999 6.8C11.9999 6.7 11.9999 6.7 11.9999 6.6C8.7999 7.7 6.6999 10.8 6.6999 13.9ZM14.8999 15.9C17.7999 15.9 20.6999 15.9 23.5999 15.9C23.6999 15.9 23.7999 15.9 23.7999 15.9C23.9999 15.9 24.0999 15.8 24.0999 15.6C24.0999 15.4 24.0999 15.2 24.0999 15C24.0999 14.8 23.9999 14.7 23.7999 14.7C23.6999 14.7 23.6999 14.7 23.5999 14.7C17.7999 14.7 11.9999 14.7 6.0999 14.7H5.9999C5.6999 14.7 5.5999 14.8 5.5999 15.1C5.5999 15.2 5.5999 15.4 5.5999 15.5C5.5999 15.9 5.6999 16 6.0999 16C9.0999 15.9 11.9999 15.9 14.8999 15.9Z" fill="#723CD9"/>
<path d="M4.9999 20.1002C5.0999 19.9002 5.2999 19.9002 5.3999 19.9002C5.7999 19.9002 6.1999 19.9002 6.4999 19.9002C6.5999 19.7002 6.5999 19.4002 6.6999 19.2002C6.9999 18.5002 7.5999 18.2002 8.2999 18.2002C12.5999 18.2002 16.7999 18.2002 21.0999 18.2002C21.1999 18.2002 21.3999 18.2002 21.4999 18.2002C22.0999 18.3002 22.6999 18.7002 22.8999 19.3002C22.8999 19.4002 22.9999 19.5002 23.0999 19.5002C23.3999 19.5002 23.7999 19.5002 24.0999 19.5002C24.2999 19.5002 24.4999 19.5002 24.5999 19.7002V19.8002C24.5999 20.7002 24.5999 21.6002 24.5999 22.5002V22.6002C24.4999 22.7002 24.2999 22.8002 24.1999 22.8002C23.8999 22.8002 23.4999 22.8002 23.1999 22.8002C23.0999 22.8002 22.9999 22.8002 22.9999 23.0002C22.8999 23.6002 22.5999 24.0002 22.0999 24.4002C21.7999 24.6002 21.4999 24.7002 21.1999 24.8002H21.0999H20.8999C20.1999 24.8002 19.4999 24.8002 18.7999 24.8002C18.6999 24.8002 18.2999 24.8002 18.1999 24.8002C17.0999 24.6002 16.1999 24.1002 15.4999 23.3002C15.3999 23.1002 15.1999 22.9002 15.0999 22.7002C14.8999 22.5002 14.6999 22.5002 14.5999 22.7002C14.4999 22.8002 14.4999 22.9002 14.3999 23.0002C13.8999 23.7002 13.1999 24.2002 12.3999 24.5002C12.0999 24.6002 11.6999 24.7002 11.3999 24.7002H11.0999C10.3999 24.7002 9.5999 24.7002 8.8999 24.7002C8.8999 24.7002 8.7999 24.7002 8.6999 24.7002C7.7999 24.6002 7.0999 24.1002 6.7999 23.2002C6.7999 23.1002 6.6999 23.1002 6.5999 23.1002C6.1999 23.1002 5.7999 23.1002 5.3999 23.1002C5.1999 23.1002 5.0999 23.1002 4.9999 22.9002V22.8002C4.9999 22.0002 4.9999 21.1002 4.9999 20.1002ZM14.8999 18.9002C12.7999 18.9002 10.5999 18.9002 8.4999 18.9002C8.3999 18.9002 8.2999 18.9002 8.1999 18.9002C7.7999 19.0002 7.3999 19.3002 7.3999 19.8002C7.3999 20.8002 7.3999 21.7002 7.3999 22.7002C7.3999 23.4002 8.0999 24.1002 8.7999 24.2002C9.5999 24.2002 10.3999 24.2002 11.2999 24.2002C12.1999 24.2002 12.8999 23.8002 13.4999 23.2002C13.7999 22.9002 13.9999 22.6002 14.1999 22.3002C14.5999 21.8002 15.3999 21.8002 15.7999 22.3002C15.8999 22.4002 15.9999 22.6002 16.0999 22.7002C16.6999 23.5002 17.5999 24.0002 18.5999 24.1002C19.3999 24.2002 20.1999 24.2002 20.9999 24.1002C21.9999 24.1002 22.5999 23.4002 22.5999 22.4002C22.5999 21.5002 22.5999 20.7002 22.5999 19.8002C22.5999 19.6002 22.5999 19.5002 22.4999 19.3002C22.2999 18.9002 21.8999 18.7002 21.4999 18.7002C19.1999 18.9002 17.0999 18.9002 14.8999 18.9002ZM23.1999 22.2002C23.4999 22.2002 23.8999 22.2002 24.1999 22.2002C24.1999 21.9002 24.1999 21.5002 24.1999 21.2002C23.8999 21.2002 23.5999 21.2002 23.1999 21.2002C23.1999 21.5002 23.1999 21.9002 23.1999 22.2002ZM6.5999 21.6002C6.2999 21.6002 5.8999 21.6002 5.5999 21.6002C5.5999 21.9002 5.5999 22.2002 5.5999 22.6002C5.8999 22.6002 6.1999 22.6002 6.5999 22.6002C6.5999 22.2002 6.5999 21.9002 6.5999 21.6002ZM6.5999 20.6002C6.2999 20.6002 5.8999 20.6002 5.5999 20.6002C5.5999 20.7002 5.5999 20.8002 5.5999 20.9002C5.8999 20.9002 6.1999 20.9002 6.5999 20.9002C6.5999 20.8002 6.5999 20.7002 6.5999 20.6002ZM24.1999 20.2002C23.8999 20.2002 23.4999 20.2002 23.1999 20.2002C23.1999 20.3002 23.1999 20.4002 23.1999 20.5002C23.4999 20.5002 23.8999 20.5002 24.1999 20.5002C24.1999 20.4002 24.1999 20.3002 24.1999 20.2002Z" fill="#723CD9"/>
<path d="M11.0999 19.5996C11.7999 19.5996 12.3999 19.5996 13.0999 19.5996C13.1999 19.5996 13.1999 19.5996 13.2999 19.5996C13.4999 19.5996 13.5999 19.7996 13.5999 19.8996C13.5999 20.0996 13.4999 20.1996 13.2999 20.1996C13.1999 20.1996 13.1999 20.1996 13.0999 20.1996C11.7999 20.1996 10.4999 20.1996 9.19985 20.1996C8.79985 20.1996 8.69985 20.2996 8.69985 20.6996C8.69985 20.9996 8.69985 21.3996 8.69985 21.6996C8.69985 21.7996 8.69985 21.7996 8.69985 21.8996C8.69985 22.0996 8.49985 22.1996 8.39985 22.1996C8.19985 22.1996 8.09985 22.0996 8.09985 21.8996C8.09985 21.3996 8.09985 20.8996 8.09985 20.3996C8.09985 19.9996 8.49985 19.5996 8.89985 19.5996C9.49985 19.5996 9.99985 19.5996 10.5999 19.5996C10.6999 19.5996 10.8999 19.5996 11.0999 19.5996Z" fill="#723CD9"/>
<path d="M14.8999 19.5C14.9999 19.5 15.1999 19.5 15.2999 19.5C15.4999 19.5 15.5999 19.7 15.5999 19.8C15.5999 20 15.4999 20.1 15.2999 20.1C14.9999 20.1 14.7999 20.1 14.4999 20.1C14.2999 20.1 14.1999 19.9 14.1999 19.8C14.1999 19.6 14.2999 19.5 14.4999 19.5C14.6999 19.6 14.7999 19.6 14.8999 19.5Z" fill="#723CD9"/>
</svg>
