<svg width="30" height="30" viewBox="0 0 30 30" fill="none" xmlns="http://www.w3.org/2000/svg">
<g clip-path="url(#clip0_8063_1532)">
<path d="M9.26464 28.1905C6.63648 28.1859 4.00831 28.1722 1.38015 28.1996C0.745921 28.2042 0.275954 28.0445 -0.0206266 27.497C-0.0297522 27.4696 -0.0571289 27.2323 -0.0571289 27.1411C-0.0571289 19.0923 -0.0571289 11.0435 -0.0571289 2.99023C-0.0571289 2.92179 -0.011501 2.68908 0.0113129 2.64802C0.307894 2.14155 0.768735 1.99554 1.38015 2.0001C4.00831 2.02748 6.63648 2.01379 9.26464 2.00923C9.39696 2.00923 10.9072 2.00923 11.0533 2.00923C16.9347 2.01379 22.8161 2.01835 28.6975 2.00467C29.3318 2.00467 29.7789 2.20087 30.0208 2.76665C30.0344 2.79403 30.0573 2.92179 30.0573 2.95373C30.0573 11.0664 30.0573 19.179 30.0573 27.2916C30.0573 27.3327 30.0253 27.4787 30.0116 27.5106C29.715 28.049 29.2451 28.2042 28.6154 28.1996C22.7614 28.1814 16.9073 28.1905 11.0533 28.1905C10.9072 28.1905 9.39696 28.1905 9.26464 28.1905ZM19.3028 11.4451C13.1704 11.4451 7.07907 11.4451 0.987749 11.4451C0.987749 13.8953 0.987749 16.3227 0.987749 18.7638C7.10188 18.7638 13.1932 18.7638 19.3028 18.7638C19.3028 16.3136 19.3028 13.8907 19.3028 11.4451ZM10.6928 10.3546C16.8206 10.3546 22.9165 10.3546 29.0033 10.3546C29.0033 7.90891 29.0033 5.48607 29.0033 3.06323C22.8891 3.06323 16.7978 3.06323 10.6928 3.06323C10.6928 5.50432 10.6928 7.91804 10.6928 10.3546ZM29.0124 19.8452C22.8891 19.8452 16.7978 19.8452 10.7019 19.8452C10.7019 22.2908 10.7019 24.7137 10.7019 27.1365C16.8161 27.1365 22.9074 27.1365 29.0124 27.1365C29.0124 24.6954 29.0124 22.2817 29.0124 19.8452ZM20.4207 11.4314C20.4207 13.8953 20.4207 16.3273 20.4207 18.7638C23.2952 18.7638 26.1424 18.7638 29.0033 18.7638C29.0033 16.3136 29.0033 13.8816 29.0033 11.4314C26.1424 11.4314 23.2952 11.4314 20.4207 11.4314ZM0.983186 10.3591C3.87143 10.3591 6.72317 10.3591 9.5886 10.3591C9.5886 7.91347 9.5886 5.48607 9.5886 3.06323C6.70492 3.06323 3.84862 3.06323 0.983186 3.06323C0.983186 5.50432 0.983186 7.91804 0.983186 10.3591ZM9.5886 27.1411C9.5886 24.6817 9.5886 22.2634 9.5886 19.8406C6.70492 19.8406 3.85318 19.8406 0.987749 19.8406C0.987749 22.2817 0.987749 24.7045 0.987749 27.1411C3.8623 27.1411 6.71405 27.1411 9.5886 27.1411Z" fill="#292929"/>
</g>
<defs>
<clipPath id="clip0_8063_1532">
<rect width="30" height="30" fill="white"/>
</clipPath>
</defs>
</svg>
