<svg width="24" height="18" viewBox="0 0 24 18" fill="none" xmlns="http://www.w3.org/2000/svg">
<path fill-rule="evenodd" clip-rule="evenodd" d="M0.528809 1C0.528809 0.447715 0.976524 0 1.52881 0H22.2127C22.765 0 23.2127 0.447715 23.2127 1C23.2127 1.55228 22.765 2 22.2127 2H1.52881C0.976524 2 0.528809 1.55228 0.528809 1ZM0.528809 8.79545C0.528809 8.24317 0.976524 7.79545 1.52881 7.79545H22.2127C22.765 7.79545 23.2127 8.24317 23.2127 8.79545C23.2127 9.34774 22.765 9.79545 22.2127 9.79545H1.52881C0.976524 9.79545 0.528809 9.34774 0.528809 8.79545ZM1.52881 15.5909C0.976524 15.5909 0.528809 16.0386 0.528809 16.5909C0.528809 17.1432 0.976524 17.5909 1.52881 17.5909H22.2127C22.765 17.5909 23.2127 17.1432 23.2127 16.5909C23.2127 16.0386 22.765 15.5909 22.2127 15.5909H1.52881Z" fill="#343D74"/>
</svg>
