<svg width="26" height="26" viewBox="0 0 26 26" fill="none" xmlns="http://www.w3.org/2000/svg">
<path d="M24.3594 19.8719C24.3594 15.7642 24.3594 11.6506 24.3594 7.5429C24.3594 7.48421 24.3242 7.27296 24.3183 7.22601C24.0601 5.23083 22.3642 3.61708 20.3631 3.49385C19.97 3.47038 19.5768 3.48798 19.166 3.48798C19.166 3.24152 19.1543 3.042 19.166 2.84835C19.2071 2.32022 19.0076 1.95639 18.5323 1.76274C18.5147 1.751 18.4032 1.7334 18.3738 1.7334C18.3093 1.7334 18.2447 1.7334 18.1802 1.7334C18.1567 1.7334 18.0687 1.74513 18.0511 1.751C17.5464 1.95052 17.3586 2.33782 17.3997 2.87183C17.4173 3.05961 17.3997 3.24739 17.3997 3.44691C14.5184 3.44691 11.6548 3.44691 8.77349 3.44691C8.77349 3.24739 8.76175 3.05961 8.77349 2.87183C8.81457 2.33195 8.62092 1.94465 8.12212 1.751C8.10452 1.74513 8.0165 1.7334 7.98716 1.7334C7.92261 1.7334 7.86392 1.7334 7.79937 1.7334C7.77003 1.7334 7.67614 1.74513 7.65854 1.75687C7.17148 1.95052 6.96609 2.32022 7.00717 2.84835C7.02477 3.04787 7.00717 3.25326 7.00717 3.46451C6.73137 3.46451 6.49077 3.46451 6.25017 3.46451C4.17871 3.49385 2.49454 4.75551 1.9664 6.68614C1.91946 6.85045 1.88425 7.02063 1.84904 7.1908C1.8373 7.24949 1.81383 7.47248 1.81383 7.53116C1.81383 11.6741 1.81383 15.8112 1.81383 19.9541C1.81383 20.0245 1.84904 20.4294 1.85491 20.4705C2.0955 22.272 3.40411 23.7215 5.1763 24.144C5.37582 24.1909 6.17976 24.2672 6.38514 24.2672C10.9095 24.2672 15.4339 24.2672 19.9582 24.2672C20.0991 24.2672 20.4629 24.232 20.5098 24.232C22.3583 23.9973 23.8254 22.6769 24.242 20.8637C24.2948 20.6876 24.3594 20.0304 24.3594 19.8719ZM22.5989 10.4242C22.5989 10.5239 22.5989 10.5943 22.5989 10.6706C22.5989 13.728 22.5989 16.7853 22.5989 19.8426C22.5989 21.3625 21.4722 22.5009 19.9465 22.5009C15.3752 22.5068 10.8098 22.5068 6.23844 22.5009C4.71271 22.5009 3.58602 21.3625 3.58602 19.8367C3.58602 16.7794 3.58602 13.7221 3.58602 10.6648C3.58602 10.5885 3.58602 10.5122 3.58602 10.4242C9.93539 10.4242 16.2554 10.4242 22.5989 10.4242ZM22.5813 8.64024C16.2437 8.64024 9.92365 8.64024 3.60362 8.64024C3.31022 5.89394 5.25258 4.97263 7.01891 5.26604C7.01891 5.82352 7.01304 6.37513 7.01891 6.9326C7.02477 7.41379 7.371 7.78349 7.82871 7.81283C8.35098 7.84804 8.76762 7.46661 8.77349 6.93847C8.77936 6.37513 8.77349 5.81178 8.77349 5.2367C11.6548 5.2367 14.5184 5.2367 17.3997 5.2367C17.3997 5.33059 17.3997 5.40688 17.3997 5.48903C17.3997 5.97022 17.3938 6.45728 17.3997 6.93847C17.4056 7.44314 17.7929 7.8187 18.2799 7.81283C18.7729 7.81283 19.1484 7.43727 19.1543 6.92674C19.1602 6.66854 19.1543 6.4162 19.1543 6.15801C19.1543 5.85286 19.1543 5.54771 19.1543 5.24257C21.2551 4.98437 22.8571 6.14627 22.5813 8.64024Z" fill="#979797"/>
<path d="M18.2784 18.193C17.9908 18.193 17.7092 18.1872 17.4216 18.193C16.9228 18.2048 16.5414 18.5921 16.5414 19.0733C16.5414 19.5486 16.9169 19.9418 17.404 19.9476C17.9908 19.9594 18.5776 19.9594 19.1586 19.9476C19.6515 19.9418 20.0388 19.531 20.0271 19.0557C20.0153 18.5803 19.6398 18.2048 19.1527 18.193C18.8652 18.1872 18.5718 18.193 18.2784 18.193Z" fill="#979797"/>
<path d="M7.89164 18.193C7.6041 18.193 7.32243 18.1872 7.03489 18.193C6.53609 18.2048 6.1488 18.5862 6.1488 19.0733C6.1488 19.5545 6.53609 19.9476 7.03489 19.9535C7.61584 19.9594 8.19092 19.9652 8.77187 19.9535C9.27067 19.9476 9.6521 19.5427 9.64036 19.0615C9.63449 18.5862 9.25893 18.2048 8.766 18.193C8.47846 18.1872 8.18505 18.193 7.89164 18.193Z" fill="#979797"/>
<path d="M7.91146 14.7609C8.199 14.7609 8.48067 14.7668 8.76821 14.7609C9.267 14.7492 9.64844 14.3619 9.64844 13.8807C9.64257 13.3937 9.26114 13.0122 8.76234 13.0064C8.19313 13.0005 7.61805 13.0005 7.04883 13.0064C6.55004 13.0122 6.16274 13.3937 6.15687 13.8748C6.151 14.356 6.5383 14.7492 7.0371 14.7609C7.32464 14.7668 7.61805 14.7609 7.91146 14.7609Z" fill="#979797"/>
<path d="M18.3021 14.7609C18.5896 14.7609 18.8713 14.7668 19.1588 14.7609C19.6576 14.7492 20.0391 14.356 20.0391 13.8749C20.0332 13.3937 19.6459 13.0064 19.1471 13.0005C18.5779 12.9946 18.0028 12.9946 17.4336 13.0005C16.9348 13.0064 16.5475 13.3878 16.5475 13.8749C16.5416 14.356 16.9289 14.7492 17.4219 14.7609C17.7153 14.7668 18.0087 14.7609 18.3021 14.7609Z" fill="#979797"/>
<path d="M13.1107 14.7609C13.3982 14.7609 13.6799 14.7668 13.9674 14.7609C14.4662 14.7492 14.8477 14.356 14.8477 13.8749C14.8418 13.3937 14.4604 13.0064 13.9557 13.0005C13.3865 12.9946 12.8114 12.9946 12.2422 13.0005C11.7375 13.0064 11.362 13.3878 11.3561 13.8749C11.3502 14.3619 11.7317 14.7492 12.2304 14.7609C12.5239 14.7668 12.8173 14.7609 13.1107 14.7609Z" fill="#979797"/>
<path d="M13.0793 18.193C12.7918 18.193 12.5101 18.1872 12.2226 18.193C11.7355 18.2048 11.3599 18.5862 11.3541 19.0615C11.3482 19.5368 11.7179 19.9359 12.205 19.9476C12.7977 19.9594 13.3903 19.9594 13.983 19.9476C14.4642 19.9359 14.8456 19.5368 14.8398 19.0674C14.8398 18.5921 14.4583 18.2048 13.9713 18.193C13.6779 18.1872 13.3786 18.193 13.0793 18.193Z" fill="#979797"/>
</svg>
