<svg width="30" height="30" viewBox="0 0 30 30" fill="none" xmlns="http://www.w3.org/2000/svg">
<path d="M5 15C5 14.8 5 14.6 5 14.3C5 14.2 5 13.7 5.1 13.5C5.1 13.2 5.2 13 5.2 12.7C5.9 8.8 9.1 5.7 13 5.1C13.3 5.1 13.5 5 13.8 5C13.9 5 14.2 5 14.3 5C14.6 5 14.9 5 15.1 5C15.2 5 15.4 5 15.4 5C15.9 5.1 16.4 5.1 16.9 5.2C20.6 6.1 23.6 9.2 24.2 12.9C24.2 13.2 24.3 13.5 24.3 13.8C24.3 13.9 24.3 14.1 24.3 14.2C24.3 14.4 24.3 14.7 24.3 14.9C24.3 15 24.3 15.3 24.3 15.3C24.2 15.7 24.2 16.2 24.1 16.6C23.3 20.4 20.1 23.4 16.3 24C16 24 15.7 24.1 15.4 24.1C15.3 24.1 15 24.1 14.9 24.1C14.7 24.1 14.5 24.1 14.3 24.1C14.2 24.1 13.9 24.1 13.9 24.1C13.5 24 13 24 12.6 23.9C8.8 23.1 5.7 19.9 5.1 16.2C5.1 15.9 5 15.6 5 15.3C5 15.4 5 15.1 5 15ZM14.7 10.4C12.3 10.4 10.4 12.3 10.4 14.7C10.4 17.1 12.3 19 14.7 19C17 19 19 17 19 14.7C18.9 12.3 17 10.4 14.7 10.4ZM10.4 18.1C8.8 15.8 8.8 13.6 10.4 11.3C9.7 10.5 9 9.8 8.2 9.1C5.4 12.2 5.4 17.2 8.2 20.3C9 19.5 9.7 18.8 10.4 18.1ZM18.1 10.4C18.8 9.7 19.6 8.9 20.3 8.2C16.9 5.2 11.8 5.7 9.2 8.2C9.8 9 10.6 9.7 11.3 10.4C13.5 8.9 15.8 8.9 18.1 10.4ZM18.9 11.3C20.5 13.6 20.5 15.8 18.9 18.1C19.6 18.8 20.4 19.6 21.1 20.3C24.1 17 23.7 11.9 21.1 9.1C20.4 9.8 19.6 10.5 18.9 11.3ZM20.2 21.1C19.5 20.4 18.7 19.6 18 18.9C17 19.7 15.9 20.1 14.6 20.1C13.3 20.1 12.2 19.7 11.2 18.9C10.5 19.6 9.7 20.4 9 21.1C11.9 23.7 16.9 24.1 20.2 21.1Z" fill="#723CD9"/>
</svg>
