<svg width="17" height="17" viewBox="0 0 17 17" fill="none" xmlns="http://www.w3.org/2000/svg">
<g clip-path="url(#clip0_42_1015)">
<path d="M12.3477 0.10791C13.2068 0.390137 13.8044 1.17871 13.8086 2.0835C13.8169 4.23755 13.821 6.38745 13.8086 8.5415C13.8003 9.72437 12.8457 10.625 11.6338 10.6292C9.1228 10.6333 6.60767 10.6292 4.09668 10.6292C3.96802 10.6292 3.86841 10.6624 3.7688 10.7454C2.85986 11.509 1.94263 12.2727 1.02954 13.0322C0.925781 13.1194 0.80957 13.2065 0.685059 13.2563C0.460938 13.3477 0.195312 13.2522 0.0541992 12.9949C0.0334473 12.9534 -0.00390625 12.7749 -0.00390625 12.7334C0.000244141 9.18896 0.000244141 5.65283 0.000244141 2.1167C0.000244141 2.02954 0.0251465 1.81372 0.0292969 1.78882C0.187012 0.95874 0.664307 0.402588 1.45288 0.112061C1.58154 0.0622559 1.98828 0 2.05469 0C5.23804 0 8.42139 0 11.6047 0C11.7209 0 12.219 0.0622559 12.3477 0.10791ZM1.06274 11.6086C1.1333 11.5547 1.1748 11.5215 1.21631 11.4883C1.89282 10.9238 2.56934 10.3635 3.2417 9.79907C3.43262 9.63721 3.63599 9.5625 3.88916 9.5625C6.4458 9.56665 9.00244 9.56665 11.5591 9.56665C12.3228 9.56665 12.7502 9.13501 12.7502 8.37134C12.7502 6.3335 12.7502 4.2998 12.7502 2.26196C12.7502 1.48999 12.3228 1.0625 11.5466 1.0625C8.45459 1.0625 5.36255 1.0625 2.26636 1.0625C1.48193 1.0625 1.05859 1.48584 1.05859 2.27441C1.05859 5.3125 1.05859 8.35059 1.05859 11.3887C1.06274 11.4509 1.06274 11.509 1.06274 11.6086Z" fill="white"/>
<path d="M16.2863 16.9503C16.1825 16.888 16.0746 16.8299 15.9791 16.7552C15.2321 16.1658 14.4933 15.564 13.7462 14.9747C13.6715 14.9166 13.5595 14.8751 13.464 14.8751C11.119 14.8709 8.76991 14.8709 6.42494 14.8709C5.37489 14.8709 4.52406 14.2193 4.30824 13.2108C4.23353 12.8663 4.24598 12.4969 4.25844 12.14C4.26674 11.8702 4.53236 11.6751 4.80214 11.6876C5.07191 11.7 5.29188 11.9117 5.30433 12.1898C5.31264 12.3516 5.30848 12.5093 5.30848 12.6712C5.31263 13.3643 5.75673 13.8126 6.45399 13.8126C8.84877 13.8126 11.2477 13.8167 13.6425 13.8084C13.8873 13.8084 14.0907 13.879 14.2775 14.0325C14.7797 14.4434 15.286 14.8419 15.7924 15.2486C15.8297 15.2776 15.8712 15.3067 15.9335 15.3524C15.9335 15.2735 15.9335 15.2195 15.9335 15.1697C15.9335 12.2769 15.9335 9.37994 15.9335 6.48712C15.9335 5.7857 15.5516 5.37067 14.8544 5.31256C14.5431 5.28766 14.3231 5.04693 14.3397 4.75226C14.3563 4.45758 14.5971 4.24591 14.9125 4.25006C15.9086 4.26251 16.7926 5.01788 16.9628 6.00153C16.9669 6.03888 16.996 6.23395 16.996 6.2962C16.996 9.70782 16.996 13.1194 16.996 16.5269C16.996 16.5518 16.9752 16.639 16.9669 16.6556C16.8922 16.7925 16.7885 16.8921 16.6515 16.9669C16.6349 16.9752 16.5477 16.9918 16.5187 16.9918C16.4938 16.9918 16.4689 16.9918 16.4398 16.9918C16.4232 17.0001 16.3153 16.9669 16.2863 16.9503Z" fill="white"/>
<path d="M6.90653 4.25046C5.85648 4.25046 4.80229 4.25046 3.75224 4.25046C3.3455 4.25046 3.08402 3.88938 3.22514 3.53244C3.30399 3.32907 3.46171 3.21701 3.67753 3.19211C3.73148 3.18796 3.78959 3.18796 3.84355 3.18796C5.88554 3.18796 7.92753 3.18796 9.96952 3.18796C10.0484 3.18796 10.1272 3.18381 10.2019 3.20041C10.4717 3.25437 10.6543 3.50339 10.6253 3.77317C10.5962 4.04294 10.3804 4.24631 10.0982 4.25046C9.48808 4.25461 8.88212 4.25046 8.27201 4.25461C7.81547 4.25046 7.36308 4.25046 6.90653 4.25046Z" fill="white"/>
<path d="M5.8482 6.37489C5.14678 6.37489 4.44122 6.37904 3.7398 6.37489C3.32891 6.37074 3.07159 5.98475 3.2376 5.62782C3.34136 5.4037 3.53228 5.31239 3.77715 5.31239C4.93511 5.31239 6.08892 5.31239 7.24688 5.31239C7.4793 5.31239 7.71172 5.30824 7.94415 5.31239C8.26788 5.31654 8.50445 5.54066 8.50445 5.84364C8.50445 6.14662 8.26788 6.37074 7.94415 6.37074C7.24273 6.37904 6.54546 6.37489 5.8482 6.37489Z" fill="white"/>
</g>
<defs>
<clipPath id="clip0_42_1015">
<rect width="17" height="17" fill="white"/>
</clipPath>
</defs>
</svg>
