<svg width="43" height="43" viewBox="0 0 43 43" fill="none" xmlns="http://www.w3.org/2000/svg">
<path d="M13.7588 5.97461V16.9667L22.442 20.703V10.4261L13.7588 5.97461Z" fill="#723CD9"/>
<path d="M13.7588 5.97459L22.442 1.52148L31.6014 5.97459L22.442 10.4261L13.7588 5.97459Z" fill="#723CD9"/>
<path d="M31.6018 5.97461L22.4424 10.4261V20.703L31.6018 16.2033V5.97461Z" fill="#723CD9"/>
<path d="M7.19545 28.3445L14.9208 36.0698C15.5519 36.7009 15.5519 37.7242 14.9208 38.3554L12.2695 41.0067C11.6383 41.6378 10.615 41.6378 9.98382 41.0067L2.25851 33.2814C1.62737 32.6502 1.62737 31.6269 2.25851 30.9958L4.90982 28.3445C5.54096 27.7133 6.56431 27.7133 7.19545 28.3445Z" fill="#723CD9"/>
<path d="M29.4713 26.0681L36.0482 20.2575C36.8655 19.5354 38.1033 19.5737 38.8744 20.3448C39.6449 21.1154 39.6837 22.3521 38.9631 23.1694C38.9631 23.1694 32.033 31.0363 32.0182 31.0568C30.3449 33.3643 27.6403 34.6977 24.79 34.6977H17.4024C16.6914 34.6977 16.0096 34.9802 15.5068 35.4829L14.9206 36.0691L7.19531 28.3438C9.98133 25.8085 12.8968 24.5618 15.8193 24.9272C16.2197 24.9772 16.6237 24.9918 17.0271 24.9992L27.3312 25.1896C28.4999 25.1896 29.4728 26.0867 29.5676 27.2516C29.6653 28.4545 28.7942 29.5193 27.5958 29.6615L18.7719 30.7094" fill="#723CD9"/>
<path d="M32.0037 5.73666C31.9954 5.72264 31.9848 5.71063 31.9751 5.69753C31.9602 5.67737 31.9451 5.6578 31.927 5.64017C31.9147 5.62824 31.901 5.61833 31.8874 5.60775C31.8748 5.59784 31.8642 5.586 31.8504 5.57735C31.8424 5.57231 31.8333 5.57021 31.8251 5.56567C31.8186 5.56206 31.8134 5.5566 31.8066 5.55324L22.6471 1.10022C22.5149 1.0353 22.3598 1.03715 22.2287 1.10451L13.5456 5.55744C13.3966 5.6342 13.291 5.79705 13.291 5.97417V16.9663C13.291 17.1535 13.4023 17.3224 13.5742 17.3965L22.2574 21.1328C22.2938 21.1486 22.3796 21.1709 22.4425 21.1709C22.5109 21.1709 22.6002 21.1469 22.649 21.123L31.8085 16.6234C31.9687 16.5444 32.0702 16.3816 32.0702 16.203V5.97417C32.0702 5.93151 32.0636 5.88994 32.0525 5.84979C32.0488 5.83627 32.042 5.82426 32.0371 5.81107C32.0274 5.78554 32.0177 5.76018 32.0037 5.73666ZM21.9742 19.9914L14.2275 16.6582V6.74061L21.9742 10.712V19.9914ZM22.4481 9.90229L17.9379 7.5902L14.7856 5.97417L22.4481 2.04463L30.5308 5.97417L22.4481 9.90229ZM31.1337 15.9113L22.9107 19.9509V10.7187L31.1337 6.72239V15.9113Z" fill="white"/>
<path d="M7.52656 28.0135C6.71233 27.1989 5.39352 27.1984 4.57879 28.0135L1.92749 30.6648C1.11267 31.4792 1.11275 32.798 1.92749 33.6124L9.65279 41.3377C10.4651 42.15 11.7878 42.1505 12.6006 41.3377L15.2519 38.6864C16.0663 37.8723 16.0666 36.5532 15.2519 35.7388L7.52656 28.0135ZM14.5898 38.0243L11.9385 40.6756C11.4911 41.1232 10.7626 41.1232 10.315 40.6756L2.5897 32.9503C2.1419 32.5025 2.1403 31.7764 2.5897 31.327L5.24101 28.6757C5.68814 28.2289 6.41385 28.2253 6.86451 28.6757L14.5898 36.401C15.0381 36.8493 15.0383 37.5757 14.5898 38.0243Z" fill="white"/>
<path d="M35.7371 19.9061L29.3094 25.5863C28.8122 25.0544 28.1082 24.721 27.3401 24.721C16.4356 24.5129 16.5601 24.5473 15.8767 24.4625C13.3988 24.1509 10.8731 24.9286 8.37058 26.7697C8.16222 26.9227 8.11754 27.2159 8.27072 27.4241C8.42425 27.6327 8.71719 27.6772 8.92538 27.5238C11.2284 25.8298 13.5264 25.1124 15.761 25.3916C16.5261 25.4869 16.4833 25.4498 27.3314 25.6574C28.2496 25.6574 29.0264 26.3732 29.1006 27.2963C29.1053 27.3433 29.1046 27.3899 29.1046 27.4368C29.1046 28.3337 28.4328 29.0895 27.5414 29.1946L18.7164 30.2436C18.4597 30.2741 18.2761 30.507 18.3066 30.7637C18.335 31.0018 18.5372 31.1768 18.771 31.1768C18.7895 31.1768 18.8082 31.1759 18.827 31.1735L27.6516 30.1245C29.0139 29.9638 30.0411 28.8085 30.0411 27.4369C30.0411 27.3589 30.0403 27.2811 30.0333 27.2122C30.0097 26.9186 29.9362 26.6395 29.8256 26.3799L36.3567 20.6082C36.9887 20.0512 37.9495 20.0811 38.5443 20.6756C38.8464 20.9777 39.0127 21.3779 39.0127 21.8023C39.0127 22.1907 38.8702 22.5663 38.6115 22.8602C31.6773 30.7315 31.6631 30.7483 31.6578 30.7547C31.6509 30.7629 31.6443 30.7715 31.6379 30.78C30.0713 32.9402 27.5115 34.2297 24.7903 34.2297H17.4011C16.9946 34.2297 16.5821 34.3111 16.2083 34.4651C15.9692 34.5635 15.855 34.8369 15.9534 35.0763C16.028 35.2571 16.2025 35.3662 16.3866 35.3662C16.4461 35.3662 16.5065 35.355 16.5647 35.3308C16.8265 35.2233 17.1157 35.1662 17.4011 35.1662H24.7903C27.8031 35.1662 30.6397 33.7392 32.3831 31.3476C32.717 30.9678 39.2469 23.5556 39.3142 23.4791C39.7236 23.0145 39.9492 22.4188 39.9492 21.8024C39.9492 21.1277 39.6853 20.4924 39.2065 20.0135C38.2633 19.0699 36.7392 19.0227 35.7371 19.9061Z" fill="white"/>
<path d="M38.6869 1.30711C38.504 1.12419 38.2077 1.12419 38.0248 1.30711L34.9761 4.35566C34.7931 4.53858 34.7931 4.83487 34.9761 5.01779C35.0675 5.10925 35.1874 5.15494 35.3071 5.15494C35.4269 5.15494 35.5467 5.10925 35.6382 5.01779L38.6869 1.96924C38.8698 1.78633 38.8698 1.49003 38.6869 1.30711Z" fill="#723CD9"/>
<path d="M41.2145 8.07227H36.9029C36.6442 8.07227 36.4346 8.28197 36.4346 8.54056C36.4346 8.79915 36.6442 9.00886 36.9029 9.00886H41.2145C41.4731 9.00886 41.6828 8.79915 41.6828 8.54056C41.6828 8.28197 41.4731 8.07227 41.2145 8.07227Z" fill="#723CD9"/>
<path d="M34.9761 12.061C34.7931 12.2439 34.7931 12.5402 34.9761 12.7231L38.0248 15.7717C38.1162 15.8632 38.2361 15.9088 38.3558 15.9088C38.4757 15.9088 38.5954 15.8632 38.6869 15.7717C38.8698 15.5888 38.8698 15.2925 38.6869 15.1096L35.6382 12.061C35.4553 11.8781 35.159 11.8781 34.9761 12.061Z" fill="#723CD9"/>
<path d="M7.00536 15.9088C7.12521 15.9088 7.24497 15.8632 7.33643 15.7717L10.3851 12.7231C10.5681 12.5402 10.5681 12.2439 10.3851 12.061C10.2022 11.8781 9.90593 11.8781 9.72301 12.061L6.6743 15.1096C6.49138 15.2925 6.49138 15.5888 6.6743 15.7717C6.76576 15.8631 6.88552 15.9088 7.00536 15.9088Z" fill="#723CD9"/>
<path d="M8.92592 8.53861C8.92592 8.28011 8.71629 8.07031 8.45762 8.07031H4.14603C3.88736 8.07031 3.67773 8.28002 3.67773 8.53861C3.67773 8.7972 3.88736 9.00691 4.14603 9.00691H8.45762C8.71629 9.00691 8.92592 8.79711 8.92592 8.53861Z" fill="#723CD9"/>
<path d="M10.3851 4.35566L7.33643 1.30711C7.15351 1.12419 6.85722 1.12419 6.6743 1.30711C6.49138 1.49003 6.49138 1.78633 6.6743 1.96924L9.72301 5.01779C9.81447 5.10925 9.93432 5.15494 10.0541 5.15494C10.1738 5.15494 10.2937 5.10925 10.3851 5.01779C10.5681 4.83487 10.5681 4.53858 10.3851 4.35566Z" fill="#723CD9"/>
</svg>
