<svg width="38" height="38" viewBox="0 0 38 38" fill="none" xmlns="http://www.w3.org/2000/svg">
<circle cx="19" cy="19" r="19" fill="#723CD9"/>
<path d="M19.3761 9.09051C19.7047 9.28081 19.821 9.59464 19.8101 10.0109C19.8045 10.219 19.812 10.6074 19.812 10.6074C19.812 10.6074 20.2028 10.7131 20.3933 10.7628C22.6617 11.3533 24.2925 13.1955 24.5652 15.5066C24.6207 15.9773 24.5971 16.457 24.6079 16.9325C24.6233 17.6181 24.5892 18.3084 24.6601 18.988C24.7959 20.2867 25.3922 21.3751 26.3666 22.2539C26.6596 22.518 26.9157 22.7951 26.9806 23.1983C27.1119 24.0133 26.5752 24.717 25.7459 24.8168C25.6593 24.8272 25.5715 24.8298 25.4841 24.8298C21.1652 24.8306 16.8459 24.8306 12.527 24.8302C11.8425 24.8302 11.3373 24.5204 11.1081 23.964C10.8775 23.4039 11.0189 22.8066 11.5031 22.3845C12.1415 21.828 12.6429 21.1759 12.976 20.3999C13.2449 19.7729 13.3908 19.1182 13.3991 18.4375C13.4077 17.7019 13.4024 16.9663 13.4024 16.2307C13.4036 13.4007 15.3044 11.1586 18.1245 10.66C18.1425 10.6567 18.1594 10.6482 18.2033 10.6322C18.2033 10.4208 18.2157 10.2004 18.2007 9.98155C18.171 9.54197 18.3278 9.22851 18.7055 9.05342C18.7306 9.04155 18.8207 9.01335 18.8559 9.00964C18.9058 9.00445 18.9684 9 18.9996 9C19.0284 9 19.0824 9.00408 19.1327 9.00927C19.1867 9.01558 19.3364 9.06788 19.3761 9.09051Z" fill="white"/>
<path d="M16.0737 26C18.0256 26 19.9669 26 21.9087 26C21.9555 27.0012 20.627 28.1946 19.2888 28.3563C17.8328 28.5321 16.3502 27.4545 16.0737 26Z" fill="white"/>
</svg>
