<svg width="29" height="29" viewBox="0 0 29 29" fill="none" xmlns="http://www.w3.org/2000/svg">
<g clip-path="url(#clip0_4014_3030)">
<path d="M26.7344 28.9998C26.7131 26.0969 25.8069 23.4915 23.9519 21.2542C21.8916 18.7761 19.2578 17.261 16.0364 16.8716C12.3123 16.4255 9.04126 17.4663 6.25879 19.9868C3.979 22.0613 2.69043 24.6526 2.33643 27.7041C2.28687 28.136 2.28687 28.5679 2.26562 28.9998C1.50806 28.9998 0.757568 28.9998 0 28.9998C0 28.7944 0 28.5891 0 28.3909C0 28.313 0.0424805 27.9944 0.0495605 27.9094C0.148682 26.4084 0.474365 24.957 1.05493 23.5764C2.69043 19.6824 5.48706 16.9636 9.42358 15.4202C9.52271 15.3848 9.62183 15.3423 9.74927 15.2927C9.62183 15.1936 9.53687 15.137 9.45898 15.0732C7.36328 13.4236 6.22339 11.2712 6.13135 8.60205C6.07471 6.86035 6.54199 5.23901 7.51196 3.7876C8.65894 2.06714 10.2236 0.898926 12.2273 0.3396C12.6733 0.212158 13.1335 0.148438 13.5938 0.0705566C13.7141 0.0493164 14.1248 0.00683594 14.2168 0.00683594C14.3938 0.00683594 14.5708 0.00683594 14.7549 0.00683594C14.8611 0.00683594 15.2505 0.0351562 15.3354 0.0493164C15.6965 0.0917969 16.0718 0.141357 16.4258 0.233398C19.5693 1.06885 21.7004 3.03003 22.5571 6.1665C23.4563 9.44458 22.543 12.2908 20.072 14.6272C19.8313 14.8538 19.5552 15.052 19.3003 15.2644C19.3145 15.2856 19.3145 15.2998 19.3215 15.2998C19.3711 15.321 19.4207 15.3494 19.4773 15.3706C21.4385 16.0857 23.166 17.176 24.6528 18.6416C26.8547 20.8152 28.2424 23.4207 28.7805 26.4651C28.8796 27.0173 28.9363 27.5837 29.0071 28.136C29.0071 28.4192 29.0071 28.7024 29.0071 28.9856C28.2495 28.9998 27.4919 28.9998 26.7344 28.9998ZM20.6172 8.37549C20.6101 5.01245 17.863 2.27246 14.5071 2.26538C11.137 2.2583 8.37573 5.02661 8.38281 8.38965C8.38989 11.7527 11.137 14.4927 14.4929 14.4998C17.863 14.5068 20.6243 11.7385 20.6172 8.37549Z" fill="#292929"/>
</g>
<defs>
<clipPath id="clip0_4014_3030">
<rect width="29" height="29" fill="white"/>
</clipPath>
</defs>
</svg>
