<svg width="41" height="32" viewBox="0 0 41 32" fill="none" xmlns="http://www.w3.org/2000/svg">
<path d="M32.5881 31.6493C30.6437 31.1134 29.0326 29.9344 27.3659 28.8625C24.7548 27.1476 22.1438 25.3791 19.5327 23.6641C19.1993 23.4497 18.9216 23.2354 18.6438 22.9674C17.866 22.2171 17.8105 21.306 18.5327 20.5022C19.0327 19.9662 19.5882 19.5375 20.0882 19.0552C23.1993 16.1612 26.3104 13.3208 29.4215 10.4268C29.8659 9.9981 30.1992 9.40859 30.5326 8.87266C30.6437 8.71189 30.5881 8.44393 30.477 8.28315C30.3659 8.17597 30.0881 8.12237 29.9215 8.22956C29.0881 8.6047 28.2548 8.92626 27.5326 9.40859C22.7549 12.4633 18.0327 15.5717 13.2549 18.68C12.0327 19.4839 10.755 19.6983 9.36608 19.4303C7.64388 19.0552 5.97722 18.5193 4.31057 18.0369C3.42169 17.769 2.53281 17.4474 1.58837 17.1795C0.588379 16.8579 0.310604 15.8396 1.14393 15.1965C1.64393 14.7678 2.25503 14.4462 2.86614 14.1783C14.2549 9.56936 25.5326 5.06762 36.8103 0.61947C37.3659 0.351509 38.0325 0.244324 38.6436 0.244324C39.6436 0.190732 40.3103 0.833838 40.3103 1.7985C40.3103 2.70956 40.1992 3.67422 40.0325 4.58529C39.4769 8.28315 38.8658 11.981 38.2547 15.6789C37.6436 19.3767 37.0325 23.0746 36.4214 26.7189C36.2547 27.5763 36.1436 28.4338 35.977 29.2913C35.8103 30.3631 35.3659 31.2206 34.2548 31.6493C34.1437 31.7029 33.5881 31.7565 33.477 31.7565C33.4214 31.7565 32.7548 31.7029 32.5881 31.6493Z" fill="white"/>
</svg>
