<svg width="41" height="41" viewBox="0 0 41 41" fill="none" xmlns="http://www.w3.org/2000/svg">
<circle cx="20.5" cy="20.5" r="20.5" fill="#39CADD"/>
<g clip-path="url(#clip0_43_4373)">
<path d="M25.8947 28.9419C24.8609 28.6528 24.0044 28.0167 23.1183 27.4385C21.7301 26.5133 20.3419 25.5593 18.9537 24.6341C18.7765 24.5184 18.6288 24.4028 18.4812 24.2582C18.0677 23.8535 18.0381 23.362 18.4221 22.9283C18.6879 22.6392 18.9833 22.4079 19.2491 22.1477C20.9031 20.5865 22.5571 19.0541 24.2111 17.4929C24.4474 17.2616 24.6246 16.9436 24.8018 16.6545C24.8609 16.5678 24.8314 16.4232 24.7723 16.3365C24.7132 16.2786 24.5656 16.2497 24.4769 16.3075C24.0339 16.5099 23.5909 16.6834 23.2069 16.9436C20.6668 18.5916 18.1563 20.2684 15.6162 21.9453C14.9664 22.379 14.2871 22.4946 13.5487 22.3501C12.6331 22.1477 11.747 21.8586 10.8609 21.5984C10.3883 21.4538 9.91576 21.2803 9.41365 21.1358C8.88201 20.9623 8.73433 20.413 9.17737 20.0661C9.44319 19.8348 9.76808 19.6613 10.093 19.5167C16.1478 17.0303 22.1436 14.6018 28.1394 12.2021C28.4348 12.0575 28.7892 11.9997 29.1141 11.9997C29.6457 11.9708 30.0002 12.3178 30.0002 12.8382C30.0002 13.3297 29.9411 13.8501 29.8525 14.3416C29.5571 16.3365 29.2322 18.3314 28.9073 20.3263C28.5824 22.3212 28.2575 24.3161 27.9326 26.282C27.844 26.7446 27.785 27.2072 27.6964 27.6698C27.6077 28.248 27.3715 28.7106 26.7807 28.9419C26.7217 28.9708 26.4263 28.9997 26.3672 28.9997C26.3377 28.9997 25.9833 28.9708 25.8947 28.9419Z" fill="#292929"/>
</g>
<defs>
<clipPath id="clip0_43_4373">
<rect width="21" height="17" fill="white" transform="translate(9 12)"/>
</clipPath>
</defs>
</svg>
