<svg width="197" height="39" viewBox="0 0 197 39" fill="none" xmlns="http://www.w3.org/2000/svg">
<path d="M40.338 29.722C40.338 30.8327 40.2727 31.71 40.142 32.354C40.0207 32.998 39.7967 33.5253 39.47 33.936C39.1433 34.356 38.7187 34.65 38.196 34.818C37.6733 34.986 36.964 35.07 36.068 35.07C35.172 35.07 34.458 34.986 33.926 34.818C33.4033 34.65 32.9787 34.356 32.652 33.936C32.3347 33.516 32.1107 32.984 31.98 32.34C31.8587 31.696 31.798 30.8233 31.798 29.722C31.798 27.622 32.0873 26.1987 32.666 25.452C33.2447 24.7053 34.3787 24.332 36.068 24.332C37.7573 24.332 38.8913 24.7053 39.47 25.452C40.0487 26.1987 40.338 27.622 40.338 29.722ZM33.226 29.722C33.226 31.3647 33.4033 32.4613 33.758 33.012C34.1033 33.5533 34.8733 33.824 36.068 33.824C37.2627 33.824 38.0327 33.5533 38.378 33.012C38.7327 32.4613 38.91 31.3647 38.91 29.722C38.91 28.826 38.8727 28.14 38.798 27.664C38.7327 27.188 38.5973 26.7867 38.392 26.46C38.196 26.124 37.916 25.8953 37.552 25.774C37.1973 25.6433 36.7027 25.578 36.068 25.578C35.4333 25.578 34.9387 25.6433 34.584 25.774C34.2293 25.8953 33.9447 26.124 33.73 26.46C33.534 26.796 33.3987 27.2067 33.324 27.692C33.2587 28.168 33.226 28.8447 33.226 29.722ZM45.2049 27.272C45.9235 27.272 46.4509 27.3047 46.7869 27.37C47.1602 27.426 47.4822 27.5707 47.7529 27.804C48.0235 28.0187 48.2055 28.336 48.2989 28.756C48.4015 29.1667 48.4529 29.764 48.4529 30.548V34.79C48.4529 34.93 48.3735 35 48.2149 35H47.3189C47.1789 35 47.1089 34.93 47.1089 34.79V30.66C47.1089 29.9133 47.0342 29.3487 46.8849 28.966C46.8195 28.798 46.7029 28.6813 46.5349 28.616C46.2922 28.504 45.8955 28.448 45.3449 28.448H43.4269V34.79C43.4269 34.93 43.3569 35 43.2169 35H42.2929C42.1529 35 42.0829 34.93 42.0829 34.79V27.72C42.0829 27.664 42.0922 27.622 42.1109 27.594C42.1295 27.5567 42.1482 27.5333 42.1669 27.524C42.1949 27.5147 42.2369 27.5053 42.2929 27.496C43.0395 27.3467 44.0102 27.272 45.2049 27.272ZM50.5373 24.402H51.4613C51.6013 24.402 51.6713 24.472 51.6713 24.612V34.79C51.6713 34.93 51.6013 35 51.4613 35H50.5373C50.3973 35 50.3273 34.93 50.3273 34.79V24.612C50.3273 24.472 50.3973 24.402 50.5373 24.402ZM55.1066 25.102C55.1066 25.6527 54.8312 25.928 54.2806 25.928C53.7299 25.928 53.4546 25.6527 53.4546 25.102C53.4546 24.5607 53.7299 24.29 54.2806 24.29C54.8312 24.29 55.1066 24.5607 55.1066 25.102ZM53.8186 27.342H54.7426C54.8826 27.342 54.9526 27.412 54.9526 27.552V34.79C54.9526 34.93 54.8826 35 54.7426 35H53.8186C53.6786 35 53.6086 34.93 53.6086 34.79V27.552C53.6086 27.412 53.6786 27.342 53.8186 27.342ZM59.9978 27.272C60.7165 27.272 61.2438 27.3047 61.5798 27.37C61.9532 27.426 62.2752 27.5707 62.5458 27.804C62.8165 28.0187 62.9985 28.336 63.0918 28.756C63.1945 29.1667 63.2458 29.764 63.2458 30.548V34.79C63.2458 34.93 63.1665 35 63.0078 35H62.1118C61.9718 35 61.9018 34.93 61.9018 34.79V30.66C61.9018 29.9133 61.8272 29.3487 61.6778 28.966C61.6125 28.798 61.4958 28.6813 61.3278 28.616C61.0852 28.504 60.6885 28.448 60.1378 28.448H58.2198V34.79C58.2198 34.93 58.1498 35 58.0098 35H57.0858C56.9458 35 56.8758 34.93 56.8758 34.79V27.72C56.8758 27.664 56.8852 27.622 56.9038 27.594C56.9225 27.5567 56.9412 27.5333 56.9598 27.524C56.9878 27.5147 57.0298 27.5053 57.0858 27.496C57.8325 27.3467 58.8032 27.272 59.9978 27.272ZM68.0743 27.272C69.3156 27.272 70.1416 27.5193 70.5523 28.014C70.9723 28.518 71.187 29.5027 71.1963 30.968V31.374C71.1963 31.5233 71.159 31.626 71.0843 31.682C71.019 31.738 70.8883 31.766 70.6923 31.766H66.2403C66.259 32.6247 66.385 33.194 66.6183 33.474C66.861 33.754 67.3556 33.894 68.1023 33.894H70.3983C70.5383 33.894 70.6083 33.964 70.6083 34.104V34.72C70.6083 34.8507 70.543 34.9253 70.4123 34.944C69.7963 35.028 69.017 35.07 68.0743 35.07C66.7676 35.07 65.909 34.818 65.4983 34.314C65.0876 33.7913 64.8823 32.746 64.8823 31.178C64.8823 29.61 65.0876 28.5647 65.4983 28.042C65.8996 27.5287 66.7583 27.272 68.0743 27.272ZM68.0743 28.448C67.337 28.448 66.847 28.5973 66.6043 28.896C66.3616 29.1947 66.2356 29.7873 66.2263 30.674H69.8523C69.843 29.778 69.7216 29.1807 69.4883 28.882C69.2643 28.5927 68.793 28.448 68.0743 28.448ZM78.9317 27.272C79.7251 27.272 80.4297 27.314 81.0457 27.398C81.1764 27.4167 81.2417 27.496 81.2417 27.636V28.238C81.2417 28.378 81.1717 28.448 81.0317 28.448H78.9317C78.1011 28.448 77.5737 28.6207 77.3497 28.966C77.1257 29.3113 77.0137 30.0487 77.0137 31.178C77.0137 32.2887 77.1257 33.0213 77.3497 33.376C77.5737 33.7213 78.1011 33.894 78.9317 33.894H81.0317C81.1717 33.894 81.2417 33.964 81.2417 34.104V34.706C81.2417 34.846 81.1764 34.9253 81.0457 34.944C80.4297 35.028 79.7251 35.07 78.9317 35.07C78.2037 35.07 77.6391 35.014 77.2377 34.902C76.8457 34.79 76.5284 34.5847 76.2857 34.286C76.0431 33.9873 75.8797 33.6093 75.7957 33.152C75.7117 32.6947 75.6697 32.0367 75.6697 31.178C75.6697 29.946 75.7911 29.0407 76.0337 28.462C76.2391 28.014 76.5564 27.7107 76.9857 27.552C77.4151 27.384 78.0637 27.2907 78.9317 27.272ZM85.6563 27.272C86.8977 27.272 87.7237 27.5193 88.1343 28.014C88.5543 28.518 88.769 29.5027 88.7783 30.968V31.374C88.7783 31.5233 88.7457 31.626 88.6803 31.682C88.615 31.738 88.475 31.766 88.2603 31.766H83.8083C83.8363 32.634 83.967 33.2033 84.2003 33.474C84.443 33.754 84.9377 33.894 85.6843 33.894H87.9803C88.1203 33.894 88.1903 33.964 88.1903 34.104V34.72C88.1903 34.8507 88.125 34.9253 87.9943 34.944C87.3783 35.028 86.599 35.07 85.6563 35.07C84.3497 35.07 83.491 34.818 83.0803 34.314C82.6697 33.7913 82.4643 32.746 82.4643 31.178C82.4643 29.61 82.6697 28.5647 83.0803 28.042C83.4817 27.5287 84.3403 27.272 85.6563 27.272ZM85.6563 28.448C84.919 28.448 84.429 28.5973 84.1863 28.896C83.9437 29.1947 83.8177 29.7873 83.8083 30.674H87.4343C87.425 29.778 87.3037 29.1807 87.0703 28.882C86.8463 28.5927 86.375 28.448 85.6563 28.448ZM93.4256 27.272C94.7602 27.272 95.6376 27.5287 96.0576 28.042C96.4776 28.5647 96.6876 29.6053 96.6876 31.164C96.6876 32.732 96.4822 33.7773 96.0716 34.3C95.6702 34.8133 94.8116 35.07 93.4956 35.07C92.7489 35.07 92.1329 35.042 91.6476 34.986V37.562C91.6476 37.702 91.5776 37.772 91.4376 37.772H90.5136C90.3736 37.772 90.3036 37.702 90.3036 37.562V27.748C90.3036 27.6173 90.3782 27.538 90.5276 27.51C91.5542 27.3513 92.5202 27.272 93.4256 27.272ZM93.4396 28.448H91.6476V33.782C92.2916 33.8567 92.8796 33.894 93.4116 33.894C94.2516 33.894 94.7836 33.726 95.0076 33.39C95.2409 33.0447 95.3576 32.3073 95.3576 31.178C95.3576 30.0487 95.2456 29.3113 95.0216 28.966C94.7976 28.6207 94.2702 28.448 93.4396 28.448ZM101.45 27.272C102.495 27.272 103.247 27.4353 103.704 27.762C104.161 28.0887 104.39 28.644 104.39 29.428C104.39 29.96 104.306 30.3613 104.138 30.632C103.97 30.9027 103.695 31.0753 103.312 31.15V31.178C103.769 31.234 104.096 31.4067 104.292 31.696C104.488 31.9853 104.586 32.41 104.586 32.97C104.586 33.7353 104.362 34.2767 103.914 34.594C103.475 34.9113 102.757 35.07 101.758 35.07C100.162 35.07 99.098 35.0373 98.566 34.972C98.4446 34.9627 98.384 34.902 98.384 34.79V27.552C98.384 27.44 98.4446 27.3793 98.566 27.37C99.322 27.3047 100.283 27.272 101.45 27.272ZM101.324 28.49H99.784V30.674H101.002C101.786 30.674 102.313 30.6133 102.584 30.492C102.864 30.3613 103.004 30.0673 103.004 29.61C103.004 29.19 102.873 28.9007 102.612 28.742C102.36 28.574 101.931 28.49 101.324 28.49ZM101.744 31.696H99.784V33.852H101.73C102.271 33.852 102.654 33.7773 102.878 33.628C103.102 33.4787 103.214 33.208 103.214 32.816C103.214 32.3867 103.097 32.0927 102.864 31.934C102.64 31.7753 102.267 31.696 101.744 31.696ZM112.014 27.342H112.868C112.98 27.342 113.036 27.3933 113.036 27.496V34.846C113.036 34.9487 112.98 35 112.868 35H111.804C111.692 35 111.636 34.9487 111.636 34.846V29.596L107.632 34.776C107.52 34.9253 107.366 35 107.17 35H106.386C106.274 35 106.218 34.9487 106.218 34.846V27.496C106.218 27.3933 106.274 27.342 106.386 27.342H107.45C107.562 27.342 107.618 27.3933 107.618 27.496V32.536L111.37 27.664C111.463 27.5333 111.547 27.4493 111.622 27.412C111.706 27.3653 111.837 27.342 112.014 27.342ZM118.006 27.272C118.799 27.272 119.504 27.314 120.12 27.398C120.251 27.4167 120.316 27.496 120.316 27.636V28.238C120.316 28.378 120.246 28.448 120.106 28.448H118.006C117.175 28.448 116.648 28.6207 116.424 28.966C116.2 29.3113 116.088 30.0487 116.088 31.178C116.088 32.2887 116.2 33.0213 116.424 33.376C116.648 33.7213 117.175 33.894 118.006 33.894H120.106C120.246 33.894 120.316 33.964 120.316 34.104V34.706C120.316 34.846 120.251 34.9253 120.12 34.944C119.504 35.028 118.799 35.07 118.006 35.07C117.278 35.07 116.713 35.014 116.312 34.902C115.92 34.79 115.603 34.5847 115.36 34.286C115.117 33.9873 114.954 33.6093 114.87 33.152C114.786 32.6947 114.744 32.0367 114.744 31.178C114.744 29.946 114.865 29.0407 115.108 28.462C115.313 28.014 115.631 27.7107 116.06 27.552C116.489 27.384 117.138 27.2907 118.006 27.272ZM125.327 24.402H131.879C132.019 24.402 132.089 24.472 132.089 24.612V25.438C132.089 25.578 132.019 25.648 131.879 25.648H126.531V29.246H131.403C131.543 29.246 131.613 29.316 131.613 29.456V30.268C131.613 30.408 131.543 30.478 131.403 30.478H126.531V33.754H131.879C132.019 33.754 132.089 33.824 132.089 33.964V34.79C132.089 34.93 132.019 35 131.879 35H125.327C125.187 35 125.117 34.93 125.117 34.79V24.612C125.117 24.472 125.187 24.402 125.327 24.402ZM136.329 27.272C137.057 27.272 137.771 27.314 138.471 27.398C138.602 27.4167 138.667 27.4913 138.667 27.622V28.224C138.667 28.364 138.597 28.434 138.457 28.434H135.853C135.172 28.434 134.831 28.6767 134.831 29.162V29.344C134.831 29.7827 135.121 30.1093 135.699 30.324L137.561 31.066C138.112 31.2807 138.481 31.5373 138.667 31.836C138.863 32.1347 138.961 32.536 138.961 33.04V33.194C138.961 33.9407 138.742 34.44 138.303 34.692C137.865 34.944 137.141 35.07 136.133 35.07C135.144 35.07 134.29 35.028 133.571 34.944C133.431 34.9253 133.361 34.8553 133.361 34.734V34.118C133.361 33.978 133.431 33.908 133.571 33.908H136.161C136.74 33.908 137.127 33.8613 137.323 33.768C137.529 33.6747 137.631 33.4787 137.631 33.18V33.012C137.631 32.7973 137.571 32.62 137.449 32.48C137.337 32.34 137.127 32.2047 136.819 32.074L134.831 31.318C133.935 30.9727 133.487 30.3053 133.487 29.316V29.022C133.487 28.2847 133.777 27.7993 134.355 27.566C134.859 27.37 135.517 27.272 136.329 27.272ZM141.067 25.452L141.991 25.228C142.15 25.1813 142.229 25.242 142.229 25.41V27.356H143.699C143.848 27.356 143.923 27.426 143.923 27.566V28.224C143.923 28.364 143.848 28.434 143.699 28.434H142.229V33.138C142.229 33.446 142.285 33.6513 142.397 33.754C142.518 33.8473 142.766 33.894 143.139 33.894H143.811C143.96 33.894 144.035 33.9593 144.035 34.09V34.762C144.035 34.8833 143.965 34.958 143.825 34.986C143.601 35.042 143.34 35.07 143.041 35.07C142.556 35.07 142.159 35.0327 141.851 34.958C141.534 34.8833 141.3 34.734 141.151 34.51C141.002 34.286 140.913 33.9407 140.885 33.474V28.434H140.101C139.961 28.434 139.891 28.364 139.891 28.224V27.566C139.891 27.426 139.961 27.356 140.101 27.356H140.885V25.676C140.885 25.5547 140.946 25.48 141.067 25.452ZM149.38 24.332C150.491 24.332 151.359 24.3787 151.984 24.472C152.134 24.4813 152.208 24.5607 152.208 24.71V25.368C152.208 25.508 152.138 25.578 151.998 25.578H149.38C148.195 25.578 147.425 25.8533 147.07 26.404C146.716 26.9547 146.538 28.056 146.538 29.708C146.538 31.3507 146.716 32.4473 147.07 32.998C147.425 33.5487 148.195 33.824 149.38 33.824H151.998C152.138 33.824 152.208 33.894 152.208 34.034V34.692C152.208 34.832 152.134 34.916 151.984 34.944C151.378 35.028 150.51 35.07 149.38 35.07C148.484 35.07 147.775 34.986 147.252 34.818C146.73 34.65 146.305 34.356 145.978 33.936C145.661 33.5253 145.437 32.998 145.306 32.354C145.185 31.7007 145.124 30.8187 145.124 29.708C145.124 28.5973 145.185 27.72 145.306 27.076C145.437 26.4227 145.661 25.8907 145.978 25.48C146.296 25.0507 146.716 24.752 147.238 24.584C147.77 24.416 148.484 24.332 149.38 24.332ZM154.799 27.44C155.21 27.328 155.76 27.272 156.451 27.272C157.151 27.272 157.702 27.328 158.103 27.44C158.924 27.6453 159.414 28.2473 159.573 29.246C159.657 29.7033 159.699 30.3473 159.699 31.178C159.699 31.9993 159.657 32.648 159.573 33.124C159.414 34.0853 158.924 34.6827 158.103 34.916C157.674 35.0187 157.123 35.07 156.451 35.07C155.77 35.07 155.214 35.0187 154.785 34.916C153.982 34.692 153.492 34.0947 153.315 33.124C153.231 32.648 153.189 31.9993 153.189 31.178C153.189 30.3473 153.231 29.7033 153.315 29.246C153.492 28.2473 153.987 27.6453 154.799 27.44ZM156.451 28.448C155.62 28.448 155.093 28.6207 154.869 28.966C154.645 29.3113 154.533 30.0487 154.533 31.178C154.533 32.2887 154.645 33.0213 154.869 33.376C155.093 33.7213 155.62 33.894 156.451 33.894C157.272 33.894 157.795 33.7213 158.019 33.376C158.243 33.0213 158.355 32.2887 158.355 31.178C158.355 30.0487 158.243 29.3113 158.019 28.966C157.795 28.6207 157.272 28.448 156.451 28.448ZM164.506 27.272C165.224 27.272 165.752 27.3047 166.088 27.37C166.461 27.426 166.783 27.5707 167.054 27.804C167.324 28.0187 167.506 28.336 167.6 28.756C167.702 29.1667 167.754 29.764 167.754 30.548V34.79C167.754 34.93 167.674 35 167.516 35H166.62C166.48 35 166.41 34.93 166.41 34.79V30.66C166.41 29.9133 166.335 29.3487 166.186 28.966C166.12 28.798 166.004 28.6813 165.836 28.616C165.593 28.504 165.196 28.448 164.646 28.448H162.728V34.79C162.728 34.93 162.658 35 162.518 35H161.594C161.454 35 161.384 34.93 161.384 34.79V27.72C161.384 27.664 161.393 27.622 161.412 27.594C161.43 27.5567 161.449 27.5333 161.468 27.524C161.496 27.5147 161.538 27.5053 161.594 27.496C162.34 27.3467 163.311 27.272 164.506 27.272ZM172.736 27.272C173.455 27.272 173.982 27.3047 174.318 27.37C174.691 27.426 175.013 27.5707 175.284 27.804C175.555 28.0187 175.737 28.336 175.83 28.756C175.933 29.1667 175.984 29.764 175.984 30.548V34.79C175.984 34.93 175.905 35 175.746 35H174.85C174.71 35 174.64 34.93 174.64 34.79V30.66C174.64 29.9133 174.565 29.3487 174.416 28.966C174.351 28.798 174.234 28.6813 174.066 28.616C173.823 28.504 173.427 28.448 172.876 28.448H170.958V34.79C170.958 34.93 170.888 35 170.748 35H169.824C169.684 35 169.614 34.93 169.614 34.79V27.72C169.614 27.664 169.623 27.622 169.642 27.594C169.661 27.5567 169.679 27.5333 169.698 27.524C169.726 27.5147 169.768 27.5053 169.824 27.496C170.571 27.3467 171.541 27.272 172.736 27.272ZM180.813 27.272C182.054 27.272 182.88 27.5193 183.291 28.014C183.711 28.518 183.925 29.5027 183.935 30.968V31.374C183.935 31.5233 183.897 31.626 183.823 31.682C183.757 31.738 183.627 31.766 183.431 31.766H178.979C178.997 32.6247 179.123 33.194 179.357 33.474C179.599 33.754 180.094 33.894 180.841 33.894H183.137C183.277 33.894 183.347 33.964 183.347 34.104V34.72C183.347 34.8507 183.281 34.9253 183.151 34.944C182.535 35.028 181.755 35.07 180.813 35.07C179.506 35.07 178.647 34.818 178.237 34.314C177.826 33.7913 177.621 32.746 177.621 31.178C177.621 29.61 177.826 28.5647 178.237 28.042C178.638 27.5287 179.497 27.272 180.813 27.272ZM180.813 28.448C180.075 28.448 179.585 28.5973 179.343 28.896C179.1 29.1947 178.974 29.7873 178.965 30.674H182.591C182.581 29.778 182.46 29.1807 182.227 28.882C182.003 28.5927 181.531 28.448 180.813 28.448ZM188.498 27.272C189.3 27.272 190.01 27.314 190.626 27.398C190.756 27.4167 190.822 27.496 190.822 27.636V28.238C190.822 28.378 190.752 28.448 190.612 28.448H188.498C187.676 28.448 187.154 28.6207 186.93 28.966C186.706 29.3113 186.594 30.0487 186.594 31.178C186.594 32.2887 186.706 33.0213 186.93 33.376C187.154 33.7213 187.676 33.894 188.498 33.894H190.612C190.752 33.894 190.822 33.964 190.822 34.104V34.706C190.822 34.846 190.756 34.9253 190.626 34.944C190.01 35.028 189.3 35.07 188.498 35.07C187.77 35.07 187.205 35.014 186.804 34.902C186.412 34.79 186.094 34.5847 185.852 34.286C185.618 33.9873 185.46 33.6093 185.376 33.152C185.292 32.6947 185.25 32.0367 185.25 31.178C185.25 30.3193 185.292 29.6613 185.376 29.204C185.46 28.7467 185.618 28.3687 185.852 28.07C186.094 27.762 186.412 27.552 186.804 27.44C187.205 27.328 187.77 27.272 188.498 27.272ZM192.842 25.452L193.766 25.228C193.925 25.1813 194.004 25.242 194.004 25.41V27.356H195.474C195.624 27.356 195.698 27.426 195.698 27.566V28.224C195.698 28.364 195.624 28.434 195.474 28.434H194.004V33.138C194.004 33.446 194.06 33.6513 194.172 33.754C194.294 33.8473 194.541 33.894 194.914 33.894H195.586C195.736 33.894 195.81 33.9593 195.81 34.09V34.762C195.81 34.8833 195.74 34.958 195.6 34.986C195.376 35.042 195.115 35.07 194.816 35.07C194.331 35.07 193.934 35.0327 193.626 34.958C193.309 34.8833 193.076 34.734 192.926 34.51C192.777 34.286 192.688 33.9407 192.66 33.474V28.434H191.876C191.736 28.434 191.666 28.364 191.666 28.224V27.566C191.666 27.426 191.736 27.356 191.876 27.356H192.66V25.676C192.66 25.5547 192.721 25.48 192.842 25.452Z" fill="#292929"/>
<path fill-rule="evenodd" clip-rule="evenodd" d="M60.4562 14.4266C60.4562 7.13911 49.5013 10.7766 49.5013 7.28859C49.5013 6.16744 50.9125 5.33281 53.0911 5.33281C55.084 5.33281 56.7179 6.31693 56.9903 7.53774H60.1963C59.9487 4.68504 57.1141 2.7168 53.0911 2.7168C49.2785 2.7168 46.4067 4.42343 46.4067 7.20139C46.4067 14.4017 57.3616 10.5773 57.3616 14.3269C57.3616 15.5477 55.8762 16.4446 53.7719 16.4446C51.519 16.4446 49.7613 15.473 49.4271 13.9657H46.1963C46.4191 17.0675 49.6499 19.1479 53.809 19.1479C57.9558 19.1603 60.4562 17.0426 60.4562 14.4266Z" fill="#5B86E5"/>
<path fill-rule="evenodd" clip-rule="evenodd" d="M67.0292 18.8243H70.1238V5.96845H75.5703V3.06592H61.5331V5.96845H67.0292V18.8243Z" fill="#5B86E5"/>
<path fill-rule="evenodd" clip-rule="evenodd" d="M79.618 10.9637C79.618 7.86186 81.8585 5.74414 85.015 5.74414C87.2679 5.74414 89.0256 6.77809 89.8674 8.50964H93.1477C92.1698 4.97179 89.0133 2.72949 85.0274 2.72949C80.1503 2.72949 76.5234 6.21751 76.5234 10.9637C76.5234 15.6476 80.1751 19.1606 85.0274 19.1606C89.0133 19.1606 92.1945 16.9058 93.1477 13.3804H89.8674C89.0009 15.087 87.2555 16.1459 85.015 16.1459C81.8833 16.1459 79.618 14.0033 79.618 10.9637Z" fill="#5B86E5"/>
<path fill-rule="evenodd" clip-rule="evenodd" d="M116.444 8.3104L126.049 18.8243H128.55V3.06592H125.443V13.5051L115.813 3.06592H113.337V18.8243H116.444V8.3104Z" fill="#5B86E5"/>
<path fill-rule="evenodd" clip-rule="evenodd" d="M134.43 8.3104L144.048 18.8243H146.548V3.06592H143.441V13.5051L133.811 3.06592H131.335V18.8243H134.43V8.3104Z" fill="#5B86E5"/>
<path d="M162.133 15.8965H149.333V18.8239H162.133V15.8965Z" fill="#5B86E5"/>
<path fill-rule="evenodd" clip-rule="evenodd" d="M167.22 10.9637C167.22 7.86186 169.461 5.74414 172.617 5.74414C174.87 5.74414 176.628 6.77809 177.469 8.50964H180.75C179.772 4.97179 176.615 2.72949 172.63 2.72949C167.752 2.72949 164.126 6.21751 164.126 10.9637C164.126 15.6476 167.777 19.1606 172.63 19.1606C176.615 19.1606 179.797 16.9058 180.75 13.3804H177.469C176.603 15.087 174.858 16.1459 172.617 16.1459C169.473 16.1459 167.22 14.0033 167.22 10.9637Z" fill="#5B86E5"/>
<path fill-rule="evenodd" clip-rule="evenodd" d="M187.459 18.8243H190.554V5.96845H196V3.06592H181.963V5.96845H187.459V18.8243Z" fill="#5B86E5"/>
<path d="M44.0548 15.5605H31.2556V18.488H44.0548V15.5605Z" fill="#5B86E5"/>
<path fill-rule="evenodd" clip-rule="evenodd" d="M17.305 11.8979H4.80283V15.3611H17.3174V15.4358C17.3174 16.8933 16.1538 18.0892 14.7303 18.0892H5.9664C4.54288 18.0892 3.36693 16.8933 3.36693 15.4233V11.8979H0V17.6158C0 19.7834 1.73298 21.5647 3.84969 21.5647H16.847C18.9637 21.5647 20.6967 19.7834 20.6967 17.6158V11.8979H17.305Z" fill="url(#paint0_linear_8004_1958)"/>
<path fill-rule="evenodd" clip-rule="evenodd" d="M17.305 6.52889H4.80283V9.99199H20.6843V4.27413C20.6843 2.10658 18.9514 0.325195 16.8347 0.325195H3.83731C1.73298 0.325195 0 2.10658 0 4.27413V9.99199H3.37931V6.45414C3.37931 4.99665 4.54288 3.80076 5.97878 3.80076H14.7303C16.1538 3.80076 17.3174 4.99665 17.3174 6.45414V6.52889H17.305Z" fill="url(#paint1_linear_8004_1958)"/>
<path d="M43.5597 9.14502H31.2556V12.0475H43.5597V9.14502Z" fill="#5B86E5"/>
<path d="M44.0548 2.72949H31.2556V5.63202H44.0548V2.72949Z" fill="#5B86E5"/>
<path d="M161.637 9.48145H149.333V12.384H161.637V9.48145Z" fill="#5B86E5"/>
<path d="M162.133 3.06592H149.333V5.96845H162.133V3.06592Z" fill="#5B86E5"/>
<path fill-rule="evenodd" clip-rule="evenodd" d="M102.716 2.72949C97.8391 2.72949 94.2122 6.21751 94.2122 10.9637C94.2122 15.6476 97.8639 19.1606 102.716 19.1606C107.569 19.1606 111.195 15.8345 111.195 10.9637C111.195 6.04311 107.556 2.72949 102.716 2.72949ZM102.716 16.1459C99.5721 16.1459 97.3192 14.0033 97.3192 10.9637C97.3192 7.86186 99.5597 5.74414 102.716 5.74414C105.922 5.74414 108.088 7.86186 108.088 10.9637C108.088 14.0033 105.922 16.1459 102.716 16.1459Z" fill="#5B86E5"/>
<defs>
<linearGradient id="paint0_linear_8004_1958" x1="0" y1="16.7321" x2="20.6872" y2="16.7321" gradientUnits="userSpaceOnUse">
<stop stop-color="#39CADD"/>
<stop offset="1" stop-color="#4BA7E1"/>
</linearGradient>
<linearGradient id="paint1_linear_8004_1958" x1="0" y1="5.1576" x2="20.6872" y2="5.1576" gradientUnits="userSpaceOnUse">
<stop stop-color="#39CADD"/>
<stop offset="1" stop-color="#4BA7E1"/>
</linearGradient>
</defs>
</svg>
