<svg width="196" height="22" viewBox="0 0 196 22" fill="none" xmlns="http://www.w3.org/2000/svg">
<path fill-rule="evenodd" clip-rule="evenodd" d="M60.4562 14.1014C60.4562 6.81391 49.5013 10.4514 49.5013 6.9634C49.5013 5.84225 50.9125 5.00762 53.0911 5.00762C55.084 5.00762 56.718 5.99174 56.9903 7.21254H60.1963C59.9487 4.35984 57.1141 2.3916 53.0911 2.3916C49.2785 2.3916 46.4067 4.09824 46.4067 6.8762C46.4067 14.0765 57.3616 10.2521 57.3616 14.0017C57.3616 15.2225 55.8762 16.1194 53.7719 16.1194C51.519 16.1194 49.7613 15.1478 49.4271 13.6405H46.1963C46.4191 16.7423 49.6499 18.8227 53.809 18.8227C57.9558 18.8351 60.4562 16.7174 60.4562 14.1014Z" fill="#5B86E5"/>
<path fill-rule="evenodd" clip-rule="evenodd" d="M67.0292 18.4986H70.1238V5.64276H75.5703V2.74023H61.5331V5.64276H67.0292V18.4986Z" fill="#5B86E5"/>
<path fill-rule="evenodd" clip-rule="evenodd" d="M79.618 10.6385C79.618 7.53667 81.8585 5.41894 85.015 5.41894C87.2679 5.41894 89.0256 6.45289 89.8674 8.18444H93.1476C92.1698 4.64659 89.0133 2.4043 85.0274 2.4043C80.1503 2.4043 76.5234 5.89232 76.5234 10.6385C76.5234 15.3224 80.1751 18.8354 85.0274 18.8354C89.0133 18.8354 92.1945 16.5806 93.1476 13.0552H89.8674C89.0009 14.7618 87.2555 15.8207 85.015 15.8207C81.8833 15.8207 79.618 13.6781 79.618 10.6385Z" fill="#5B86E5"/>
<path fill-rule="evenodd" clip-rule="evenodd" d="M116.444 7.98472L126.05 18.4986H128.55V2.74023H125.443V13.1794L115.813 2.74023H113.337V18.4986H116.444V7.98472Z" fill="#5B86E5"/>
<path fill-rule="evenodd" clip-rule="evenodd" d="M134.43 7.98472L144.048 18.4986H146.548V2.74023H143.441V13.1794L133.811 2.74023H131.335V18.4986H134.43V7.98472Z" fill="#5B86E5"/>
<path d="M162.133 15.5713H149.333V18.4987H162.133V15.5713Z" fill="#5B86E5"/>
<path fill-rule="evenodd" clip-rule="evenodd" d="M167.22 10.6385C167.22 7.53667 169.461 5.41894 172.617 5.41894C174.87 5.41894 176.628 6.45289 177.469 8.18444H180.75C179.772 4.64659 176.615 2.4043 172.63 2.4043C167.752 2.4043 164.126 5.89232 164.126 10.6385C164.126 15.3224 167.777 18.8354 172.63 18.8354C176.615 18.8354 179.797 16.5806 180.75 13.0552H177.469C176.603 14.7618 174.858 15.8207 172.617 15.8207C169.473 15.8207 167.22 13.6781 167.22 10.6385Z" fill="#5B86E5"/>
<path fill-rule="evenodd" clip-rule="evenodd" d="M187.459 18.4986H190.553V5.64276H196V2.74023H181.963V5.64276H187.459V18.4986Z" fill="#5B86E5"/>
<path d="M44.0548 15.2354H31.2555V18.1628H44.0548V15.2354Z" fill="#5B86E5"/>
<path fill-rule="evenodd" clip-rule="evenodd" d="M17.305 11.5723H4.80283V15.0354H17.3174V15.1101C17.3174 16.5676 16.1538 17.7635 14.7303 17.7635H5.9664C4.54288 17.7635 3.36693 16.5676 3.36693 15.0977V11.5723H0V17.2901C0 19.4577 1.73298 21.2391 3.84969 21.2391H16.847C18.9637 21.2391 20.6967 19.4577 20.6967 17.2901V11.5723H17.305Z" fill="url(#paint0_linear_29_557)"/>
<path fill-rule="evenodd" clip-rule="evenodd" d="M17.305 6.20369H4.80283V9.66679H20.6843V3.94894C20.6843 1.78138 18.9514 0 16.8347 0H3.83731C1.73298 0 0 1.78138 0 3.94894V9.66679H3.37931V6.12895C3.37931 4.67145 4.54288 3.47556 5.97878 3.47556H14.7303C16.1538 3.47556 17.3174 4.67145 17.3174 6.12895V6.20369H17.305Z" fill="url(#paint1_linear_29_557)"/>
<path d="M43.5597 8.81934H31.2555V11.7219H43.5597V8.81934Z" fill="#5B86E5"/>
<path d="M44.0548 2.4043H31.2555V5.30683H44.0548V2.4043Z" fill="#5B86E5"/>
<path d="M161.637 9.15625H149.333V12.0588H161.637V9.15625Z" fill="#5B86E5"/>
<path d="M162.133 2.74023H149.333V5.64276H162.133V2.74023Z" fill="#5B86E5"/>
<path fill-rule="evenodd" clip-rule="evenodd" d="M102.716 2.4043C97.8391 2.4043 94.2122 5.89232 94.2122 10.6385C94.2122 15.3224 97.8638 18.8354 102.716 18.8354C107.569 18.8354 111.195 15.5093 111.195 10.6385C111.195 5.71792 107.556 2.4043 102.716 2.4043ZM102.716 15.8207C99.5721 15.8207 97.3192 13.6781 97.3192 10.6385C97.3192 7.53667 99.5597 5.41894 102.716 5.41894C105.922 5.41894 108.088 7.53667 108.088 10.6385C108.088 13.6781 105.922 15.8207 102.716 15.8207Z" fill="#5B86E5"/>
<defs>
<linearGradient id="paint0_linear_29_557" x1="0" y1="16.4064" x2="20.6872" y2="16.4064" gradientUnits="userSpaceOnUse">
<stop stop-color="#39CADD"/>
<stop offset="1" stop-color="#4BA7E1"/>
</linearGradient>
<linearGradient id="paint1_linear_29_557" x1="0" y1="4.8324" x2="20.6872" y2="4.8324" gradientUnits="userSpaceOnUse">
<stop stop-color="#39CADD"/>
<stop offset="1" stop-color="#4BA7E1"/>
</linearGradient>
</defs>
</svg>
