<svg width="139" height="26" viewBox="0 0 139 26" fill="none" xmlns="http://www.w3.org/2000/svg">
<path fill-rule="evenodd" clip-rule="evenodd" d="M28.52 20.477C28.52 21.2391 28.4737 21.8411 28.381 22.2829C28.295 22.7248 28.1362 23.0866 27.9045 23.3684C27.6729 23.6565 27.3718 23.8583 27.0012 23.9735C26.6306 24.0888 26.1277 24.1464 25.4924 24.1464C24.8571 24.1464 24.3509 24.0888 23.9737 23.9735C23.6031 23.8583 23.302 23.6565 23.0704 23.3684C22.8454 23.0802 22.6865 22.7152 22.5939 22.2733C22.5079 21.8314 22.4648 21.2327 22.4648 20.477C22.4648 19.0362 22.67 18.0596 23.0803 17.5473C23.4906 17.035 24.2946 16.7788 25.4924 16.7788C26.6902 16.7788 27.4942 17.035 27.9045 17.5473C28.3148 18.0596 28.52 19.0362 28.52 20.477ZM23.4773 20.477C23.4773 21.6041 23.6031 22.3566 23.8545 22.7344C24.0994 23.1058 24.6454 23.2915 25.4924 23.2915C26.3395 23.2915 26.8854 23.1058 27.1303 22.7344C27.3817 22.3566 27.5075 21.6041 27.5075 20.477C27.5075 19.8623 27.481 19.3916 27.4281 19.065C27.3817 18.7384 27.2858 18.463 27.1402 18.2389C27.0012 18.0084 26.8027 17.8515 26.5446 17.7682C26.2931 17.6786 25.9424 17.6337 25.4924 17.6337C25.0424 17.6337 24.6917 17.6786 24.4402 17.7682C24.1887 17.8515 23.9869 18.0084 23.8347 18.2389C23.6957 18.4694 23.5998 18.7512 23.5468 19.0842C23.5005 19.4108 23.4773 19.8751 23.4773 20.477Z" fill="#979797"/>
<path d="M31.9707 18.796C32.4803 18.796 32.8542 18.8184 33.0924 18.8633C33.3571 18.9017 33.5854 19.001 33.7774 19.161C33.9693 19.3083 34.0983 19.5261 34.1645 19.8142C34.2373 20.096 34.2737 20.5059 34.2737 21.0438V23.9543C34.2737 24.0504 34.2174 24.0984 34.1049 24.0984H33.4696C33.3704 24.0984 33.3207 24.0504 33.3207 23.9543V21.1206C33.3207 20.6083 33.2678 20.2209 33.1619 19.9583C33.1156 19.8431 33.0329 19.763 32.9138 19.7182C32.7417 19.6413 32.4604 19.6029 32.07 19.6029H30.7101V23.9543C30.7101 24.0504 30.6605 24.0984 30.5612 24.0984H29.906C29.8068 24.0984 29.7571 24.0504 29.7571 23.9543V19.1034C29.7571 19.065 29.7638 19.0362 29.777 19.017C29.7902 18.9913 29.8035 18.9753 29.8167 18.9689C29.8366 18.9625 29.8663 18.9561 29.906 18.9497C30.4355 18.8473 31.1237 18.796 31.9707 18.796Z" fill="#979797"/>
<path d="M35.7516 16.8268H36.4068C36.506 16.8268 36.5557 16.8749 36.5557 16.9709V23.9543C36.5557 24.0504 36.506 24.0984 36.4068 24.0984H35.7516C35.6524 24.0984 35.6027 24.0504 35.6027 23.9543V16.9709C35.6027 16.8749 35.6524 16.8268 35.7516 16.8268Z" fill="#979797"/>
<path d="M38.9914 17.3071C38.9914 17.685 38.7962 17.8739 38.4057 17.8739C38.0153 17.8739 37.8201 17.685 37.8201 17.3071C37.8201 16.9357 38.0153 16.75 38.4057 16.75C38.7962 16.75 38.9914 16.9357 38.9914 17.3071Z" fill="#979797"/>
<path d="M38.0782 18.8441H38.7333C38.8326 18.8441 38.8822 18.8921 38.8822 18.9881V23.9543C38.8822 24.0504 38.8326 24.0984 38.7333 24.0984H38.0782C37.9789 24.0984 37.9293 24.0504 37.9293 23.9543V18.9881C37.9293 18.8921 37.9789 18.8441 38.0782 18.8441Z" fill="#979797"/>
<path d="M42.4594 18.796C42.969 18.796 43.3429 18.8184 43.5811 18.8633C43.8458 18.9017 44.0741 19.001 44.2661 19.161C44.458 19.3083 44.587 19.5261 44.6532 19.8142C44.726 20.096 44.7624 20.5059 44.7624 21.0438V23.9543C44.7624 24.0504 44.7061 24.0984 44.5936 24.0984H43.9583C43.8591 24.0984 43.8094 24.0504 43.8094 23.9543V21.1206C43.8094 20.6083 43.7565 20.2209 43.6506 19.9583C43.6043 19.8431 43.5216 19.763 43.4025 19.7182C43.2304 19.6413 42.9491 19.6029 42.5587 19.6029H41.1988V23.9543C41.1988 24.0504 41.1491 24.0984 41.0499 24.0984H40.3947C40.2955 24.0984 40.2458 24.0504 40.2458 23.9543V19.1034C40.2458 19.065 40.2525 19.0362 40.2657 19.017C40.2789 18.9913 40.2922 18.9753 40.3054 18.9689C40.3253 18.9625 40.355 18.9561 40.3947 18.9497C40.9241 18.8473 41.6124 18.796 42.4594 18.796Z" fill="#979797"/>
<path fill-rule="evenodd" clip-rule="evenodd" d="M48.1859 18.796C49.0661 18.796 49.6517 18.9657 49.9429 19.3051C50.2407 19.6509 50.3929 20.3265 50.3995 21.332V21.6105C50.3995 21.713 50.3731 21.7834 50.3201 21.8218C50.2738 21.8603 50.1811 21.8795 50.0422 21.8795H46.8856C46.8988 22.4686 46.9881 22.8593 47.1536 23.0514C47.3256 23.2435 47.6764 23.3396 48.2058 23.3396H49.8337C49.933 23.3396 49.9826 23.3876 49.9826 23.4836V23.9063C49.9826 23.9959 49.9363 24.0472 49.8436 24.06C49.4069 24.1176 48.8543 24.1464 48.1859 24.1464C47.2595 24.1464 46.6506 23.9735 46.3595 23.6277C46.0683 23.2691 45.9227 22.5519 45.9227 21.476C45.9227 20.4002 46.0683 19.683 46.3595 19.3243C46.644 18.9721 47.2528 18.796 48.1859 18.796ZM48.1859 19.6029C47.6631 19.6029 47.3157 19.7054 47.1436 19.9103C46.9716 20.1152 46.8822 20.5219 46.8756 21.1302H49.4466C49.44 20.5155 49.3539 20.1056 49.1885 19.9007C49.0297 19.7022 48.6955 19.6029 48.1859 19.6029Z" fill="#979797"/>
<path d="M55.8842 18.796C56.4467 18.796 56.9463 18.8248 57.3831 18.8825C57.4757 18.8953 57.5221 18.9497 57.5221 19.0458V19.4588C57.5221 19.5549 57.4724 19.6029 57.3732 19.6029H55.8842C55.2952 19.6029 54.9213 19.7214 54.7625 19.9583C54.6037 20.1953 54.5243 20.7012 54.5243 21.476C54.5243 22.2381 54.6037 22.7408 54.7625 22.9841C54.9213 23.2211 55.2952 23.3396 55.8842 23.3396H57.3732C57.4724 23.3396 57.5221 23.3876 57.5221 23.4836V23.8967C57.5221 23.9927 57.4757 24.0472 57.3831 24.06C56.9463 24.1176 56.4467 24.1464 55.8842 24.1464C55.368 24.1464 54.9677 24.108 54.6831 24.0312C54.4052 23.9543 54.1802 23.8134 54.0081 23.6085C53.836 23.4036 53.7202 23.1442 53.6607 22.8304C53.6011 22.5167 53.5713 22.0652 53.5713 21.476C53.5713 20.6307 53.6574 20.0096 53.8294 19.6125C53.975 19.3051 54.2 19.097 54.5044 18.9881C54.8088 18.8729 55.2688 18.8088 55.8842 18.796Z" fill="#979797"/>
<path fill-rule="evenodd" clip-rule="evenodd" d="M60.6522 18.796C61.5323 18.796 62.118 18.9657 62.4091 19.3051C62.7069 19.6509 62.8591 20.3265 62.8658 21.332V21.6105C62.8658 21.713 62.8426 21.7834 62.7963 21.8218C62.7499 21.8603 62.6507 21.8795 62.4985 21.8795H59.3419C59.3617 22.475 59.4544 22.8657 59.6198 23.0514C59.7919 23.2435 60.1426 23.3396 60.672 23.3396H62.2999C62.3992 23.3396 62.4488 23.3876 62.4488 23.4836V23.9063C62.4488 23.9959 62.4025 24.0472 62.3099 24.06C61.8731 24.1176 61.3205 24.1464 60.6522 24.1464C59.7257 24.1464 59.1169 23.9735 58.8257 23.6277C58.5345 23.2691 58.3889 22.5519 58.3889 21.476C58.3889 20.4002 58.5345 19.683 58.8257 19.3243C59.1102 18.9721 59.7191 18.796 60.6522 18.796ZM60.6522 19.6029C60.1294 19.6029 59.7819 19.7054 59.6099 19.9103C59.4378 20.1152 59.3485 20.5219 59.3419 21.1302H61.9128C61.9062 20.5155 61.8202 20.1056 61.6547 19.9007C61.4959 19.7022 61.1617 19.6029 60.6522 19.6029Z" fill="#979797"/>
<path fill-rule="evenodd" clip-rule="evenodd" d="M66.1608 18.796C67.1071 18.796 67.7292 18.9721 68.027 19.3243C68.3248 19.683 68.4737 20.397 68.4737 21.4664C68.4737 22.5423 68.3281 23.2595 68.0369 23.6181C67.7523 23.9703 67.1435 24.1464 66.2104 24.1464C65.681 24.1464 65.2443 24.1272 64.9001 24.0888V25.8563C64.9001 25.9523 64.8505 26.0004 64.7512 26.0004H64.0961C63.9968 26.0004 63.9472 25.9523 63.9472 25.8563V19.1226C63.9472 19.033 64.0001 18.9785 64.106 18.9593C64.834 18.8505 65.5189 18.796 66.1608 18.796ZM66.1707 19.6029H64.9001V23.2627C65.3568 23.3139 65.7737 23.3396 66.1509 23.3396C66.7465 23.3396 67.1237 23.2243 67.2825 22.9937C67.4479 22.7568 67.5306 22.2509 67.5306 21.476C67.5306 20.7012 67.4512 20.1953 67.2924 19.9583C67.1336 19.7214 66.7597 19.6029 66.1707 19.6029Z" fill="#979797"/>
<path fill-rule="evenodd" clip-rule="evenodd" d="M71.8504 18.796C72.5915 18.796 73.1243 18.9081 73.4485 19.1322C73.7728 19.3564 73.9349 19.7374 73.9349 20.2753C73.9349 20.6403 73.8754 20.9157 73.7562 21.1014C73.6371 21.2871 73.4419 21.4056 73.1706 21.4568V21.476C73.4948 21.5145 73.7265 21.6329 73.8654 21.8314C74.0044 22.03 74.0739 22.3213 74.0739 22.7056C74.0739 23.2307 73.9151 23.6021 73.5974 23.8198C73.2864 24.0376 72.7768 24.1464 72.0687 24.1464C70.9371 24.1464 70.1827 24.124 69.8055 24.0792C69.7195 24.0728 69.6765 24.0312 69.6765 23.9543V18.9881C69.6765 18.9113 69.7195 18.8697 69.8055 18.8633C70.3415 18.8184 71.0232 18.796 71.8504 18.796ZM71.761 19.6317H70.6691V21.1302H71.5327C72.0886 21.1302 72.4625 21.0886 72.6544 21.0054C72.8529 20.9157 72.9522 20.714 72.9522 20.4002C72.9522 20.112 72.8596 19.9135 72.6743 19.8046C72.4956 19.6894 72.1912 19.6317 71.761 19.6317ZM72.0588 21.8314H70.6691V23.3107H72.0489C72.4327 23.3107 72.704 23.2595 72.8629 23.157C73.0217 23.0546 73.1011 22.8689 73.1011 22.5999C73.1011 22.3053 73.0184 22.1036 72.8529 21.9947C72.6941 21.8859 72.4294 21.8314 72.0588 21.8314Z" fill="#979797"/>
<path d="M79.3406 18.8441H79.9461C80.0255 18.8441 80.0652 18.8793 80.0652 18.9497V23.9927C80.0652 24.0632 80.0255 24.0984 79.9461 24.0984H79.1917C79.1123 24.0984 79.0726 24.0632 79.0726 23.9927V20.3906L76.2336 23.9447C76.1542 24.0472 76.045 24.0984 75.906 24.0984H75.3501C75.2707 24.0984 75.231 24.0632 75.231 23.9927V18.9497C75.231 18.8793 75.2707 18.8441 75.3501 18.8441H76.1045C76.184 18.8441 76.2237 18.8793 76.2237 18.9497V22.4078L78.884 19.065C78.9501 18.9753 79.0097 18.9177 79.0626 18.8921C79.1222 18.8601 79.2148 18.8441 79.3406 18.8441Z" fill="#979797"/>
<path d="M83.5891 18.796C84.1516 18.796 84.6512 18.8248 85.088 18.8825C85.1806 18.8953 85.227 18.9497 85.227 19.0458V19.4588C85.227 19.5549 85.1773 19.6029 85.0781 19.6029H83.5891C83.0001 19.6029 82.6262 19.7214 82.4674 19.9583C82.3086 20.1953 82.2292 20.7012 82.2292 21.476C82.2292 22.2381 82.3086 22.7408 82.4674 22.9841C82.6262 23.2211 83.0001 23.3396 83.5891 23.3396H85.0781C85.1773 23.3396 85.227 23.3876 85.227 23.4836V23.8967C85.227 23.9927 85.1806 24.0472 85.088 24.06C84.6512 24.1176 84.1516 24.1464 83.5891 24.1464C83.0729 24.1464 82.6726 24.108 82.388 24.0312C82.1101 23.9543 81.885 23.8134 81.713 23.6085C81.5409 23.4036 81.4251 23.1442 81.3656 22.8304C81.306 22.5167 81.2762 22.0652 81.2762 21.476C81.2762 20.6307 81.3623 20.0096 81.5343 19.6125C81.6799 19.3051 81.9049 19.097 82.2093 18.9881C82.5137 18.8729 82.9737 18.8088 83.5891 18.796Z" fill="#979797"/>
<path d="M88.7798 16.8268H93.4254C93.5246 16.8268 93.5743 16.8749 93.5743 16.9709V17.5377C93.5743 17.6337 93.5246 17.6818 93.4254 17.6818H89.6335V20.1504H93.0879C93.1871 20.1504 93.2368 20.1985 93.2368 20.2945V20.8517C93.2368 20.9477 93.1871 20.9957 93.0879 20.9957H89.6335V23.2435H93.4254C93.5246 23.2435 93.5743 23.2915 93.5743 23.3876V23.9543C93.5743 24.0504 93.5246 24.0984 93.4254 24.0984H88.7798C88.6805 24.0984 88.6309 24.0504 88.6309 23.9543V16.9709C88.6309 16.8749 88.6805 16.8268 88.7798 16.8268Z" fill="#979797"/>
<path d="M96.581 18.796C97.0972 18.796 97.6035 18.8248 98.0998 18.8825C98.1924 18.8953 98.2388 18.9465 98.2388 19.0362V19.4492C98.2388 19.5453 98.1891 19.5933 98.0899 19.5933H96.2435C95.7605 19.5933 95.5189 19.7598 95.5189 20.0928V20.2177C95.5189 20.5187 95.7241 20.7428 96.1343 20.8901L97.4546 21.3992C97.845 21.5465 98.1064 21.7226 98.2388 21.9275C98.3777 22.1324 98.4472 22.4078 98.4472 22.7536V22.8593C98.4472 23.3716 98.2917 23.7142 97.9807 23.8871C97.6696 24.06 97.1568 24.1464 96.4421 24.1464C95.7406 24.1464 95.1351 24.1176 94.6255 24.06C94.5263 24.0472 94.4766 23.9992 94.4766 23.9159V23.4932C94.4766 23.3972 94.5263 23.3492 94.6255 23.3492H96.4619C96.8722 23.3492 97.1469 23.3171 97.2858 23.2531C97.4314 23.1891 97.5042 23.0546 97.5042 22.8497V22.7344C97.5042 22.5871 97.4612 22.4654 97.3752 22.3694C97.2957 22.2733 97.1469 22.1805 96.9285 22.0908L95.5189 21.5721C94.8836 21.3352 94.566 20.8773 94.566 20.1985V19.9967C94.566 19.4908 94.7711 19.1578 95.1814 18.9977C95.5388 18.8633 96.0053 18.796 96.581 18.796Z" fill="#979797"/>
<path d="M99.9401 17.5473L100.595 17.3936C100.708 17.3616 100.764 17.4032 100.764 17.5185V18.8537H101.806C101.912 18.8537 101.965 18.9017 101.965 18.9977V19.4492C101.965 19.5453 101.912 19.5933 101.806 19.5933H100.764V22.8208C100.764 23.0322 100.804 23.1731 100.883 23.2435C100.969 23.3075 101.145 23.3396 101.409 23.3396H101.886C101.992 23.3396 102.045 23.3844 102.045 23.474V23.9351C102.045 24.0184 101.995 24.0696 101.896 24.0888C101.737 24.1272 101.552 24.1464 101.34 24.1464C100.996 24.1464 100.714 24.1208 100.496 24.0696C100.271 24.0184 100.106 23.9159 99.9997 23.7622C99.8938 23.6085 99.8309 23.3716 99.8111 23.0514V19.5933H99.2552C99.1559 19.5933 99.1063 19.5453 99.1063 19.4492V18.9977C99.1063 18.9017 99.1559 18.8537 99.2552 18.8537H99.8111V17.701C99.8111 17.6177 99.8541 17.5665 99.9401 17.5473Z" fill="#979797"/>
<path d="M105.834 16.7788C106.622 16.7788 107.237 16.8108 107.681 16.8749C107.787 16.8813 107.84 16.9357 107.84 17.0382V17.4896C107.84 17.5857 107.79 17.6337 107.691 17.6337H105.834C104.994 17.6337 104.448 17.8226 104.197 18.2005C103.945 18.5783 103.819 19.334 103.819 20.4674C103.819 21.5945 103.945 22.347 104.197 22.7248C104.448 23.1026 104.994 23.2915 105.834 23.2915H107.691C107.79 23.2915 107.84 23.3396 107.84 23.4356V23.8871C107.84 23.9831 107.787 24.0408 107.681 24.06C107.251 24.1176 106.635 24.1464 105.834 24.1464C105.199 24.1464 104.696 24.0888 104.326 23.9735C103.955 23.8583 103.654 23.6565 103.422 23.3684C103.197 23.0866 103.038 22.7248 102.946 22.2829C102.86 21.8347 102.817 21.2295 102.817 20.4674C102.817 19.7054 102.86 19.1034 102.946 18.6615C103.038 18.2133 103.197 17.8483 103.422 17.5665C103.647 17.2719 103.945 17.067 104.316 16.9517C104.693 16.8365 105.199 16.7788 105.834 16.7788Z" fill="#979797"/>
<path fill-rule="evenodd" clip-rule="evenodd" d="M109.677 18.9113C109.968 18.8345 110.358 18.796 110.848 18.796C111.344 18.796 111.735 18.8345 112.019 18.9113C112.602 19.0522 112.949 19.4652 113.061 20.1504C113.121 20.4642 113.151 20.9061 113.151 21.476C113.151 22.0396 113.121 22.4846 113.061 22.8112C112.949 23.4708 112.602 23.8807 112.019 24.0408C111.715 24.1112 111.324 24.1464 110.848 24.1464C110.365 24.1464 109.971 24.1112 109.667 24.0408C109.097 23.8871 108.75 23.4772 108.624 22.8112C108.565 22.4846 108.535 22.0396 108.535 21.476C108.535 20.9061 108.565 20.4642 108.624 20.1504C108.75 19.4652 109.101 19.0522 109.677 18.9113ZM110.848 19.6029C110.259 19.6029 109.885 19.7214 109.726 19.9583C109.567 20.1953 109.488 20.7012 109.488 21.476C109.488 22.2381 109.567 22.7408 109.726 22.9841C109.885 23.2211 110.259 23.3396 110.848 23.3396C111.43 23.3396 111.801 23.2211 111.96 22.9841C112.118 22.7408 112.198 22.2381 112.198 21.476C112.198 20.7012 112.118 20.1953 111.96 19.9583C111.801 19.7214 111.43 19.6029 110.848 19.6029Z" fill="#979797"/>
<path d="M116.559 18.796C117.068 18.796 117.442 18.8184 117.681 18.8633C117.945 18.9017 118.174 19.001 118.366 19.161C118.557 19.3083 118.686 19.5261 118.753 19.8142C118.825 20.096 118.862 20.5059 118.862 21.0438V23.9543C118.862 24.0504 118.806 24.0984 118.693 24.0984H118.058C117.959 24.0984 117.909 24.0504 117.909 23.9543V21.1206C117.909 20.6083 117.856 20.2209 117.75 19.9583C117.704 19.8431 117.621 19.763 117.502 19.7182C117.33 19.6413 117.049 19.6029 116.658 19.6029H115.298V23.9543C115.298 24.0504 115.249 24.0984 115.149 24.0984H114.494C114.395 24.0984 114.345 24.0504 114.345 23.9543V19.1034C114.345 19.065 114.352 19.0362 114.365 19.017C114.378 18.9913 114.392 18.9753 114.405 18.9689C114.425 18.9625 114.454 18.9561 114.494 18.9497C115.024 18.8473 115.712 18.796 116.559 18.796Z" fill="#979797"/>
<path d="M122.395 18.796C122.904 18.796 123.278 18.8184 123.516 18.8633C123.781 18.9017 124.009 19.001 124.201 19.161C124.393 19.3083 124.522 19.5261 124.588 19.8142C124.661 20.096 124.697 20.5059 124.697 21.0438V23.9543C124.697 24.0504 124.641 24.0984 124.529 24.0984H123.893C123.794 24.0984 123.745 24.0504 123.745 23.9543V21.1206C123.745 20.6083 123.692 20.2209 123.586 19.9583C123.539 19.8431 123.457 19.763 123.338 19.7182C123.166 19.6413 122.884 19.6029 122.494 19.6029H121.134V23.9543C121.134 24.0504 121.084 24.0984 120.985 24.0984H120.33C120.231 24.0984 120.181 24.0504 120.181 23.9543V19.1034C120.181 19.065 120.188 19.0362 120.201 19.017C120.214 18.9913 120.227 18.9753 120.241 18.9689C120.26 18.9625 120.29 18.9561 120.33 18.9497C120.859 18.8473 121.548 18.796 122.395 18.796Z" fill="#979797"/>
<path fill-rule="evenodd" clip-rule="evenodd" d="M128.121 18.796C129.001 18.796 129.587 18.9657 129.878 19.3051C130.176 19.6509 130.328 20.3265 130.335 21.332V21.6105C130.335 21.713 130.308 21.7834 130.255 21.8218C130.209 21.8603 130.116 21.8795 129.977 21.8795H126.821C126.834 22.4686 126.923 22.8593 127.089 23.0514C127.261 23.2435 127.611 23.3396 128.141 23.3396H129.769C129.868 23.3396 129.918 23.3876 129.918 23.4836V23.9063C129.918 23.9959 129.871 24.0472 129.779 24.06C129.342 24.1176 128.789 24.1464 128.121 24.1464C127.195 24.1464 126.586 23.9735 126.295 23.6277C126.003 23.2691 125.858 22.5519 125.858 21.476C125.858 20.4002 126.003 19.683 126.295 19.3243C126.579 18.9721 127.188 18.796 128.121 18.796ZM128.121 19.6029C127.598 19.6029 127.251 19.7054 127.079 19.9103C126.907 20.1152 126.817 20.5219 126.811 21.1302H129.382C129.375 20.5155 129.289 20.1056 129.124 19.9007C128.965 19.7022 128.631 19.6029 128.121 19.6029Z" fill="#979797"/>
<path d="M133.57 18.796C134.139 18.796 134.642 18.8248 135.079 18.8825C135.172 18.8953 135.218 18.9497 135.218 19.0458V19.4588C135.218 19.5549 135.168 19.6029 135.069 19.6029H133.57C132.988 19.6029 132.617 19.7214 132.458 19.9583C132.3 20.1953 132.22 20.7012 132.22 21.476C132.22 22.2381 132.3 22.7408 132.458 22.9841C132.617 23.2211 132.988 23.3396 133.57 23.3396H135.069C135.168 23.3396 135.218 23.3876 135.218 23.4836V23.8967C135.218 23.9927 135.172 24.0472 135.079 24.06C134.642 24.1176 134.139 24.1464 133.57 24.1464C133.054 24.1464 132.654 24.108 132.369 24.0312C132.091 23.9543 131.866 23.8134 131.694 23.6085C131.529 23.4036 131.416 23.1442 131.357 22.8304C131.297 22.5167 131.267 22.0652 131.267 21.476C131.267 20.8869 131.297 20.4354 131.357 20.1216C131.416 19.8078 131.529 19.5485 131.694 19.3436C131.866 19.1322 132.091 18.9881 132.369 18.9113C132.654 18.8345 133.054 18.796 133.57 18.796Z" fill="#979797"/>
<path d="M136.651 17.5473L137.306 17.3936C137.418 17.3616 137.474 17.4032 137.474 17.5185V18.8537H138.517C138.623 18.8537 138.676 18.9017 138.676 18.9977V19.4492C138.676 19.5453 138.623 19.5933 138.517 19.5933H137.474V22.8208C137.474 23.0322 137.514 23.1731 137.594 23.2435C137.68 23.3075 137.855 23.3396 138.12 23.3396H138.596C138.702 23.3396 138.755 23.3844 138.755 23.474V23.9351C138.755 24.0184 138.705 24.0696 138.606 24.0888C138.447 24.1272 138.262 24.1464 138.05 24.1464C137.706 24.1464 137.425 24.1208 137.206 24.0696C136.981 24.0184 136.816 23.9159 136.71 23.7622C136.604 23.6085 136.541 23.3716 136.522 23.0514V19.5933H135.966C135.866 19.5933 135.817 19.5453 135.817 19.4492V18.9977C135.817 18.9017 135.866 18.8537 135.966 18.8537H136.522V17.701C136.522 17.6177 136.565 17.5665 136.651 17.5473Z" fill="#979797"/>
<path fill-rule="evenodd" clip-rule="evenodd" d="M42.7991 9.98312C42.7991 4.82407 35.0437 7.39919 35.0437 4.92989C35.0437 4.13619 36.0427 3.54533 37.585 3.54533C38.9959 3.54533 40.1526 4.24202 40.3454 5.10627H42.6151C42.4398 3.08675 40.4331 1.69336 37.585 1.69336C34.886 1.69336 32.853 2.90155 32.853 4.86816C32.853 9.96548 40.6083 7.25808 40.6083 9.91257C40.6083 10.7768 39.5567 11.4118 38.067 11.4118C36.4721 11.4118 35.2278 10.7239 34.9912 9.65682H32.704C32.8617 11.8527 35.1489 13.3255 38.0933 13.3255C41.0289 13.3343 42.7991 11.8351 42.7991 9.98312Z" fill="#5B86E5"/>
<path fill-rule="evenodd" clip-rule="evenodd" d="M47.4522 13.0954H49.643V3.99426H53.4988V1.93945H43.5614V3.99426H47.4522V13.0954Z" fill="#5B86E5"/>
<path fill-rule="evenodd" clip-rule="evenodd" d="M56.3645 7.53046C56.3645 5.33456 57.9506 3.83534 60.1852 3.83534C61.7801 3.83534 63.0245 4.56731 63.6203 5.79314H65.9426C65.2503 3.28857 63.0157 1.70117 60.194 1.70117C56.7413 1.70117 54.1737 4.17046 54.1737 7.53046C54.1737 10.8464 56.7588 13.3333 60.194 13.3333C63.0157 13.3333 65.2678 11.7371 65.9426 9.24133H63.6203C63.0069 10.4495 61.7713 11.1991 60.1852 11.1991C57.9681 11.1991 56.3645 9.68227 56.3645 7.53046Z" fill="#5B86E5"/>
<path fill-rule="evenodd" clip-rule="evenodd" d="M82.4347 5.65221L89.2348 13.0954H91.005V1.93945H88.8054V9.32969L81.9877 1.93945H80.2351V13.0954H82.4347V5.65221Z" fill="#5B86E5"/>
<path fill-rule="evenodd" clip-rule="evenodd" d="M95.1675 5.65221L101.976 13.0954H103.747V1.93945H101.547V9.32969L94.7293 1.93945H92.9767V13.0954H95.1675V5.65221Z" fill="#5B86E5"/>
<path d="M114.78 11.0234H105.719V13.0959H114.78V11.0234Z" fill="#5B86E5"/>
<path fill-rule="evenodd" clip-rule="evenodd" d="M118.381 7.53046C118.381 5.33456 119.967 3.83534 122.202 3.83534C123.797 3.83534 125.041 4.56731 125.637 5.79314H127.959C127.267 3.28857 125.032 1.70117 122.211 1.70117C118.758 1.70117 116.19 4.17046 116.19 7.53046C116.19 10.8464 118.776 13.3333 122.211 13.3333C125.032 13.3333 127.285 11.7371 127.959 9.24133H125.637C125.024 10.4495 123.788 11.1991 122.202 11.1991C119.976 11.1991 118.381 9.68227 118.381 7.53046Z" fill="#5B86E5"/>
<path fill-rule="evenodd" clip-rule="evenodd" d="M132.709 13.0973H134.9V3.99621H138.756V1.94141H128.818V3.99621H132.709V13.0973Z" fill="#5B86E5"/>
<path d="M31.1879 10.7852H22.1268V12.8576H31.1879V10.7852Z" fill="#5B86E5"/>
<path fill-rule="evenodd" clip-rule="evenodd" d="M12.2508 8.19141H3.40009V10.6431H12.2596V10.696C12.2596 11.7278 11.4359 12.5744 10.4281 12.5744H4.22382C3.21607 12.5744 2.38357 11.7278 2.38357 10.6872V8.19141H0V12.2393C0 13.7738 1.22684 15.0349 2.72533 15.0349H11.9266C13.4251 15.0349 14.6519 13.7738 14.6519 12.2393V8.19141H12.2508Z" fill="url(#paint0_linear_8063_3500)"/>
<path fill-rule="evenodd" clip-rule="evenodd" d="M12.2508 4.39181H3.40009V6.84346H14.6432V2.79559C14.6432 1.2611 13.4163 0 11.9178 0H2.71657C1.22684 0 0 1.2611 0 2.79559V6.84346H2.39233V4.3389C2.39233 3.30709 3.21607 2.46047 4.23259 2.46047H10.4281C11.4359 2.46047 12.2596 3.30709 12.2596 4.3389V4.39181H12.2508Z" fill="url(#paint1_linear_8063_3500)"/>
<path d="M30.8374 6.24414H22.1268V8.29894H30.8374V6.24414Z" fill="#5B86E5"/>
<path d="M31.1879 1.70117H22.1268V3.75597H31.1879V1.70117Z" fill="#5B86E5"/>
<path d="M114.429 6.48047H105.719V8.53527H114.429V6.48047Z" fill="#5B86E5"/>
<path d="M114.78 1.94141H105.719V3.99621H114.78V1.94141Z" fill="#5B86E5"/>
<path fill-rule="evenodd" clip-rule="evenodd" d="M72.7164 1.70117C69.2638 1.70117 66.6962 4.17046 66.6962 7.53046C66.6962 10.8464 69.2813 13.3333 72.7164 13.3333C76.1516 13.3333 78.7192 10.9787 78.7192 7.53046C78.7192 4.047 76.1428 1.70117 72.7164 1.70117ZM72.7164 11.1991C70.4906 11.1991 68.8957 9.68227 68.8957 7.53046C68.8957 5.33456 70.4818 3.83534 72.7164 3.83534C74.9861 3.83534 76.5196 5.33456 76.5196 7.53046C76.5196 9.68227 74.9861 11.1991 72.7164 11.1991Z" fill="#5B86E5"/>
<defs>
<linearGradient id="paint0_linear_8063_3500" x1="0" y1="11.6137" x2="14.6452" y2="11.6137" gradientUnits="userSpaceOnUse">
<stop stop-color="#39CADD"/>
<stop offset="1" stop-color="#4BA7E1"/>
</linearGradient>
<linearGradient id="paint1_linear_8063_3500" x1="0" y1="3.42103" x2="14.6452" y2="3.42103" gradientUnits="userSpaceOnUse">
<stop stop-color="#39CADD"/>
<stop offset="1" stop-color="#4BA7E1"/>
</linearGradient>
</defs>
</svg>
