<svg width="69" height="68" viewBox="0 0 69 68" fill="none" xmlns="http://www.w3.org/2000/svg">
<path d="M22.4167 57.6055C21.6396 57.3141 21.3482 56.7313 21.3482 55.9541C21.3482 55.4684 21.3482 55.0798 21.3482 54.5941C21.3482 53.5255 21.8339 53.137 22.9024 53.0398C23.4853 53.0398 24.1653 53.0398 24.7482 53.0398C24.9424 53.0398 25.1367 52.9427 25.2339 52.8455C26.7882 51.1941 27.7596 49.2513 28.051 47.017C28.051 46.9198 28.051 46.9198 28.051 46.8227C27.8567 46.8227 27.6624 46.8227 27.5653 46.8227C25.2339 46.8227 22.9996 46.8227 20.6682 46.8227C20.3767 46.8227 20.0853 46.7255 19.9882 46.6284C19.891 46.5313 19.7939 46.1427 19.7939 45.9484C19.891 45.7541 20.0853 45.5598 20.2796 45.4627C20.4739 45.3655 20.6682 45.4627 20.8624 45.4627C32.5196 45.4627 44.2739 45.4627 55.931 45.4627C57.1939 45.4627 57.5824 45.0741 57.5824 43.8113C57.5824 33.8055 57.5824 23.7998 57.5824 13.7941C57.5824 12.5313 57.1939 12.1427 55.931 12.1427C41.651 12.1427 27.4682 12.1427 13.1882 12.1427C11.9253 12.1427 11.5367 12.5313 11.5367 13.7941C11.5367 23.7998 11.5367 33.8055 11.5367 43.8113C11.5367 44.977 11.9253 45.3655 13.1882 45.3655C14.3539 45.3655 15.6167 45.3655 16.7824 45.3655C17.4624 45.3655 17.7539 45.657 17.7539 46.0455C17.7539 46.5313 17.3653 46.7255 16.7824 46.7255C15.5196 46.7255 14.2567 46.7255 12.9939 46.7255C11.5367 46.7255 10.6624 46.0455 10.1767 44.6855C10.1767 44.6855 10.0796 44.297 10.0796 44.1027C10.0796 33.7084 10.0796 23.4113 10.0796 13.017C10.0796 12.9198 10.0796 12.6284 10.1767 12.6284C10.4682 11.657 11.1482 10.977 12.1196 10.6855C12.2167 10.6855 12.5082 10.6855 12.6053 10.6855C27.2739 10.6855 41.8453 10.6855 56.5139 10.6855C56.611 10.6855 56.9024 10.6855 56.9996 10.7827C57.971 11.0741 58.5539 11.7541 58.9424 12.7255C58.9424 12.8227 59.0396 13.1141 59.0396 13.2113C59.0396 23.6055 59.0396 33.9998 59.0396 44.3941C59.0396 44.4913 58.9424 44.8798 58.9424 44.977C58.2624 46.5313 57.5824 46.9198 55.7367 46.9198C51.0739 46.9198 46.411 46.9198 41.7482 46.9198C41.5539 46.9198 41.3596 46.9198 41.1653 46.9198C41.1653 47.017 41.1653 47.1141 41.1653 47.1141C41.4567 49.3484 42.4282 51.2913 43.9824 52.9427C44.0796 53.0398 44.2739 53.137 44.4682 53.137C45.051 53.137 45.731 53.137 46.3139 53.137C47.3824 53.137 47.8682 53.6227 47.8682 54.6913C47.8682 55.177 47.8682 55.5655 47.8682 56.0513C47.8682 56.8284 47.6739 57.4113 46.9939 57.7027C46.9939 57.7027 46.7996 57.7998 46.7024 57.7998C45.731 57.7998 44.8567 57.7998 43.8853 57.7998C43.7882 57.7998 43.4967 57.7027 43.4967 57.7027C43.2053 57.5084 43.1082 57.217 43.2053 56.9255C43.3024 56.4398 43.691 56.4398 44.1767 56.4398C44.371 56.4398 44.5653 56.4398 44.7596 56.4398C45.3424 56.4398 45.9253 56.4398 46.5082 56.4398C46.5082 55.857 46.5082 55.3713 46.5082 54.7884C38.6396 54.7884 30.771 54.7884 22.9024 54.7884C22.9024 55.3713 22.9024 55.857 22.9024 56.4398C23.0967 56.4398 23.291 56.4398 23.4853 56.4398C28.4396 56.4398 33.2967 56.4398 38.251 56.4398C39.0282 56.4398 39.8053 56.4398 40.5824 56.4398C40.8739 56.4398 41.1653 56.7313 41.2624 56.9255C41.3596 57.1198 41.2624 57.3141 41.1653 57.5084C41.1653 57.5084 41.0682 57.6055 40.971 57.7027C40.8739 57.7998 40.6796 57.7998 40.6796 57.7998C34.4624 57.6055 28.4396 57.6055 22.4167 57.6055ZM27.0796 53.0398C32.131 53.0398 37.1824 53.0398 42.1367 53.0398C42.1367 52.9427 42.1367 52.9427 42.0396 52.8455C40.7767 51.097 39.9996 49.1541 39.7082 47.017C39.7082 46.9198 39.5139 46.7255 39.4167 46.7255C36.211 46.7255 33.0053 46.7255 29.7996 46.7255C29.6053 46.7255 29.5082 46.8227 29.411 47.017C29.1196 49.1541 28.4396 50.9998 27.1767 52.6513C27.0796 52.8455 27.0796 52.9427 27.0796 53.0398Z" fill="#723CD9"/>
<path d="M54.4737 15.2511C41.1651 15.2511 27.9537 15.2511 14.7423 15.2511C14.7423 23.314 14.7423 31.2797 14.7423 39.4397C14.9366 39.4397 15.1308 39.4397 15.3251 39.4397C25.7194 39.4397 36.2108 39.4397 46.6051 39.4397C46.7994 39.4397 46.9937 39.4397 47.0908 39.4397C47.4794 39.5368 47.7708 39.8283 47.7708 40.2168C47.7708 40.6054 47.4794 40.8968 47.0908 40.8968C46.9937 40.8968 46.7994 40.8968 46.7023 40.8968C35.9194 40.8968 25.1366 40.8968 14.2566 40.8968C13.3823 40.8968 13.188 40.7025 13.188 39.8283C13.188 31.5711 13.188 23.2168 13.188 14.9597C13.188 14.0854 13.3823 13.8911 14.2566 13.8911C27.7594 13.8911 41.2623 13.8911 54.7651 13.8911C55.6394 13.8911 55.8337 14.0854 55.8337 14.9597C55.8337 23.2168 55.8337 31.5711 55.8337 39.8283C55.8337 40.7025 55.6394 40.8968 54.7651 40.8968C53.308 40.8968 51.948 40.8968 50.4908 40.8968C49.908 40.8968 49.6166 40.6054 49.6166 40.2168C49.6166 39.7311 49.908 39.5368 50.4908 39.5368C51.7537 39.5368 53.0166 39.5368 54.3766 39.5368C54.4737 31.3768 54.4737 23.314 54.4737 15.2511Z" fill="#723CD9"/>
<path d="M43.9822 27.1997C44.3708 27.2968 44.8565 27.4911 45.3422 27.5883C47.5765 28.2683 49.8108 28.9483 51.9479 29.6283C52.0451 29.6283 52.1422 29.7254 52.1422 29.7254C52.4337 29.8226 52.7251 30.0168 52.7251 30.4054C52.7251 30.794 52.5308 30.9883 52.2394 31.1826C51.0737 31.6683 50.0051 32.0568 48.8394 32.5426C48.6451 32.6397 48.4508 32.834 48.3537 33.0283C47.8679 34.0968 47.4794 35.1654 46.9937 36.3311C46.7994 36.7197 46.6051 37.0111 46.2165 37.0111C45.8279 37.0111 45.6337 36.6226 45.5365 36.3311C44.7594 33.7083 43.9822 31.0854 43.2051 28.4626C43.0108 27.6854 43.3022 27.1997 43.9822 27.1997ZM46.4108 33.9997C46.7022 33.2226 46.9937 32.6397 47.1879 32.0568C47.2851 31.6683 47.5765 31.474 47.9651 31.2797C48.6451 31.0854 49.2279 30.794 50.0051 30.5026C48.2565 30.0168 46.7022 29.5311 44.9537 28.9483C45.4394 30.6968 45.9251 32.2511 46.4108 33.9997Z" fill="#723CD9"/>
<path d="M19.3083 31.5713C19.9883 31.5713 20.6683 31.5713 21.3483 31.5713C21.9312 31.5713 22.2226 31.8627 22.2226 32.4455C22.2226 33.6113 22.2226 34.777 22.2226 35.9427C22.2226 36.5256 21.9312 36.817 21.3483 36.817C19.9883 36.817 18.6283 36.817 17.2683 36.817C16.6855 36.817 16.394 36.5256 16.394 35.9427C16.394 34.777 16.394 33.5141 16.394 32.3484C16.394 31.7655 16.6855 31.4741 17.2683 31.4741C17.9483 31.5713 18.6283 31.5713 19.3083 31.5713ZM20.7655 33.0284C19.794 33.0284 18.8226 33.0284 17.8512 33.0284C17.8512 33.8056 17.8512 34.5827 17.8512 35.3598C18.8226 35.3598 19.794 35.3598 20.7655 35.3598C20.7655 34.5827 20.7655 33.9027 20.7655 33.0284Z" fill="#723CD9"/>
<path d="M19.3083 17.7768C19.9883 17.7768 20.6683 17.7768 21.4455 17.7768C22.0283 17.7768 22.2226 18.0683 22.2226 18.554C22.2226 19.7197 22.2226 20.9825 22.2226 22.1483C22.2226 22.7311 21.9312 22.9254 21.4455 22.9254C19.9883 22.9254 18.6283 22.9254 17.1712 22.9254C16.6855 22.9254 16.394 22.634 16.394 22.1483C16.394 20.8854 16.394 19.7197 16.394 18.4568C16.394 17.874 16.6855 17.6797 17.2683 17.6797C17.8512 17.7768 18.6283 17.7768 19.3083 17.7768ZM17.8512 19.1368C17.8512 19.914 17.8512 20.6911 17.8512 21.4683C18.8226 21.4683 19.794 21.4683 20.7655 21.4683C20.7655 20.6911 20.7655 19.914 20.7655 19.1368C19.794 19.1368 18.8226 19.1368 17.8512 19.1368Z" fill="#723CD9"/>
<path d="M19.3083 24.6743C19.9883 24.6743 20.6683 24.6743 21.3483 24.6743C21.9312 24.6743 22.1254 24.9657 22.1254 25.4515C22.1254 26.6172 22.1254 27.88 22.1254 29.0457C22.1254 29.6286 21.834 29.92 21.3483 29.92C19.8912 29.92 18.5312 29.92 17.074 29.92C16.5883 29.92 16.2969 29.6286 16.2969 29.1429C16.2969 27.88 16.2969 26.7143 16.2969 25.4515C16.2969 24.8686 16.5883 24.6743 17.1712 24.6743C17.9483 24.6743 18.6283 24.6743 19.3083 24.6743ZM20.7654 28.4629C20.7654 27.6857 20.7654 26.9086 20.7654 26.1315C19.794 26.1315 18.8226 26.1315 17.8512 26.1315C17.8512 26.9086 17.8512 27.6857 17.8512 28.4629C18.8226 28.4629 19.794 28.4629 20.7654 28.4629Z" fill="#723CD9"/>
<path d="M31.3537 29.92C29.508 29.92 27.6623 29.92 25.8166 29.92C25.7195 29.92 25.5252 29.92 25.428 29.92C24.9423 29.92 24.6509 29.6286 24.6509 29.1429C24.6509 28.7543 24.9423 28.4629 25.428 28.4629C26.108 28.4629 26.788 28.4629 27.468 28.4629C30.6737 28.4629 33.7823 28.4629 36.988 28.4629C37.0852 28.4629 37.2794 28.4629 37.3766 28.4629C37.7652 28.4629 38.0566 28.7543 38.0566 29.1429C38.0566 29.5315 37.7652 29.8229 37.3766 29.8229C37.0852 29.8229 36.8909 29.8229 36.5995 29.8229C34.8509 29.92 33.1023 29.92 31.3537 29.92Z" fill="#723CD9"/>
<path d="M31.3537 35.457C33.2966 35.457 35.2395 35.457 37.0852 35.457C37.668 35.457 38.0566 35.7484 38.0566 36.137C38.0566 36.6227 37.668 36.817 37.0852 36.817C33.2966 36.817 29.4109 36.817 25.6223 36.817C25.0395 36.817 24.748 36.6227 24.6509 36.137C24.6509 35.6513 24.9423 35.3599 25.428 35.3599C27.3709 35.457 29.3137 35.457 31.3537 35.457Z" fill="#723CD9"/>
<path d="M31.257 23.0226C29.3141 23.0226 27.3712 23.0226 25.4284 23.0226C25.0398 23.0226 24.7484 22.9255 24.6512 22.5369C24.5541 22.1483 24.7484 21.7597 25.2341 21.6626C25.4284 21.6626 25.6227 21.6626 25.7198 21.6626C29.4112 21.6626 33.1998 21.6626 36.8912 21.6626C36.9884 21.6626 37.0855 21.6626 37.1827 21.6626C37.6684 21.6626 37.9598 21.954 37.9598 22.3426C37.9598 22.7312 37.6684 23.0226 37.1827 23.0226C35.2398 23.0226 33.297 23.0226 31.257 23.0226Z" fill="#723CD9"/>
<path d="M35.8223 19.1368C34.268 19.1368 32.7137 19.1368 31.1594 19.1368C30.9651 19.1368 30.7708 19.1368 30.6737 19.0397C30.2851 18.9425 30.188 18.6511 30.188 18.2625C30.188 17.874 30.4794 17.6797 30.7708 17.6797C30.868 17.6797 31.0623 17.6797 31.1594 17.6797C34.268 17.6797 37.2794 17.6797 40.388 17.6797C40.4851 17.6797 40.4851 17.6797 40.5823 17.6797C41.068 17.6797 41.3594 17.9711 41.3594 18.3597C41.3594 18.7483 41.068 19.1368 40.5823 19.1368C39.028 19.1368 37.4737 19.1368 35.8223 19.1368Z" fill="#723CD9"/>
<path d="M35.8224 33.0284C34.2682 33.0284 32.7139 33.0284 31.1596 33.0284C30.9653 33.0284 30.6739 32.9313 30.4796 32.8341C29.9939 32.5427 30.1882 31.8627 30.6739 31.6684C30.771 31.5713 30.9653 31.5713 31.1596 31.5713C34.2682 31.5713 37.3767 31.5713 40.4853 31.5713C40.5824 31.5713 40.6796 31.5713 40.6796 31.5713C41.1653 31.5713 41.3596 31.8627 41.3596 32.2513C41.3596 32.6399 41.0682 32.9313 40.5824 32.9313C39.9024 32.9313 39.2224 32.9313 38.5424 32.9313C37.6682 33.0284 36.7939 33.0284 35.8224 33.0284Z" fill="#723CD9"/>
<path d="M35.9194 24.6743C37.4737 24.6743 39.028 24.6743 40.5823 24.6743C41.1652 24.6743 41.4566 24.9657 41.4566 25.3543C41.4566 25.84 41.1652 26.0343 40.5823 26.0343C37.3766 26.0343 34.268 26.0343 31.0623 26.0343C30.6737 26.0343 30.2852 25.9371 30.2852 25.4514C30.2852 25.16 30.3823 24.8686 30.5766 24.6743C30.6737 24.5771 30.9652 24.5771 31.1594 24.5771C32.7137 24.6743 34.268 24.6743 35.9194 24.6743Z" fill="#723CD9"/>
<path d="M26.4966 33.0284C26.108 33.0284 25.7195 33.0284 25.3309 33.0284C24.9423 33.0284 24.6509 32.737 24.6509 32.3484C24.6509 31.9599 24.8452 31.6684 25.3309 31.5713C26.108 31.5713 26.8852 31.5713 27.6623 31.5713C28.0509 31.5713 28.3423 31.9599 28.3423 32.3484C28.3423 32.737 28.0509 33.0284 27.6623 33.0284C27.1766 33.0284 26.788 33.0284 26.4966 33.0284Z" fill="#723CD9"/>
<path d="M26.3995 17.7769C26.788 17.7769 27.1766 17.7769 27.468 17.7769C27.8566 17.7769 28.148 18.0683 28.2452 18.4569C28.2452 18.8454 27.9537 19.234 27.5652 19.234C26.788 19.234 26.0109 19.234 25.3309 19.234C24.9423 19.234 24.6509 18.8454 24.6509 18.4569C24.6509 18.0683 24.9423 17.7769 25.3309 17.7769H25.428C25.8166 17.7769 26.108 17.7769 26.3995 17.7769Z" fill="#723CD9"/>
<path d="M26.4969 24.6743C26.8854 24.6743 27.1769 24.6743 27.5654 24.6743C27.954 24.6743 28.2454 24.9657 28.2454 25.3543C28.3426 25.7429 28.0512 26.0343 27.5654 26.1315C26.7883 26.1315 26.0112 26.1315 25.234 26.1315C24.8454 26.1315 24.554 25.7429 24.6512 25.3543C24.6512 24.9657 24.9426 24.7715 25.3312 24.6743H25.4283C25.8169 24.6743 26.1083 24.6743 26.4969 24.6743Z" fill="#723CD9"/>
</svg>
