<svg width="69" height="68" viewBox="0 0 69 68" fill="none" xmlns="http://www.w3.org/2000/svg">
<path d="M7.16553 40.6987C7.16553 40.3101 7.26267 39.2415 7.26267 39.1444C7.45696 37.1044 8.2341 35.1615 9.30267 33.413C12.6055 28.0701 16.0055 22.6301 19.3084 17.1901C20.8627 14.6644 23.8741 13.2072 26.6912 13.693C29.7998 14.1787 32.3255 16.413 33.0055 19.3272C33.1998 20.1044 33.1998 20.9787 33.297 21.7558C34.1712 21.7558 35.0455 21.7558 35.9198 21.7558C35.9198 21.4644 35.9198 21.2701 35.9198 21.0758C36.017 17.773 38.2512 14.8587 41.457 13.9844C44.6627 13.1101 48.1598 14.4701 49.9084 17.2872C53.3084 22.8244 56.6112 28.2644 60.0112 33.8015C60.7884 35.0644 61.3712 36.4244 61.6627 37.9787C61.7598 38.3672 61.857 38.7558 61.857 39.0472C61.857 39.2415 61.9541 40.4072 61.9541 40.7958C61.9541 41.1844 61.857 42.253 61.857 42.3501C61.177 48.4701 56.0284 53.3272 50.0055 53.7158C42.817 54.2015 36.7941 49.1501 36.017 42.0587C35.9198 41.3787 35.9198 40.6015 35.9198 39.8244C35.0455 39.8244 34.1712 39.8244 33.297 39.8244C33.1998 40.893 33.1998 41.9615 33.0055 42.933C32.0341 48.7615 26.8855 53.4244 21.057 53.7158C14.7427 54.0072 9.20553 50.1215 7.5541 44.1958C7.45696 43.7101 7.35981 43.2244 7.26267 42.6415C7.26267 42.3501 7.16553 41.0872 7.16553 40.6987ZM54.9598 28.9444C54.8627 28.7501 54.7655 28.5558 54.6684 28.3615C52.6284 25.0587 50.5884 21.7558 48.5484 18.3558C47.0912 16.0244 44.5655 14.8587 42.0398 15.6358C39.5141 16.3158 37.8627 18.5501 37.8627 21.2701C37.8627 25.3501 37.8627 29.333 37.8627 33.413C37.8627 33.5101 37.8627 33.7044 37.8627 33.8015C42.3312 27.7787 47.9655 26.2244 54.9598 28.9444ZM31.3541 33.8987C31.3541 33.8015 31.4512 33.7044 31.4512 33.7044C31.4512 29.4301 31.4512 25.253 31.4512 20.9787C31.4512 18.453 29.6055 16.3158 27.177 15.733C24.7484 15.053 22.2227 16.1215 20.8627 18.2587C18.7255 21.7558 16.5884 25.1558 14.5484 28.653C14.4512 28.7501 14.4512 28.9444 14.257 29.1387C17.3655 27.6815 20.4741 27.293 23.777 28.2644C26.9827 29.0415 29.5084 30.9844 31.3541 33.8987ZM20.1827 51.8701C26.3998 51.8701 31.3541 46.8187 31.3541 40.6987C31.3541 34.5787 26.3027 29.5272 20.1827 29.5272C13.9655 29.5272 8.9141 34.5787 8.9141 40.7958C9.01124 46.8187 14.0627 51.8701 20.1827 51.8701ZM49.0341 51.8701C55.1541 51.8701 60.2055 46.9158 60.2055 40.6987C60.2055 34.4815 55.2512 29.4301 49.0341 29.4301C42.9141 29.4301 37.8627 34.4815 37.8627 40.6015C37.7655 46.8187 42.817 51.8701 49.0341 51.8701ZM35.9198 33.413C35.9198 30.1101 35.9198 26.9044 35.9198 23.6015C35.0455 23.6015 34.1712 23.6015 33.1998 23.6015C33.1998 26.9044 33.1998 30.1101 33.1998 33.413C34.1712 33.413 35.0455 33.413 35.9198 33.413ZM33.297 37.8815C34.2684 37.8815 35.1427 37.8815 36.017 37.8815C36.017 37.0072 36.017 36.2301 36.017 35.3558C35.1427 35.3558 34.2684 35.3558 33.297 35.3558C33.297 36.133 33.297 37.0072 33.297 37.8815Z" fill="#723CD9"/>
<path d="M20.1826 49.3446C15.4226 49.3446 11.4397 45.4589 11.4397 40.6017C11.4397 35.7446 15.3254 31.8589 20.1826 31.8589C25.0397 31.8589 28.9254 35.7446 28.9254 40.6017C28.9254 45.4589 25.0397 49.3446 20.1826 49.3446ZM13.2854 40.6017C13.2854 44.3903 16.2968 47.4989 20.0854 47.4989C23.874 47.4989 26.9826 44.3903 26.9826 40.6017C26.9826 36.8132 23.874 33.7046 20.1826 33.7046C16.394 33.7046 13.2854 36.8132 13.2854 40.6017Z" fill="#723CD9"/>
<path d="M49.0342 49.3446C44.1771 49.3446 40.2914 45.3617 40.3885 40.5046C40.3885 35.7446 44.3714 31.8589 49.1314 31.8589C53.8914 31.8589 57.7771 35.8417 57.7771 40.6017C57.6799 45.4589 53.7942 49.3446 49.0342 49.3446ZM55.9314 40.6017C55.9314 36.8132 52.8228 33.7046 49.0342 33.7046C45.2456 33.7046 42.1371 36.8132 42.1371 40.6017C42.1371 44.3903 45.2456 47.4989 49.0342 47.4989C52.8228 47.596 55.9314 44.4875 55.9314 40.6017Z" fill="#723CD9"/>
</svg>
