<svg width="69" height="68" viewBox="0 0 69 68" fill="none" xmlns="http://www.w3.org/2000/svg">
<path d="M20.9434 24.0986C23.6041 23.8554 26.128 23.6273 28.6671 23.3841C29.6706 23.2929 30.6588 23.1409 31.6623 23.1105C32.1184 23.0953 32.5897 23.2777 33.0307 23.4449C33.3955 23.5817 33.6692 23.5665 33.9885 23.3689C35.2809 22.548 36.634 22.4568 38.0784 22.9889C39.1579 23.3993 40.283 23.6881 41.3777 24.0834C43.1109 24.7067 44.7682 24.509 46.4254 23.6273C46.1213 23.0041 46.5014 22.6392 46.9728 22.2744C49.9376 19.9941 52.8871 17.6987 55.8519 15.4032C56.7338 14.7191 57.2507 14.9015 57.494 15.9809C59.0144 22.624 60.5348 29.252 62.0704 35.8951C62.192 36.412 62.0552 36.7768 61.5839 37.0353C60.1395 37.8409 58.7103 38.6618 57.2659 39.4523C56.6882 39.7716 56.3385 39.6804 55.9736 39.1027C55.6239 38.5554 55.3046 38.0082 54.8941 37.3545C54.0275 38.2362 53.2216 39.0875 52.3854 39.8932C51.8989 40.3644 51.5644 40.8205 51.5188 41.5654C51.4124 43.0551 50.2568 44.1193 48.7821 44.3169C48.6452 44.3321 48.5236 44.3625 48.3563 44.3929C48.4172 45.4418 48.1435 46.3539 47.3833 47.0836C46.6231 47.8133 45.7108 48.0869 44.6161 47.9805C44.5249 49.0902 44.1296 50.0327 43.1566 50.656C42.1987 51.2793 41.1648 51.2945 40.0853 50.884C40.0397 51.0968 40.0093 51.2641 39.9637 51.4313C39.4316 53.4075 37.2574 54.35 35.4177 53.3619C34.2926 52.769 33.1979 52.1154 32.1184 51.4617C31.7535 51.2337 31.495 51.2033 31.191 51.5377C30.8717 51.8873 30.4916 52.1762 30.1267 52.4802C28.2718 54.0308 25.7023 53.2859 24.9421 50.9904C24.9117 50.9144 24.8965 50.8536 24.8509 50.732C23.817 51.2337 22.7679 51.3249 21.734 50.7776C20.7306 50.2303 20.1832 49.3638 20.0312 48.1781C18.9669 48.3757 17.9786 48.1781 17.1576 47.4636C16.3518 46.7644 15.9717 45.8675 15.9717 44.8033C12.8549 44.5449 11.897 41.7174 13.1894 39.6804C12.7789 39.3611 12.3683 39.0419 11.9274 38.7074C11.7602 38.9811 11.6233 39.2243 11.4561 39.4523C11.1368 39.9084 10.7719 40.03 10.2854 39.7716C8.79539 38.9507 7.30539 38.0994 5.81539 37.2633C5.35927 37.0048 5.29846 36.6248 5.42009 36.1383C6.5756 30.985 7.74631 25.8316 8.93223 20.6782C9.28192 19.158 9.61641 17.6378 9.98131 16.1329C10.179 15.2664 10.7415 15.0536 11.4409 15.5856C14.5273 17.9571 17.5985 20.359 20.685 22.7304C21.1107 23.0497 21.2019 23.4449 20.9434 24.0986ZM31.4798 24.6915C31.2822 24.6458 31.2366 24.6306 31.2062 24.6306C27.6028 25.1931 23.969 25.4971 20.3201 25.6188C20.1072 25.6188 19.8183 25.8468 19.6967 26.0444C17.7962 29.0847 15.9261 32.1555 14.056 35.211C13.6151 35.9255 13.1894 36.6248 12.7332 37.3697C13.1742 37.7041 13.5847 37.993 13.98 38.3274C14.2536 38.5554 14.4361 38.5554 14.6946 38.3122C15.2267 37.8105 15.7893 37.3089 16.367 36.8528C18.0699 35.4999 20.5177 36.184 21.3083 38.2058C21.3691 38.373 21.4452 38.5402 21.506 38.7074C23.969 37.4001 26.4777 39.1331 26.5233 41.6566C28.6367 41.8086 29.7922 42.9639 29.9442 45.0922C31.2214 45.1378 32.2248 45.6242 32.8482 46.734C33.4716 47.8285 33.3499 48.9382 32.7722 50.0479C33.9277 50.7168 35.0224 51.3553 36.1323 51.9633C36.3299 52.0698 36.558 52.1458 36.7708 52.161C37.4854 52.237 38.1392 51.7961 38.3825 51.1425C38.6257 50.4432 38.4129 49.7895 37.7287 49.3182C35.9042 48.0413 34.0797 46.7948 32.2552 45.5178C31.6319 45.077 31.5102 44.6665 31.7991 44.2409C32.088 43.8152 32.5441 43.7848 33.1523 44.1953C34.3078 44.9858 35.4633 45.7914 36.6188 46.5819C37.9112 47.4788 39.2035 48.3909 40.4958 49.2878C41.028 49.6527 41.5905 49.6983 42.1683 49.3943C42.67 49.1206 42.9437 48.6798 42.9589 48.1021C42.9893 47.4332 42.6244 47.0076 42.1227 46.6579C39.7356 44.9706 37.3486 43.2832 34.9768 41.5806C34.3838 41.1549 34.2318 40.6837 34.5359 40.258C34.8247 39.8476 35.3265 39.8476 35.889 40.258C37.1814 41.1701 38.4585 42.0822 39.7508 42.9943C41.18 44.0128 42.5788 45.0314 44.008 46.0347C45.0571 46.7644 46.3342 46.3387 46.6535 45.1834C46.8511 44.4841 46.5775 43.8456 45.8629 43.3288C44.084 42.0366 42.2899 40.7597 40.511 39.4675C39.3403 38.6162 38.1696 37.7801 37.0141 36.9288C36.6948 36.7008 36.482 36.3664 36.6796 36.0015C36.8165 35.7583 37.1205 35.5303 37.3942 35.4695C37.5919 35.4239 37.896 35.6215 38.0936 35.7735C41.1496 37.9626 44.2056 40.1516 47.2464 42.3559C48.1131 42.9791 49.0861 42.9031 49.6639 42.143C50.2264 41.4133 50.0744 40.4556 49.2534 39.7868C45.2851 36.5488 41.3017 33.3108 37.3334 30.0729C37.0597 29.86 36.8773 29.8752 36.5732 29.9969C35.6305 30.3769 34.6727 30.7873 33.6844 31.0154C31.4798 31.5322 29.3361 31.2738 27.3747 30.0729C26.0824 29.2824 26.0976 27.6406 27.4052 26.8653C27.5572 26.7741 27.7092 26.7133 27.8613 26.6221C29.032 25.9988 30.1875 25.3755 31.4798 24.6915ZM47.2921 25.0259C46.9728 25.1627 46.7143 25.2539 46.4558 25.3755C44.6009 26.1812 42.7156 26.242 40.7999 25.5731C39.5836 25.1475 38.3521 24.7675 37.1205 24.3722C36.4364 24.1442 35.7826 24.205 35.144 24.5546C32.909 25.7556 30.6588 26.9413 28.4086 28.1422C28.2566 28.2182 28.1502 28.3855 28.0133 28.5071C28.1349 28.6135 28.2262 28.7655 28.363 28.8415C29.5489 29.5256 30.8261 29.7992 32.1944 29.6776C33.7148 29.556 35.1136 29.0391 36.4364 28.2943C36.9381 28.0054 37.3334 28.051 37.7743 28.4159C38.9298 29.3888 40.1157 30.3465 41.3017 31.3042C44.4945 33.9037 47.6874 36.5032 50.8346 39.0723C51.8533 38.0538 52.9024 37.0048 53.9818 35.9407C51.7925 32.3379 49.5575 28.7047 47.2921 25.0259ZM11.2889 17.4554C10.9088 19.1276 10.5439 20.7086 10.179 22.2896C9.16029 26.7589 8.12641 31.2282 7.12294 35.6975C7.07733 35.8647 7.13815 36.184 7.25978 36.26C8.29366 36.8832 9.35794 37.4609 10.4374 38.069C13.4022 33.25 16.3366 28.4767 19.3014 23.6577C16.6255 21.5903 13.98 19.5533 11.2889 17.4554ZM57.0075 37.7801C58.0261 37.2025 58.9992 36.64 59.9874 36.1231C60.3219 35.9407 60.4284 35.7735 60.3219 35.3783C59.4097 31.4714 58.5278 27.5494 57.6308 23.6273C57.1443 21.4991 56.6578 19.386 56.1408 17.1818C53.4497 19.2644 50.8042 21.3167 48.1435 23.3689C51.1083 28.203 54.0275 32.9612 57.0075 37.7801ZM19.7727 46.5819C19.94 46.4907 20.1528 46.3843 20.2897 46.2627C21.6428 45.1074 22.9808 43.9216 24.3035 42.7207C25.0485 42.0518 25.0941 41.1245 24.4404 40.3948C23.817 39.6956 22.8439 39.6195 22.0989 40.258C20.7306 41.4438 19.3926 42.6295 18.0547 43.8456C17.5225 44.3321 17.4009 44.9706 17.6594 45.609C17.857 46.0955 18.2979 46.4755 18.8149 46.6731C18.9517 46.7188 19.423 46.7644 19.7727 46.5819ZM21.6124 47.9349C21.6732 48.695 21.9621 49.151 22.5094 49.4095C23.1328 49.7135 23.741 49.6223 24.2579 49.1662C25.4438 48.1325 26.6297 47.0988 27.8005 46.0347C28.4694 45.4114 28.4846 44.4537 27.8765 43.8C27.2835 43.1615 26.3409 43.1007 25.6719 43.6784C24.486 44.7121 23.2849 45.7458 22.1445 46.81C21.9773 46.9772 21.8557 47.19 21.7644 47.3724C21.6884 47.5092 21.5972 47.8589 21.6124 47.9349ZM14.208 42.0062C14.3753 42.4623 14.6642 42.7967 15.1051 43.0095C15.7284 43.3136 16.3214 43.2224 16.8535 42.7663C17.6746 42.0518 18.4804 41.3373 19.2862 40.6229C20.0464 39.954 20.1528 39.0115 19.5447 38.3122C18.9213 37.5825 17.9634 37.5217 17.1728 38.2058C16.3366 38.9203 15.5004 39.6347 14.7098 40.3948C14.5273 40.562 14.4209 40.7901 14.2993 41.0333C14.2688 41.1093 14.1472 41.3373 14.132 41.5654C14.1168 41.763 14.1928 41.9606 14.208 42.0062ZM26.3257 50.2608C26.4473 50.8384 26.721 51.2489 27.2075 51.5225C27.77 51.8265 28.363 51.8265 28.8647 51.4313C29.6858 50.7624 30.4916 50.0631 31.2518 49.3334C31.8295 48.771 31.7839 47.8133 31.2366 47.2204C30.674 46.6123 29.7618 46.5211 29.1232 47.038C28.3326 47.6917 27.5572 48.3605 26.8274 49.075C26.6145 49.2878 26.3865 49.6071 26.3105 49.8959C26.3105 49.9567 26.3105 50.1999 26.3257 50.2608Z" fill="#723CD9"/>
</svg>
