<svg width="69" height="68" viewBox="0 0 69 68" fill="none" xmlns="http://www.w3.org/2000/svg">
<path d="M51.3655 24.1884H52.4341C52.4341 23.9941 52.4341 23.7998 52.4341 23.6056C52.4341 23.3141 52.5313 23.217 52.7255 23.1198C53.5998 22.7313 53.9884 22.0513 53.9884 21.177C53.9884 20.3027 53.5027 19.7198 52.7255 19.3313C52.337 19.137 51.8513 19.0398 51.5598 18.7484C51.3655 18.6513 51.1713 18.3598 51.1713 18.0684C51.0741 17.3884 51.5598 17.097 52.337 17.1941C52.6284 17.2913 52.9198 17.2913 53.3084 17.3884C53.4055 16.9027 53.4055 16.6113 53.4055 16.2227C53.017 16.1256 52.6284 16.0284 52.2398 15.9313V15.1541H51.0741C51.0741 15.4456 51.0741 15.5427 51.0741 15.737C51.0741 15.9313 50.977 16.0284 50.7827 16.1256C49.9084 16.5141 49.617 17.1941 49.617 18.0684C49.617 18.9427 50.1027 19.5256 50.8798 19.9141C51.2684 20.1084 51.657 20.2056 52.0455 20.3998C52.2398 20.497 52.4341 20.6913 52.5313 20.9827C52.7255 21.4684 52.2398 21.9541 51.657 21.9541C50.977 21.9541 50.297 21.7598 49.7141 21.6627C49.7141 21.9541 49.617 22.2456 49.617 22.537C49.617 22.6341 49.617 22.7313 49.617 22.8284C49.9084 22.9256 50.1998 23.0227 50.4913 23.0227C51.2684 23.3141 51.2684 23.3141 51.3655 24.1884ZM18.6284 38.5656C18.7255 38.4684 18.9198 38.3713 19.017 38.2741C22.3198 35.9427 25.5255 33.6113 28.8284 31.2798C29.1198 31.0856 29.4113 30.9884 29.7027 31.1827C32.8113 32.4456 35.9198 33.8056 39.0284 35.0684C39.2227 35.1656 39.417 35.1656 39.7084 35.2627C39.9027 35.1656 40.1941 35.0684 40.3884 34.8741C42.6227 33.1256 44.857 31.377 47.0913 29.5313C47.4798 29.2398 47.9655 28.8513 48.3541 28.5598C48.6455 28.2684 48.7427 27.7827 48.4513 27.4913C48.257 27.1998 47.7713 27.1027 47.3827 27.297C47.2855 27.3941 47.1884 27.3941 47.0913 27.4913C44.6627 29.4341 42.3313 31.2798 39.9027 33.2227C39.6113 33.417 39.417 33.5141 39.0284 33.3198C35.9198 32.057 32.8113 30.697 29.7027 29.4341C29.217 29.2398 28.8284 29.2398 28.3427 29.6284C24.9427 32.057 21.4455 34.5827 18.0455 37.0113C17.9484 37.1084 17.7541 37.2056 17.657 37.3027C17.4627 37.5941 17.4627 37.9827 17.657 38.2741C17.9484 38.6627 18.337 38.7598 18.6284 38.5656ZM60.3027 54.3027C60.1084 54.0113 59.817 54.0113 59.4284 54.0113C58.3598 54.0113 57.2913 54.0113 56.1255 54.0113V53.3313C56.1255 46.2398 56.1255 39.0513 56.1255 31.9598C56.1255 31.0856 55.9313 30.8913 55.057 30.8913C52.9198 30.8913 50.7827 30.8913 48.7427 30.8913C47.6741 30.8913 47.4798 31.0856 47.4798 32.1541C47.4798 39.2456 47.4798 46.2398 47.4798 53.3313V54.0113H44.857V53.3313C44.857 48.7656 44.857 44.297 44.857 39.7313C44.857 38.857 44.6627 38.6627 43.6913 38.6627C41.5541 38.6627 39.5141 38.6627 37.377 38.6627C36.3084 38.6627 36.2113 38.857 36.2113 39.9256C36.2113 44.3941 36.2113 48.8627 36.2113 53.4284V54.1084H33.5884C33.5884 53.9141 33.5884 53.6227 33.5884 53.4284C33.5884 48.4741 33.5884 43.617 33.5884 38.6627C33.5884 37.7884 33.3941 37.5941 32.5198 37.5941C30.3827 37.5941 28.2455 37.5941 26.1084 37.5941C25.137 37.5941 24.9427 37.7884 24.9427 38.7598C24.9427 43.7141 24.9427 48.5713 24.9427 53.5256V54.1084H22.3198V53.5256C22.3198 50.1256 22.3198 46.6284 22.3198 43.2284C22.3198 42.3541 22.0284 42.1598 21.2513 42.1598C19.1141 42.1598 16.8798 42.1598 14.7427 42.1598C13.8684 42.1598 13.577 42.3541 13.577 43.2284C13.577 46.6284 13.577 50.1256 13.577 53.5256V54.1084C12.4113 54.1084 11.3427 54.1084 10.2741 54.1084C9.88554 54.1084 9.49697 54.2056 9.20554 54.497C9.20554 54.497 9.1084 54.6913 9.1084 54.7884V55.3713C9.1084 55.4684 9.30268 55.5656 9.30268 55.5656H59.9141C60.0113 55.5656 60.2055 55.3713 60.2055 55.2741V54.5941C60.3998 54.5941 60.3998 54.3999 60.3027 54.3027ZM20.7655 54.0113H15.2284V43.617H20.6684V54.0113H20.7655ZM32.0341 54.0113H26.5941V39.0513H32.0341V54.0113ZM43.3027 53.9141H37.8627V40.217H43.3027V53.9141ZM54.5713 54.0113H49.1313V32.4456H54.5713V54.0113ZM52.4341 26.617C55.737 26.3256 58.3598 23.7027 58.7484 20.3027C59.137 17.097 56.9998 13.9884 53.8913 13.017C53.697 12.9198 53.2113 12.8227 52.7255 12.7256C52.337 12.6284 51.8513 12.6284 51.7541 12.6284C51.5598 12.6284 50.8798 12.7256 50.7827 12.7256C46.9941 13.3084 44.3713 16.7084 44.857 20.6913C45.2455 24.2856 48.6455 27.0056 52.4341 26.617ZM51.7541 14.1827C54.7655 14.1827 57.1941 16.6113 57.2913 19.6227C57.2913 22.6341 54.8627 25.0627 51.8513 25.0627C48.7427 25.0627 46.3141 22.6341 46.3141 19.6227C46.3141 16.6113 48.7427 14.1827 51.7541 14.1827Z" fill="#723CD9"/>
</svg>
