<svg width="69" height="68" viewBox="0 0 69 68" fill="none" xmlns="http://www.w3.org/2000/svg">
<path d="M55.4655 56.9C55.3655 56.9 55.0655 56.9 55.0655 56.9C54.6655 56.7 54.2655 56.4 53.7655 55.9C50.6655 52.8 47.4655 49.6 44.3655 46.5L42.0655 44.2C41.9655 44.1 41.8655 44 41.8655 44L41.5655 43.7L41.2655 43.8L41.0655 43.9C40.9655 43.9 40.9655 44 40.8655 44C37.4655 46.4 33.8655 47.7 29.9655 47.7C28.7655 47.7 27.5655 47.6 26.3655 47.4C19.2655 46.1 13.3655 40.3 11.8655 33.3C11.7655 32.7 11.6655 32.1 11.5655 31.4L11.4655 31C11.4655 30.9 11.3655 29.7 11.3655 29.2C11.3655 28.8 11.4655 27.6 11.4655 27.5V27.4C11.5655 26.9 11.6655 26.3 11.6655 25.8C12.9655 18.8 18.7655 12.8 25.7655 11.4C26.3655 11.3 27.0655 11.2 27.7655 11.1H28.0655C28.1655 11.1 29.3655 11 29.8655 11C30.2655 11 31.1655 11.1 31.3655 11.1C31.7655 11.2 32.0655 11.2 32.3655 11.3C33.0655 11.4 33.7655 11.5 34.4655 11.7C39.8655 12.9 44.2655 16.7 46.5655 21.9C48.8655 27.1 48.6655 32.9 46.0655 37.9C45.7655 38.5 45.3655 39.2 44.8655 39.8C44.6655 40.1 44.4655 40.4 44.2655 40.7C44.0655 41.1 44.2655 41.3 44.6655 41.7L48.9655 46C51.3655 48.4 53.7655 50.8 56.1655 53.2C56.6655 53.7 57.0655 54.1 57.2655 54.7C57.2655 54.7 57.2655 55 57.2655 55.1C57.2655 55.2 57.2655 55.5 57.2655 55.6C57.0655 56.3 56.5655 56.7 55.8655 57C55.8655 56.9 55.6655 56.9 55.4655 56.9ZM29.7655 14.6C21.6655 14.6 15.0655 21.2 15.0655 29.3C15.0655 37.4 21.6655 44 29.7655 44.1C37.8655 44.1 44.4655 37.5 44.5655 29.4C44.5655 25.5 43.0655 21.8 40.2655 19C37.4655 16.2 33.7655 14.6 29.7655 14.6Z" fill="#723CD9"/>
</svg>
