<svg width="69" height="68" viewBox="0 0 69 68" fill="none" xmlns="http://www.w3.org/2000/svg">
<path d="M57.8197 39.9258C57.6254 40.6058 57.4311 41.383 57.1397 42.063C54.9054 46.7258 48.6882 47.7944 44.9968 44.2972C43.4425 42.8401 42.6654 40.9944 42.5682 38.8572C42.5682 38.5658 42.7625 38.2744 42.9568 37.983C43.054 37.7887 43.3454 37.5944 43.4425 37.4001C45.1911 33.6115 47.0368 29.7258 48.7854 25.9372C48.8825 25.8401 48.8825 25.6458 48.9797 25.4515C47.9111 25.1601 46.8425 24.8687 45.774 24.5772C43.3454 23.8972 40.9168 23.2172 38.4882 22.4401C38.1968 22.343 38.0997 22.343 37.9054 22.6344C37.4197 23.4115 36.6425 23.9944 35.7682 24.2858C35.4768 24.383 35.4768 24.4801 35.4768 24.7715C35.4768 26.0344 35.4768 27.2972 35.4768 28.5601C35.4768 33.3201 35.4768 37.983 35.4768 42.743C35.4768 42.9372 35.4768 43.1315 35.4768 43.3258C35.6711 43.3258 35.8654 43.3258 35.9625 43.3258C36.7397 43.3258 37.5168 43.3258 38.3911 43.3258C40.4311 43.423 41.8882 44.9772 41.9854 47.0172C41.9854 47.503 42.0825 47.6972 42.6654 47.8915C44.1225 48.3772 45.094 49.8344 45.094 51.5829C45.094 51.8744 45.094 52.1658 45.094 52.4572C45.094 53.3315 44.7054 53.7201 43.8311 53.7201C39.4597 53.7201 34.9911 53.7201 30.6197 53.7201C28.8711 53.7201 27.0254 53.7201 25.2768 53.7201C24.4025 53.7201 24.014 53.3315 24.014 52.4572C24.014 51.583 24.014 50.7087 24.4025 49.8344C24.8882 48.8629 25.6654 48.0858 26.734 47.7944C27.0254 47.6972 27.1225 47.6001 27.1225 47.3087C27.2197 44.8801 28.774 43.423 31.1054 43.3258C31.7854 43.3258 32.4654 43.3258 33.2425 43.3258C33.534 43.3258 33.6311 43.2287 33.6311 42.9372C33.6311 36.9144 33.6311 30.7944 33.6311 24.7715C33.6311 24.4801 33.534 24.383 33.2425 24.2858C31.5911 23.703 30.6197 22.5372 30.4254 20.6915C30.4254 20.303 30.2311 20.0115 29.8425 19.9144C26.9282 19.1372 24.014 18.263 21.0025 17.3887C20.9054 17.3887 20.7111 17.2915 20.5168 17.2915C20.5168 17.4858 20.5168 17.583 20.614 17.6801C22.2654 21.1772 23.9168 24.7715 25.5682 28.2687C25.6654 28.463 25.7625 28.5601 25.9568 28.7544C26.2482 29.0458 26.4425 29.3372 26.4425 29.7258C26.4425 32.9315 24.014 36.0401 21.0025 36.9144C17.6997 37.8858 14.494 36.7201 12.454 33.903C11.774 32.9315 11.2882 31.7658 11.1911 30.503C11.1911 30.4058 11.094 30.0172 11.094 29.9201C11.094 29.7258 11.094 29.6287 11.094 29.4344C10.9968 29.4344 11.094 29.143 11.094 29.143C11.2882 28.8515 11.5797 28.6572 11.774 28.2687C13.6197 24.4801 15.3682 20.5944 17.214 16.7087C17.214 16.6115 17.3111 16.5144 17.3111 16.3201C16.8254 16.223 16.3397 16.0287 15.854 15.9315C15.2711 15.7372 14.6882 15.6401 14.2025 15.4458C13.7168 15.2515 13.4254 14.7658 13.5225 14.2801C13.7168 13.7944 14.1054 13.6001 14.5911 13.6001C14.7854 13.6001 14.9797 13.6972 15.174 13.6972C20.2254 15.1544 25.2768 16.6115 30.3282 18.0687C30.7168 18.1658 30.9111 18.1658 31.1054 17.7772C32.0768 16.4172 33.4368 15.8344 35.1854 16.1258C37.2254 16.4172 38.4882 17.8744 38.6825 19.9144C38.6825 20.303 38.8768 20.4972 39.2654 20.5944C42.7625 21.5658 46.1625 22.5372 49.6597 23.6058C51.3111 24.0915 52.9625 24.5772 54.5168 24.9658C54.9054 25.063 55.294 25.2572 55.3911 25.743C55.5854 26.5201 54.9054 27.0058 54.0311 26.8115C53.3511 26.6172 52.6711 26.423 51.894 26.2287C51.9911 26.423 51.9911 26.6172 52.0882 26.7144C52.9625 28.5601 53.7397 30.503 54.7111 32.3487C55.6825 34.2915 56.2654 36.4287 57.6254 38.0801C57.7225 38.1772 57.8197 38.663 57.8197 38.7601C57.9168 39.0515 57.9168 39.7315 57.8197 39.9258ZM18.6711 18.0687C17.0197 21.5658 15.4654 25.063 13.814 28.5601C17.1168 28.5601 20.3225 28.5601 23.6254 28.5601C21.8768 25.063 20.3225 21.5658 18.6711 18.0687ZM45.3854 37.5944C48.6882 37.5944 51.894 37.5944 55.0997 37.5944C53.4482 34.0972 51.894 30.6972 50.2425 27.103C48.5911 30.6972 46.9397 34.0972 45.3854 37.5944ZM44.6082 39.6344C44.9968 42.2572 47.5225 44.6858 50.7282 44.3944C53.5454 44.2001 55.6825 41.8687 55.8768 39.6344C52.0882 39.6344 48.3968 39.6344 44.6082 39.6344ZM13.0368 30.503C13.4254 33.1258 15.854 35.4572 19.0597 35.263C21.974 35.0687 24.1111 32.7372 24.4025 30.503C20.614 30.503 16.8254 30.503 13.0368 30.503ZM43.054 51.7772C43.1511 50.4172 42.374 49.543 40.9168 49.543C36.6425 49.543 32.3682 49.543 28.094 49.543C27.8997 49.543 27.7054 49.5429 27.414 49.6401C26.3454 49.8344 25.7625 50.8058 25.9568 51.8744C31.5911 51.7772 37.3225 51.7772 43.054 51.7772ZM40.0425 47.6001C40.1397 46.823 39.9454 46.2401 39.4597 45.7544C38.974 45.2687 38.3911 45.1715 37.8082 45.1715C35.574 45.1715 33.4368 45.1715 31.2025 45.1715C31.0082 45.1715 30.7168 45.1715 30.5225 45.2687C29.454 45.4629 28.774 46.5315 29.0654 47.6001C32.6597 47.6001 36.254 47.6001 40.0425 47.6001ZM34.5054 17.9715C33.2425 17.9715 32.2711 18.943 32.2711 20.2058C32.2711 21.4687 33.2425 22.4401 34.5054 22.4401C35.7682 22.4401 36.8368 21.4687 36.8368 20.1087C36.7397 19.0401 35.7682 17.9715 34.5054 17.9715Z" fill="#723CD9"/>
</svg>
