<svg width="16" height="16" viewBox="0 0 16 16" fill="none" xmlns="http://www.w3.org/2000/svg">
<g clip-path="url(#clip0_6053_3400)">
<path d="M0 7.4039C0 7.2504 0 7.0969 0 6.9434C0 6.89223 0.0153502 6.70291 0.0204669 6.66198C0.0716342 6.29357 0.107451 5.92517 0.199552 5.567C0.926127 2.77838 2.68628 0.982411 5.4749 0.225136C5.8433 0.122801 6.22194 0.0869843 6.60058 0.0307004C6.66198 0.0204669 6.89735 0 6.94851 0C7.09178 0 7.22993 0 7.3732 0C7.4346 0 7.65974 0.0153502 7.71602 0.0204669C7.93604 0.0460505 8.15606 0.0767509 8.37608 0.107451C13.4161 0.92101 16.0154 6.76431 13.2319 11.047C13.0681 11.2977 12.8839 11.5382 12.6844 11.8196C12.6792 11.8299 12.7867 11.922 12.8379 11.968C13.7742 12.9044 14.7106 13.8407 15.6469 14.772C15.8107 14.9357 15.9591 15.1046 16 15.3451C16 15.3706 15.9898 15.4525 15.9898 15.473C15.9079 15.7544 15.7186 15.9284 15.4269 16C15.4013 16 15.3758 16 15.3502 16C15.1199 15.9591 14.9511 15.8209 14.7925 15.6572C13.851 14.7106 12.9044 13.764 11.9578 12.8225C11.9117 12.7765 11.8606 12.7304 11.8094 12.6844C11.7685 12.7151 11.7429 12.7355 11.7173 12.7509C9.98785 14.117 8.02814 14.6594 5.874 14.2245C2.937 13.631 1.06428 11.8299 0.240486 8.94915C0.122801 8.53981 0.0869843 8.10489 0.0255836 7.6802C0.0153502 7.63927 0 7.45507 0 7.4039ZM13.1295 7.19923C13.1295 3.92453 10.4842 1.26895 7.20947 1.26383C3.93988 1.26383 1.26895 3.91429 1.26383 7.17877C1.25871 10.4688 3.91429 13.1295 7.20947 13.1295C10.4842 13.1346 13.1295 10.4791 13.1295 7.19923Z" fill="#723CD9"/>
<path d="M8.03837 6.58528C8.55516 6.58528 9.07195 6.58528 9.59385 6.58528C9.98784 6.58528 10.2641 6.836 10.2693 7.18906C10.2744 7.54211 9.98784 7.80818 9.58874 7.8133C9.07706 7.81841 8.56539 7.8133 8.05372 7.8133C7.70515 7.8133 7.22041 7.80818 6.3652 7.80818C5.83306 7.80818 5.30604 7.8133 4.7739 7.80818C4.44643 7.80306 4.19059 7.58816 4.14454 7.30162C4.09849 6.99462 4.25711 6.7132 4.54365 6.6211C4.63063 6.5904 4.73297 6.58528 4.82507 6.58528C5.33674 6.58017 5.84841 6.58528 6.36008 6.58528C6.3973 6.58814 7.89221 6.58528 8.03837 6.58528Z" fill="#723CD9"/>
</g>
<defs>
<clipPath id="clip0_6053_3400">
<rect width="16" height="16" fill="white"/>
</clipPath>
</defs>
</svg>
