<svg width="22" height="17" viewBox="0 0 22 17" fill="none" xmlns="http://www.w3.org/2000/svg">
<path fill-rule="evenodd" clip-rule="evenodd" d="M1.60006 0.200059C1.15823 -0.131312 0.53143 -0.0417689 0.200059 0.400059C-0.131312 0.841887 -0.0417689 1.46869 0.400059 1.80006L9.19371 8.3953L0.409845 14.8189C-0.0359522 15.1449 -0.133058 15.7706 0.192953 16.2164C0.518964 16.6622 1.14464 16.7593 1.59044 16.4333L10.8664 9.64981L20.4001 16.8001C20.8419 17.1314 21.4687 17.0419 21.8001 16.6001C22.1314 16.1582 22.0419 15.5314 21.6001 15.2001L12.5541 8.41559L21.5904 1.80733C22.0362 1.48132 22.1333 0.855643 21.8073 0.409846C21.4813 -0.0359518 20.8556 -0.133057 20.4098 0.192953L10.8814 7.16108L1.60006 0.200059Z" fill="#343D74"/>
</svg>
