<svg width="17" height="29" viewBox="0 0 17 29" fill="none" xmlns="http://www.w3.org/2000/svg">
<g clip-path="url(#clip0_53_6017)">
<path d="M13.9643 29C10.2607 29 6.54702 29 2.84345 29C2.73214 29 2.36786 28.938 2.29702 28.9276C0.930952 28.5761 0.010119 27.4078 0 25.9811C0 18.3201 0 10.6695 0 3.01889C0.010119 1.63351 0.890476 0.475579 2.18571 0.103387C2.29702 0.0723708 2.7625 0 2.89405 0C6.66845 0 10.4327 0 14.2071 0C14.2982 0 14.6827 0.0620321 14.7738 0.0930481C15.644 0.341176 16.2917 0.868449 16.6863 1.70588C16.7571 1.86096 16.8179 2.02638 16.8685 2.1918C16.9089 2.31586 16.9899 2.85348 16.9899 2.99822C16.9899 10.6178 16.9899 18.2374 16.9899 25.8467C16.9899 26.0431 16.9292 26.6014 16.9089 26.6841C16.6661 27.5836 16.15 28.266 15.3304 28.6795C15.1786 28.7519 15.0167 28.8139 14.8548 28.8656C14.7435 28.9173 14.1464 29 13.9643 29ZM4.10833 1.08556C3.75417 1.08556 3.4506 1.08556 3.15714 1.08556C1.83155 1.08556 1.07262 1.8713 1.07262 3.22567C1.07262 10.7316 1.07262 18.2374 1.07262 25.7433C1.07262 27.1287 1.83155 27.9041 3.17738 27.9144C6.71905 27.9144 10.2607 27.9144 13.8024 27.9144C15.2089 27.9144 15.9577 27.1494 15.9577 25.7123C15.9577 21.3287 15.9577 16.9554 15.9577 12.5718C15.9577 9.41854 15.9577 6.26524 15.9577 3.11194C15.9577 2.08841 15.381 1.29234 14.4298 1.13725C13.944 1.05455 13.4381 1.12692 12.9119 1.12692C12.9119 1.36471 12.922 1.6025 12.9119 1.82995C12.8714 2.6984 12.2238 3.39109 11.3839 3.40143C9.47143 3.4221 7.56905 3.4221 5.65655 3.40143C4.81667 3.39109 4.15893 2.6984 4.12857 1.82995C4.09821 1.6025 4.10833 1.36471 4.10833 1.08556ZM11.819 1.11658C9.58274 1.11658 7.3869 1.11658 5.17083 1.11658C5.17083 1.2303 5.17083 1.32335 5.17083 1.40606C5.16071 2.20214 5.28214 2.3262 6.06131 2.3262C7.66012 2.3262 9.26905 2.3262 10.8679 2.3262C11.7583 2.3262 11.8595 2.22282 11.8393 1.30267C11.8292 1.24064 11.8292 1.18895 11.819 1.11658Z" fill="black"/>
<path d="M8.49937 25.3301C9.53151 25.3301 10.5738 25.3301 11.6059 25.3301C12.0512 25.3301 12.294 25.5265 12.294 25.8677C12.294 26.2089 12.041 26.4156 11.6059 26.4156C9.53151 26.4156 7.45711 26.4156 5.39282 26.4156C4.9577 26.4156 4.71484 26.2089 4.71484 25.8677C4.71484 25.5162 4.94758 25.3404 5.40294 25.3301C6.42496 25.3301 7.46723 25.3301 8.49937 25.3301Z" fill="black"/>
</g>
<defs>
<clipPath id="clip0_53_6017">
<rect width="17" height="29" fill="white"/>
</clipPath>
</defs>
</svg>
