<svg width="41" height="41" viewBox="0 0 41 41" fill="none" xmlns="http://www.w3.org/2000/svg">
<circle cx="20.5" cy="20.5" r="20.5" fill="#39CADD"/>
<g clip-path="url(#clip0_43_4379)">
<path d="M20.9969 31C19.1713 31 17.3395 31.0063 15.5139 31C13.3132 30.9875 11.5314 29.5433 11.0938 27.4114C11.0313 27.0988 11.0063 26.7737 11.0063 26.4548C11 22.8162 11 19.1776 11 15.5389C11.0063 13.1882 12.613 11.3501 14.9325 11.0313C15.1325 11 15.3389 11 15.5389 11C19.1776 11 22.8224 11 26.4611 11C28.6805 11 30.4623 12.4379 30.9062 14.5824C30.9687 14.895 30.9937 15.2201 30.9937 15.5389C31 19.1776 31 22.8162 30.9937 26.4611C30.9875 28.6805 29.5558 30.4623 27.4114 30.9062C27.08 30.975 26.7299 30.9937 26.3861 30.9937C24.5917 31 22.7974 31 20.9969 31ZM27.4739 21.0031C27.4739 17.4333 24.5855 14.5386 21.0156 14.5261C17.4333 14.5199 14.5261 17.4083 14.5199 20.9906C14.5136 24.5667 17.4083 27.4739 20.9906 27.4802C24.573 27.4802 27.4739 24.5792 27.4739 21.0031ZM28.9806 14.326C28.9806 13.5633 28.3679 12.9569 27.6114 12.9631C26.855 12.9631 26.2485 13.5758 26.2485 14.3323C26.2485 15.0825 26.8675 15.7015 27.6177 15.7015C28.3742 15.6952 28.9869 15.0825 28.9806 14.326Z" fill="black"/>
<path d="M24.6672 21.0029C24.6609 23.0285 23.0291 24.6603 21.0035 24.6665C18.9654 24.6665 17.3336 23.0223 17.3399 20.9841C17.3461 18.9585 18.9841 17.333 21.016 17.333C23.0416 17.3393 24.6734 18.9773 24.6672 21.0029Z" fill="black"/>
</g>
<defs>
<clipPath id="clip0_43_4379">
<rect width="20" height="20" fill="white" transform="translate(11 11)"/>
</clipPath>
</defs>
</svg>
