<svg width="12" height="17" viewBox="0 0 12 17" fill="none" xmlns="http://www.w3.org/2000/svg">
<g clip-path="url(#clip0_8063_898)">
<path d="M5.74222 0C5.82667 0 5.91111 0 5.99556 0C6.06667 0 6.13333 0 6.20444 0C6.28 0 6.84444 0.0619792 7.04889 0.0973958C9.36889 0.491406 11.3111 2.31979 11.8267 4.60417C11.8844 4.85208 11.92 5.10885 11.96 5.3612C11.9689 5.42318 11.9911 5.66224 11.9911 5.71979C11.9911 5.89687 11.9911 6.07396 11.9911 6.25547C11.9911 6.30859 11.9689 6.48568 11.9644 6.52552C11.9022 7.21172 11.7333 7.87578 11.5022 8.52213C11.0178 9.88125 10.3156 11.1297 9.51556 12.3161C8.53333 13.7682 7.51556 15.1982 6.50667 16.6326C6.44444 16.7211 6.36 16.8008 6.27556 16.8716C6.22667 16.9159 6.13778 17.0044 5.99556 17.0044C5.87556 17.0044 5.8 16.9469 5.76889 16.9159C5.66667 16.8273 5.56 16.7388 5.48444 16.6281C5.11111 16.1146 4.75111 15.5878 4.38222 15.0698C3.36889 13.6443 2.34222 12.232 1.49333 10.7003C0.928889 9.67318 0.444444 8.62396 0.186667 7.48177C0.12 7.18958 0.08 6.89297 0.0311111 6.59635C0.0222222 6.53437 0 6.28203 0 6.22005C0 6.0474 0 5.87031 0 5.69766C0 5.64896 0.0177778 5.44531 0.0222222 5.39219C0.0488889 5.23281 0.0711111 5.06901 0.0977778 4.90964C0.471111 2.63411 2.35556 0.659635 4.61778 0.163802C4.86222 0.110677 5.10667 0.0752604 5.35111 0.0354167C5.42667 0.0221354 5.68444 0 5.74222 0ZM5.99556 15.6055C6.02222 15.5745 6.03556 15.5656 6.04444 15.5523C6.96444 14.2286 7.90667 12.9227 8.8 11.5857C9.56444 10.4479 10.2222 9.2526 10.6489 7.94219C10.9822 6.93281 11.1111 5.91016 10.8667 4.85651C10.4044 2.84661 8.69778 1.30156 6.63556 1.03594C4.56889 0.770312 2.52444 1.83281 1.56889 3.66563C0.902222 4.94948 0.853333 6.2776 1.25333 7.64115C1.59556 8.81432 2.12444 9.90339 2.78667 10.9216C3.64 12.2409 4.55111 13.5247 5.43556 14.8219C5.61778 15.0831 5.80444 15.3354 5.99556 15.6055Z" fill="#979797"/>
<path d="M9.00001 5.98542C8.99557 7.62786 7.64445 8.96927 5.99112 8.96484C4.34223 8.96042 2.99557 7.61458 3.00001 5.96771C3.00446 4.32526 4.35557 2.98828 6.0089 2.98828C7.66223 2.99271 9.00446 4.33854 9.00001 5.98542ZM4.00001 5.97656C4.00001 7.07005 4.90223 7.96875 6.00446 7.96875C7.09779 7.96875 7.99557 7.07448 8.00001 5.98542C8.00001 4.8875 7.10223 3.98438 6.00446 3.98438C4.90223 3.98438 4.00001 4.87865 4.00001 5.97656Z" fill="#979797"/>
</g>
<defs>
<clipPath id="clip0_8063_898">
<rect width="12" height="17" fill="white"/>
</clipPath>
</defs>
</svg>
