<svg width="22" height="33" viewBox="0 0 22 33" fill="none" xmlns="http://www.w3.org/2000/svg">
<g clip-path="url(#clip0_57_1699)">
<path d="M11.191 0C10.9804 0 10.7602 0 10.5496 0C10.4443 0 10.0614 0.0569293 9.96569 0.0664175C7.95541 0.389017 6.40461 1.40426 5.32289 3.10265C4.62407 4.20328 4.34646 5.42726 4.34646 6.71765C4.34646 10.029 4.34646 13.3309 4.35604 16.6423C4.35604 17.1262 4.39433 17.6101 4.46134 18.0845C4.99741 21.9462 9.24773 24.4796 12.962 23.1607C15.7477 22.174 17.4325 19.8114 17.442 16.8321C17.4516 13.4258 17.4516 10.0196 17.442 6.61328C17.4229 3.68143 15.7477 1.32835 12.9811 0.351064C12.6174 0.227717 12.244 0.151811 11.8707 0.0759057C11.7654 0.0474411 11.3155 0 11.191 0Z" fill="#979797"/>
<path d="M21.4803 16.6516C21.1643 16.0444 20.7719 15.8167 20.1975 15.9021C19.6423 15.9875 19.2785 16.386 19.2115 16.9363C19.1158 17.7048 19.0966 18.4923 18.8765 19.2229C18.0245 22.1548 16.1003 24.1189 13.1328 24.9443C9.61956 25.9216 6.22122 24.6787 4.08649 21.7468C3.19622 20.5228 2.70801 19.1281 2.62185 17.6194C2.61228 17.4012 2.59313 17.1925 2.57399 16.9742C2.52612 16.3765 2.14321 15.978 1.55927 15.9021C1.03277 15.8357 0.58285 16.0823 0.353102 16.5568C0.333956 16.6042 0.27652 16.775 0.266947 16.8794C0.257374 16.9742 0.247801 17.0976 0.247801 17.2209C0.247801 17.4866 0.27652 17.7428 0.27652 17.7807C0.381821 19.4601 0.870033 21.0257 1.75073 22.4679C3.19622 24.8495 5.27352 26.4435 7.97304 27.2215C8.53784 27.3828 9.13135 27.4777 9.69615 27.601C9.69615 28.6258 9.69615 29.641 9.69615 30.6752C9.56213 30.6752 9.43768 30.6752 9.32281 30.6752C8.02091 30.6752 6.71901 30.6752 5.42668 30.6847C4.93847 30.6847 4.5747 30.9219 4.38325 31.3679C4.18222 31.8233 4.24923 32.2597 4.59385 32.6203C4.70872 32.7436 4.87146 32.829 5.02462 32.9144C5.07249 32.9429 5.36924 32.9998 5.46497 32.9998C9.07391 32.9998 12.6829 32.9998 16.3014 32.9998C16.4067 32.9998 16.8183 32.886 16.914 32.8385C17.0193 32.7721 17.1246 32.7057 17.2108 32.6203C17.5554 32.2597 17.6128 31.8233 17.4214 31.3679C17.2299 30.9219 16.8662 30.6847 16.378 30.6847C15.0665 30.6752 13.755 30.6847 12.4435 30.6752C12.3287 30.6752 12.2138 30.6752 12.0989 30.6752C12.0989 29.6125 12.0989 28.5973 12.0989 27.5726C12.1755 27.5536 12.2425 27.5346 12.2999 27.5251C13.8029 27.3354 15.2005 26.8515 16.4833 26.0545C18.8669 24.5648 20.4464 22.4774 21.1739 19.7733C21.3462 19.1186 21.4228 18.4354 21.5281 17.7618C21.5377 17.6859 21.5664 17.4012 21.5664 17.3443C21.5664 17.2399 21.5664 17.1355 21.5664 17.0312C21.5568 16.9553 21.4994 16.7086 21.4803 16.6516Z" fill="#979797"/>
</g>
<defs>
<clipPath id="clip0_57_1699">
<rect width="21.309" height="33" fill="white" transform="matrix(-1 0 0 1 21.5586 0)"/>
</clipPath>
</defs>
</svg>
