<svg width="41" height="41" viewBox="0 0 41 41" fill="none" xmlns="http://www.w3.org/2000/svg">
<path d="M18.3288 14.1971C14.3665 6.46912 2.67641 9.13254 2.56348 17.9383C2.5766 20.143 3.45823 22.2536 5.0172 23.8125C6.57616 25.3714 8.6868 26.253 10.8914 26.266C16.9666 26.3687 21.1669 19.5604 18.3288 14.1971ZM15.1706 16.01L10.0842 20.7953C9.97346 20.9037 9.82669 20.9676 9.67189 20.9747C9.51709 20.9818 9.3651 20.9316 9.24495 20.8337L6.6505 18.7838C6.58446 18.7317 6.52934 18.667 6.48828 18.5935C6.44723 18.5201 6.42105 18.4393 6.41123 18.3557C6.40142 18.2721 6.40816 18.1874 6.43108 18.1064C6.45399 18.0254 6.49263 17.9498 6.54479 17.8837C6.59695 17.8177 6.66161 17.7626 6.73507 17.7215C6.80853 17.6805 6.88936 17.6543 6.97294 17.6445C7.05652 17.6347 7.14122 17.6414 7.22219 17.6643C7.30316 17.6872 7.37883 17.7259 7.44487 17.778L9.60371 19.4884L14.2994 15.0811C14.4229 14.9672 14.5863 14.9068 14.7541 14.9129C14.922 14.919 15.0806 14.9911 15.1955 15.1136C15.3104 15.2361 15.3722 15.3991 15.3676 15.5669C15.3629 15.7348 15.2921 15.894 15.1706 16.01Z" fill="#723CD9"/>
<path d="M12 27.4767V34.6514C12.158 39.6565 19.4151 39.6523 19.572 34.6515V22.0508C18.8734 23.523 17.812 24.7934 16.4874 25.7426C15.1628 26.6918 13.6186 27.2885 12 27.4767Z" fill="#723CD9"/>
<path d="M2.56348 22.7168V34.6512C2.7214 39.6563 9.97874 39.6521 10.1355 34.6513V27.5086C8.57742 27.3911 7.0721 26.8926 5.7518 26.0571C4.4315 25.2216 3.33665 24.0745 2.56348 22.7168Z" fill="#723CD9"/>
<path d="M25.2157 7.88672C24.2118 7.88758 23.2493 8.28674 22.5395 8.99656C21.8297 9.70638 21.4306 10.6688 21.4297 11.6727V34.6511C21.5886 39.6595 28.8465 39.6483 29.0017 34.6512V11.6726C29.0008 10.6688 28.6016 9.70634 27.8918 8.99654C27.182 8.28673 26.2195 7.88758 25.2157 7.88672Z" fill="#723CD9"/>
<path d="M30.8652 6.34957V34.6515C31.0245 39.6612 38.2827 39.6471 38.4372 34.6515V6.34957C38.278 1.33995 31.0197 1.3541 30.8652 6.34957Z" fill="#723CD9"/>
</svg>
