<svg width="17" height="14" viewBox="0 0 17 14" fill="none" xmlns="http://www.w3.org/2000/svg">
<g clip-path="url(#clip0_8063_907)">
<path d="M17 4.50375C17 6.98117 17 9.4586 17 11.9314C17 12.0057 16.9774 12.2056 16.9729 12.2335C16.8283 13.1073 16.2273 13.7581 15.3822 13.9486C15.3145 13.9626 15.075 13.9998 15.0253 13.9998C10.7097 13.9998 6.39421 13.9998 2.07416 13.9998C1.99282 13.9998 1.75332 13.9719 1.71717 13.9672C0.894737 13.8092 0.347953 13.3165 0.0858586 12.4984C0.0497076 12.3869 0 12.0057 0 11.9267C0 9.47719 0 7.02765 0 4.58277C0 4.48051 0.0271132 4.22022 0.0316321 4.19233C0.194312 3.21158 0.939926 2.50508 1.90696 2.45395C2.4899 2.42141 3.07735 2.44 3.66481 2.44C3.76874 2.44 3.83652 2.40747 3.89075 2.31451C4.17092 1.86829 4.45561 1.43137 4.7403 0.989805C4.92105 0.706273 5.13796 0.44598 5.44072 0.30189C5.6757 0.190336 5.92424 0.120615 6.17278 0.0415979C6.21797 0.0276537 6.40776 -0.00488281 6.45295 -0.00488281C7.82217 -0.00488281 9.19139 -0.00488281 10.5606 -0.00488281C10.6058 -0.00488281 10.7368 0.0137095 10.7549 0.0183576C11.4373 0.106671 11.9434 0.464573 12.3094 1.05953C12.5715 1.4825 12.8472 1.89153 13.1093 2.31451C13.168 2.40747 13.2313 2.44 13.3352 2.44C13.8549 2.43536 14.3745 2.43536 14.8942 2.44C15.7076 2.44465 16.3402 2.78861 16.7379 3.52301C16.8373 3.70428 16.887 3.9088 16.9458 4.10866C16.9638 4.16444 17 4.42473 17 4.50375ZM8.50904 2.87692C5.99654 2.86298 3.93142 4.96856 3.92238 7.56218C3.91334 10.1512 5.95587 12.28 8.49548 12.2846C11.0486 12.2846 13.0686 10.193 13.0867 7.60402C13.0957 5.01039 11.0396 2.89087 8.50904 2.87692ZM14.3113 5.39618C14.4694 5.38688 14.6457 5.39153 14.8129 5.35899C15.0885 5.30787 15.2783 5.03828 15.2648 4.7501C15.2512 4.44332 15.0298 4.17838 14.7451 4.15979C14.4514 4.1412 14.1576 4.1412 13.8684 4.15979C13.5657 4.17838 13.3397 4.43403 13.3216 4.7408C13.3081 5.03828 13.5069 5.30787 13.8052 5.35899C13.9678 5.39153 14.135 5.38688 14.3113 5.39618Z" fill="black"/>
<path d="M8.49099 10.1933C7.07206 10.1794 5.93331 9.0034 5.95138 7.57644C5.96946 6.13554 7.13081 4.95493 8.51358 4.96887C9.93251 4.98746 11.0713 6.16343 11.0532 7.59039C11.0351 9.03129 9.87828 10.2073 8.49099 10.1933Z" fill="black"/>
</g>
<defs>
<clipPath id="clip0_8063_907">
<rect width="17" height="14" fill="white"/>
</clipPath>
</defs>
</svg>
