<svg width="15" height="15" viewBox="0 0 15 15" fill="none" xmlns="http://www.w3.org/2000/svg">
<circle cx="7.5" cy="7.5" r="7.5" fill="#E8ECF2"/>
<path d="M6.20106 8.35365C6.20106 8.11183 6.25978 7.87346 6.37724 7.63855C6.50161 7.40363 6.61561 7.2309 6.71925 7.12035C6.82289 7.00981 6.98525 6.84744 7.20635 6.63325C7.35835 6.49507 7.47236 6.38797 7.54836 6.31197C7.62436 6.22906 7.69691 6.12888 7.766 6.01142C7.83509 5.88705 7.86964 5.7696 7.86964 5.65905C7.86964 5.29977 7.68654 5.12013 7.32035 5.12013C6.91962 5.12013 6.68125 5.3965 6.60525 5.94924H4.61539C4.64302 5.15468 4.91594 4.54321 5.43413 4.11484C5.95232 3.67955 6.63634 3.46191 7.48617 3.46191C8.31528 3.46191 8.95439 3.63464 9.40349 3.98011C9.8595 4.32557 10.0875 4.81958 10.0875 5.46214C10.0875 6.00797 9.85259 6.51579 9.38276 6.98562C9.28603 7.08235 9.15475 7.20672 8.98893 7.35872C8.82311 7.50382 8.69183 7.62127 8.59511 7.71109C8.49838 7.80091 8.4051 7.91146 8.31528 8.04274C8.22546 8.1671 8.16673 8.28456 8.1391 8.39511V8.48838H6.20106V8.35365ZM7.17526 11.1104C6.83671 11.1104 6.54997 11.0068 6.31506 10.7995C6.08705 10.5853 5.97305 10.3262 5.97305 10.0222C5.97305 9.71823 6.08705 9.45913 6.31506 9.24494C6.54997 9.03076 6.83671 8.92366 7.17526 8.92366C7.49999 8.92366 7.77636 9.03076 8.00437 9.24494C8.23928 9.45913 8.35674 9.71823 8.35674 10.0222C8.35674 10.3262 8.23928 10.5853 8.00437 10.7995C7.77636 11.0068 7.49999 11.1104 7.17526 11.1104Z" fill="#1A2C3C"/>
</svg>
