<svg width="30" height="38" viewBox="0 0 30 38" fill="none" xmlns="http://www.w3.org/2000/svg">
<g clip-path="url(#clip0_72_5565)">
<path d="M0.0399971 32.9282C0.0959988 32.2454 0.151999 31.5626 0.239998 30.8799C0.527998 28.6527 0.823999 26.4255 1.536 24.2878C1.768 23.5887 2.088 22.9872 2.496 22.467C2.912 21.8899 3.408 21.4754 3.992 21.1827C4.336 20.9877 4.712 20.817 5.128 20.6788C6.232 20.313 7.304 19.8497 8.376 19.4026C8.608 19.3051 8.696 19.427 8.8 19.5489C8.856 19.5896 8.904 19.6302 8.968 19.6871C9.84 20.5325 10.768 21.1502 11.736 21.5566C11.84 21.5973 11.944 21.6298 12.056 21.6623C13.072 21.9793 14.056 22.15 15.008 22.1663C15.96 22.15 16.952 21.9793 17.96 21.6623C18.064 21.6298 18.176 21.5892 18.28 21.5566C19.248 21.1502 20.176 20.5325 21.048 19.6871C21.104 19.6302 21.16 19.5815 21.216 19.5489C21.328 19.4351 21.408 19.3051 21.64 19.4026C22.712 19.8578 23.784 20.3211 24.88 20.6869C25.288 20.8251 25.664 20.9877 26.016 21.1909C26.6 21.4835 27.096 21.898 27.512 22.4751C27.92 22.9872 28.232 23.5969 28.472 24.2959C29.192 26.4418 29.48 28.6608 29.768 30.888C29.856 31.5708 29.904 32.2535 29.968 32.9363C29.976 33.0582 30 33.5378 30 33.6516C30 33.7492 30 33.8548 30 33.9524C30 34.0255 29.952 34.3507 29.92 34.4319C29.688 35.009 29.2 35.3017 28.608 35.5211C26.84 36.1877 25.024 36.651 23.176 37.0249C21.872 37.2931 20.568 37.5288 19.256 37.6995C19.208 37.7077 19.16 37.7077 19.12 37.7158C18.224 37.8296 17.32 37.919 16.416 37.9596C16.4 37.9596 16.376 37.9596 16.36 37.9596C16.224 37.9678 16.088 37.9678 15.952 37.9759C15.848 37.9759 15.736 37.984 15.632 37.984C15.544 37.984 15.448 37.984 15.36 37.9921C15.24 37.9921 15.128 37.9921 15.008 37.9921C14.888 37.9921 14.776 37.9921 14.656 37.9921C14.568 37.9921 14.472 37.9921 14.384 37.984C14.28 37.984 14.168 37.9759 14.064 37.9759C13.928 37.9678 13.792 37.9678 13.656 37.9596C13.64 37.9596 13.616 37.9596 13.6 37.9596C12.696 37.9109 11.792 37.8296 10.896 37.7158C10.848 37.7077 10.8 37.7077 10.76 37.6995C9.448 37.5288 8.144 37.2931 6.84 37.0249C5 36.651 3.176 36.1877 1.408 35.5211C0.815998 35.3017 0.327999 35.009 0.0959988 34.4319C0.0639992 34.3507 0.0159988 34.0255 0.0159988 33.9524C0.0159988 33.8548 0.0159988 33.7492 0.0159988 33.6516C-1.90735e-06 33.5378 0.0239983 33.0582 0.0399971 32.9282Z" fill="#723CD9"/>
<path d="M13.6879 0.0731551C13.2719 0.14631 12.8559 0.211337 12.4479 0.317005C9.48789 1.04856 7.44789 3.30011 7.03988 6.38888C6.55189 10.0304 7.21589 13.4849 8.99989 16.6712C10.0959 18.622 11.7439 19.8901 13.9839 20.1745C16.6319 20.5078 18.8559 19.6543 20.4879 17.4515C21.8399 15.6227 22.4799 13.5174 22.8559 11.3065C23.0879 9.94909 23.2319 8.58353 23.0879 7.19358C22.8319 4.75508 21.9359 2.68235 19.8479 1.28428C18.7679 0.568984 17.5519 0.227594 16.2799 0.0731551C16.1439 0.0568984 15.4959 0 15.4399 0C15.1359 0 14.8319 0 14.5359 0C14.3919 0 13.8239 0.04877 13.6879 0.0731551Z" fill="#723CD9"/>
</g>
<defs>
<clipPath id="clip0_72_5565">
<rect width="30" height="38" fill="white" transform="matrix(-1 0 0 1 30 0)"/>
</clipPath>
</defs>
</svg>
