<svg width="30" height="30" viewBox="0 0 30 30" fill="none" xmlns="http://www.w3.org/2000/svg">
<path d="M15.3999 23.7996C15.0999 23.7996 14.8999 23.7996 14.5999 23.7996C14.4999 23.7996 14.2999 23.7996 14.1999 23.7996C12.4999 23.5996 10.9999 23.0996 9.59989 22.1996C7.09989 20.6996 5.19989 18.6996 3.49989 16.3996C2.79989 15.4996 2.89989 14.2996 3.59989 13.3996C4.79989 11.6996 6.29989 10.0996 7.99989 8.79961C9.39989 7.69961 10.9999 6.79961 12.7999 6.29961C13.1999 6.19961 13.6999 6.09961 14.0999 6.09961C14.1999 6.09961 14.4999 6.09961 14.5999 6.09961C14.8999 6.09961 15.0999 6.09961 15.3999 6.09961C15.4999 6.09961 15.6999 6.09961 15.7999 6.09961C17.4999 6.29961 18.9999 6.89961 20.4999 7.79961C22.8999 9.29961 24.7999 11.2996 26.4999 13.5996C27.1999 14.4996 27.0999 15.6996 26.4999 16.5996C25.1999 18.3996 23.6999 19.9996 21.8999 21.2996C20.3999 22.3996 18.8999 23.2996 16.9999 23.6996C16.5999 23.7996 16.1999 23.7996 15.7999 23.8996C15.6999 23.7996 15.4999 23.7996 15.3999 23.7996ZM14.8999 7.69961C13.2999 7.69961 11.8999 8.19961 10.4999 9.09961C8.29989 10.3996 6.49989 12.2996 4.89989 14.3996C4.59989 14.6996 4.69989 15.0996 4.89989 15.4996C5.49989 16.1996 6.09989 16.9996 6.69989 17.6996C8.09989 19.1996 9.69989 20.4996 11.5999 21.3996C12.9999 22.0996 14.4999 22.2996 16.0999 22.0996C17.3999 21.8996 18.5999 21.2996 19.7999 20.5996C21.8999 19.1996 23.4999 17.4996 24.9999 15.4996C25.2999 15.1996 25.2999 14.7996 24.9999 14.3996C24.5999 13.8996 24.1999 13.2996 23.6999 12.7996C22.3999 11.2996 20.8999 9.89961 19.0999 8.89961C17.7999 8.19961 16.3999 7.69961 14.8999 7.69961Z" fill="#723CD9"/>
<path d="M10.7 14.8992C10.7 12.5992 12.6 10.6992 14.9 10.6992C17.2 10.6992 19.2 12.5992 19.2 14.8992C19.2 17.1992 17.3 19.0992 14.9 19.0992C12.6 19.1992 10.7 17.2992 10.7 14.8992ZM15 12.3992C13.6 12.3992 12.5 13.4992 12.5 14.8992C12.5 16.2992 13.6 17.4992 15 17.4992C16.4 17.4992 17.5 16.3992 17.6 14.9992C17.5 13.4992 16.4 12.3992 15 12.3992Z" fill="#723CD9"/>
</svg>
