<svg width="41" height="41" viewBox="0 0 41 41" fill="none" xmlns="http://www.w3.org/2000/svg">
<circle cx="20.5" cy="20.5" r="20.5" fill="#39CADD"/>
<g clip-path="url(#clip0_43_4374)">
<path d="M32 27.2115C32 27.2171 31.9943 27.2563 31.9943 27.2618C31.9089 27.6702 31.6127 27.8435 31.2196 27.8995C31.0032 27.9274 30.781 27.9386 30.5646 27.9386C29.5735 27.9554 28.5824 27.9554 27.5856 27.9946C27.1128 28.0113 26.6856 27.9051 26.2698 27.7149C25.6831 27.4408 25.2559 26.9822 24.8173 26.5235C24.3445 26.0313 23.8945 25.5111 23.3876 25.0525C22.8066 24.5211 22.3452 24.6218 21.9522 25.2986C21.8781 25.4217 21.8098 25.5559 21.787 25.6957C21.7129 26.1264 21.6446 26.5627 21.6104 26.9934C21.5591 27.6534 21.2914 27.9219 20.6079 27.933C20.0611 27.9386 19.5199 27.9498 18.9731 27.933C18.5744 27.9219 18.1757 27.8995 17.7883 27.8156C15.715 27.3849 14.0232 26.283 12.6619 24.7337C11.0442 22.8991 9.72841 20.8407 8.61198 18.665C8.07656 17.619 7.581 16.5451 7.06835 15.4824C7.04557 15.4376 7 15.281 7 15.2475C7 15.2083 7 15.1692 7 15.13C7 15.0908 7.03418 14.9566 7.05126 14.9342C7.26771 14.6602 7.59239 14.6434 7.91707 14.6378C8.96514 14.6266 10.0132 14.6266 11.067 14.621C11.8075 14.6154 12.0809 14.8 12.3771 15.46C13.0264 16.9199 13.7498 18.3517 14.6156 19.7053C14.889 20.1304 15.2194 20.5219 15.6808 20.7736C16.0339 20.9638 16.3301 20.8799 16.501 20.5275C16.5751 20.3765 16.6377 20.2199 16.6662 20.0577C16.7346 19.655 16.8029 19.2523 16.8314 18.8495C16.8997 17.9155 16.8827 16.9814 16.6662 16.0641C16.5523 15.5887 16.2732 15.2698 15.8004 15.1188C15.6979 15.0853 15.5954 15.0629 15.4928 15.0405C15.265 14.9846 15.2365 14.9286 15.3903 14.7441C15.6124 14.4812 15.8859 14.2686 16.239 14.2127C16.7175 14.1344 17.2016 14.0673 17.6858 14.0393C18.6712 13.9834 19.6509 13.9834 20.6307 14.1512C21.2743 14.263 21.5136 14.498 21.6275 15.1244C21.6446 15.2083 21.6503 15.2978 21.6503 15.3873C21.6446 15.9858 21.6332 16.5843 21.6218 17.1827C21.6104 18.0217 21.5819 18.8607 21.6104 19.6997C21.6218 19.9962 21.7243 20.315 21.8667 20.5779C22.0376 20.8911 22.3623 20.9246 22.63 20.6841C22.9376 20.4045 23.2566 20.1192 23.5015 19.7892C24.5439 18.4133 25.3641 16.9087 26.0077 15.3146C26.2299 14.7608 26.378 14.6714 26.9761 14.6825C27.0387 14.6825 27.1071 14.6825 27.1697 14.6825C28.4457 14.6658 29.7216 14.6434 31.0032 14.6434C31.3677 14.6434 31.7551 14.6602 31.9487 15.0293C31.9658 15.0573 31.9886 15.158 31.9886 15.1747C31.9886 15.2363 31.9886 15.2922 31.9886 15.3537C31.9886 15.3649 31.943 15.5719 31.9146 15.6278C31.7892 15.9354 31.6696 16.2543 31.5101 16.5451C30.8836 17.7029 30.0349 18.7209 29.2374 19.7668C28.8273 20.3094 28.4229 20.8631 28.0469 21.428C27.8248 21.7636 27.8533 22.1384 28.0925 22.4628C28.2577 22.6865 28.4571 22.8879 28.6564 23.0893C29.3456 23.7772 30.069 24.4316 30.7298 25.1476C31.2766 25.7349 31.8405 26.339 31.9772 27.1779C31.9943 27.1724 32 27.2059 32 27.2115Z" fill="black"/>
</g>
<defs>
<clipPath id="clip0_43_4374">
<rect width="25" height="14" fill="white" transform="translate(7 14)"/>
</clipPath>
</defs>
</svg>
