<svg width="42" height="42" viewBox="0 0 42 42" fill="none" xmlns="http://www.w3.org/2000/svg">
<path d="M41.4634 20.7317C41.4634 32.1815 32.1815 41.4634 20.7317 41.4634C9.2819 41.4634 0 32.1815 0 20.7317C0 9.2819 9.2819 0 20.7317 0C32.1815 0 41.4634 9.2819 41.4634 20.7317Z" fill="#292929"/>
<path d="M32.1445 19.4161C32.0947 19.0255 32.0555 18.6337 31.9834 18.2475C31.3434 14.8249 29.5229 12.2071 26.5606 10.3929C25.1338 9.51902 23.5796 9.01461 21.9227 8.8498C21.807 8.83798 21.6901 8.82865 21.5732 8.81994C21.5477 8.81808 21.2286 8.78325 20.871 8.78014C20.4089 8.77703 19.8814 8.80626 19.8398 8.81186C19.4797 8.85664 19.1177 8.89458 18.7613 8.96175C15.33 9.60422 12.7091 11.4315 10.8967 14.4057C10.0409 15.8101 9.54337 17.3382 9.37233 18.9658C9.35865 19.094 9.28277 19.6948 9.27904 20.0375C9.27469 20.4579 9.32009 20.9225 9.32444 20.9611C9.37047 21.3697 9.40965 21.7789 9.47869 22.1832C9.76105 23.8245 10.3787 25.3327 11.3365 26.6973C11.4497 26.8584 11.4565 26.9902 11.3962 27.1663C10.9484 28.4798 10.5093 29.7959 10.0527 31.1548C10.1541 31.1237 10.2269 31.1032 10.2984 31.0802C11.6064 30.6622 12.915 30.2468 14.2204 29.8207C14.3871 29.7666 14.5097 29.789 14.6527 29.8805C16.0384 30.7642 17.5497 31.3091 19.1762 31.5348C19.354 31.5597 19.5319 31.5796 19.7104 31.5983C19.7819 31.6057 20.2521 31.658 20.7292 31.6574C21.2273 31.6567 21.7336 31.602 21.802 31.5933C22.1018 31.5566 22.4016 31.5193 22.6983 31.4671C25.3011 31.0062 27.4873 29.7816 29.2493 27.8193C30.8987 25.9827 31.8316 23.8177 32.1046 21.3659C32.1127 21.2926 32.1214 21.2192 32.1295 21.1458C32.1345 21.1022 32.1693 20.6806 32.1718 20.2645C32.1768 19.8478 32.1476 19.4373 32.1445 19.4161ZM25.4143 26.4616C25.2402 26.5225 25.0548 26.5555 24.872 26.586C24.7407 26.6077 24.6052 26.604 24.4714 26.6115C24.4304 26.6165 23.9061 26.5524 23.6306 26.4946C23.3992 26.446 23.1685 26.3932 22.9421 26.3272C21.1353 25.8023 19.4877 24.9813 18.0859 23.6989C16.8637 22.5812 15.8332 21.3087 14.9593 19.9075C14.5638 19.2731 14.2677 18.5871 14.1551 17.8438C13.9449 16.4544 14.2907 15.2354 15.404 14.3248C15.9041 13.9156 16.5304 13.9473 17.1306 14.0953C17.2493 14.1246 17.3737 14.2738 17.4278 14.397C17.8079 15.2596 18.1543 16.1378 18.5449 16.9955C18.7302 17.4022 18.6512 17.725 18.3801 18.0379C18.1512 18.3016 17.9136 18.5591 17.6903 18.8278C17.4832 19.0765 17.4701 19.232 17.63 19.4982C18.6836 21.2484 20.0979 22.5931 22.0104 23.373C22.526 23.5832 22.7779 23.5229 23.1162 23.09C23.3494 22.7915 23.5709 22.483 23.7979 22.1795C24.0815 21.8007 24.3377 21.7173 24.7631 21.9151C25.6252 22.3163 26.4779 22.7361 27.3361 23.1447C27.5445 23.2436 27.6247 23.4003 27.6179 23.6267C27.5744 25.1232 27.0252 25.8962 25.4143 26.4616Z" fill="white"/>
</svg>
