<svg width="84" height="90" viewBox="0 0 84 90" fill="none" xmlns="http://www.w3.org/2000/svg">
<g clip-path="url(#clip0_8034_491)">
<path d="M41.6317 89.4C64.5578 89.4 83.1431 69.3871 83.1431 44.7C83.1431 20.0129 64.5578 0 41.6317 0C18.7056 0 0.120361 20.0129 0.120361 44.7C0.120361 69.3871 18.7056 89.4 41.6317 89.4Z" fill="#CFBCF2"/>
<path d="M21.3869 60.8C21.5726 60.5 21.8512 60.5 22.2227 60.5C22.9656 60.5 23.7086 60.5 24.5444 60.5C24.5444 60.3 24.5444 60.2 24.5444 60C24.5444 57.9 24.5444 55.9 24.5444 53.8C24.5444 52.8 25.1016 52.2 26.0302 52.2C27.2375 52.2 28.5376 52.2 29.7449 52.2C30.7664 52.2 31.3236 52.8 31.3236 53.9C31.3236 55.9 31.3236 57.9 31.3236 59.9C31.3236 60.1 31.3236 60.2 31.3236 60.4C31.9737 60.4 32.5309 60.4 33.181 60.4C33.181 59.9 33.181 59.3 33.181 58.8C33.181 58.2 33.181 57.7 33.181 57.1C33.181 56.7 33.3667 56.4 33.7382 56.4C34.1096 56.4 34.2954 56.7 34.2954 57.1C34.2954 58.1 34.2954 59 34.2954 60C34.2954 60.1 34.2954 60.3 34.2954 60.5C34.4811 60.5 34.574 60.5 34.6668 60.5C35.8741 60.5 37.1742 60.5 38.3815 60.5C38.6601 60.5 38.753 60.4 38.753 60.1C38.753 56.6 38.753 53 38.753 49.5C38.753 49.2 38.6601 49 38.2886 49C37.0814 49 35.8741 49 34.6668 49C34.2954 49 34.2025 49.1 34.2025 49.5C34.2025 51.2 34.2025 52.8 34.2025 54.5C34.2025 55 33.831 55.4 33.4596 55.2C33.2738 55.1 33.0881 54.8 33.0881 54.6C33.0881 52.8 33.0881 51 33.0881 49.3C33.0881 48.5 33.6453 47.9 34.4811 47.9C35.7812 47.9 37.0814 47.9 38.3815 47.9C39.3102 47.9 39.8674 48.5 39.8674 49.5C39.8674 51.2 39.8674 52.9 39.8674 54.6C39.8674 56.4 39.8674 58.2 39.8674 60.1C39.8674 60.2 39.8674 60.4 39.8674 60.6C40.5174 60.6 41.0746 60.6 41.7247 60.6C41.7247 60.4 41.7247 60.3 41.7247 60.1C41.7247 55.2 41.7247 50.2 41.7247 45.3C41.7247 44.1 42.189 43.5 43.3963 43.5C44.6036 43.5 45.8108 43.5 46.9252 43.5C47.9468 43.5 48.4111 44.1 48.4111 45.1C48.4111 50.1 48.4111 55.1 48.4111 60.1C48.4111 60.3 48.4111 60.4 48.4111 60.6C49.0612 60.6 49.6184 60.6 50.2684 60.6C50.2684 60.4 50.2684 60.3 50.2684 60.1C50.2684 53.7 50.2684 47.2 50.2684 40.8C50.2684 40.3 50.2684 39.9 50.6399 39.5C50.9185 39.2 51.1971 39 51.5686 39C52.9615 39 54.2617 39 55.6547 39C56.3976 39 56.9548 39.6 56.9548 40.5C56.9548 42.5 56.9548 44.5 56.9548 46.5C56.9548 47 56.7691 47.3 56.3976 47.3C56.0261 47.3 55.8404 47 55.8404 46.6C55.8404 44.7 55.8404 42.7 55.8404 40.8C55.8404 40.4 55.7475 40.3 55.3761 40.3C54.1688 40.3 52.9615 40.3 51.8471 40.3C51.4757 40.3 51.3828 40.4 51.3828 40.8C51.3828 47.3 51.3828 53.8 51.3828 60.3C51.3828 60.4 51.3828 60.5 51.3828 60.6C52.8687 60.6 54.2617 60.6 55.8404 60.6C55.8404 60.4 55.8404 60.3 55.8404 60.1C55.8404 56.6 55.8404 53 55.8404 49.5C55.8404 49.4 55.8404 49.3 55.8404 49.1C55.8404 48.8 56.0261 48.5 56.3976 48.5C56.6762 48.5 56.9548 48.7 56.9548 49C56.9548 49.1 56.9548 49.3 56.9548 49.4C56.9548 52.9 56.9548 56.5 56.9548 60C56.9548 60.2 56.9548 60.3 56.9548 60.5C57.7906 60.5 58.5335 60.5 59.2765 60.5C59.5551 60.5 59.8337 60.6 60.1123 60.8C60.1123 60.8 60.1123 60.9 60.1123 61C60.1123 61.1 60.1123 61.2 60.1123 61.3C60.1123 61.3 60.1123 61.5 60.0194 61.5C59.8337 61.7 59.5551 61.8 59.1836 61.8C46.8324 61.8 34.4811 61.8 22.1298 61.8C21.8512 61.8 21.5726 61.8 21.294 61.5L21.2012 61.3C21.2012 61.2 21.2012 61.1 21.2012 61C21.294 60.9 21.3869 60.8 21.3869 60.8ZM47.2038 60.4C47.2038 60.3 47.2038 60.2 47.2038 60.1C47.2038 55 47.2038 50 47.2038 44.9C47.2038 44.6 47.111 44.5 46.7395 44.5C45.6251 44.5 44.4178 44.5 43.3034 44.5C42.7462 44.5 42.7462 44.5 42.7462 45.1C42.7462 50 42.7462 55 42.7462 59.9C42.7462 60 42.7462 60.2 42.7462 60.4C44.2321 60.4 45.718 60.4 47.2038 60.4ZM30.0235 60.4C30.0235 60.3 30.0235 60.3 30.0235 60.2C30.0235 58.1 30.0235 55.9 30.0235 53.8C30.0235 53.5 29.9306 53.4 29.652 53.4C28.4448 53.4 27.2375 53.4 26.1231 53.4C25.7516 53.4 25.6588 53.5 25.6588 53.9C25.6588 55.9 25.6588 57.9 25.6588 59.9C25.6588 60 25.6588 60.2 25.6588 60.3C27.1446 60.4 28.5376 60.4 30.0235 60.4Z" fill="#7743DA"/>
<path d="M46.4608 28.6002C45.8107 28.1002 45.2535 27.7002 44.6963 27.2002C44.4177 27.0002 44.3249 26.8002 44.3249 26.5002C44.4177 26.2002 44.6035 26.1002 44.8821 26.0002C47.2966 25.3002 49.804 24.6002 52.2185 23.9002C52.8686 23.7002 53.1472 23.9002 53.1472 24.6002C53.4258 27.3002 53.7044 30.1002 53.8901 32.8002C53.8901 33.0002 53.7973 33.3002 53.6115 33.5002C53.4258 33.7002 53.1472 33.6002 52.9615 33.5002C52.4043 33.0002 51.7542 32.6002 51.1041 32.1002C50.8255 32.5002 50.5469 32.8002 50.2683 33.2002C46.6465 37.8002 42.0961 41.0002 36.8027 42.9002C33.8309 44.0002 30.7663 44.6002 27.6089 44.9002C26.8659 45.0002 26.3087 44.5002 26.123 43.8002C25.9373 43.0002 26.3087 42.4002 27.0517 42.2002C29.7448 41.3002 32.3451 40.2002 34.8525 38.9002C37.3599 37.5002 39.7744 35.9002 41.9103 34.0002C42.0032 33.9002 42.1889 33.8002 42.2818 33.7002C42.5604 33.6002 42.7461 33.7002 42.9319 34.0002C43.1176 34.3002 43.0247 34.6002 42.7461 34.8002C41.8175 35.6002 40.8888 36.4002 39.8673 37.1002C36.1526 39.8002 32.0665 41.7002 27.7946 43.2002C27.6089 43.2002 27.516 43.3002 27.3303 43.4002C27.2374 43.4002 27.2374 43.5002 27.1445 43.6002C27.2374 43.6002 27.3303 43.7002 27.4231 43.7002C27.9803 43.7002 28.4447 43.6002 29.0019 43.5002C32.9023 43.0002 36.6169 42.0002 40.2387 40.1002C44.232 38.0002 47.4823 35.1002 50.1755 31.4002C50.2683 31.3002 50.3612 31.1002 50.4541 31.0002C50.7327 30.7002 51.0113 30.6002 51.2899 30.9002C51.7542 31.2002 52.1257 31.5002 52.59 31.9002C52.4043 29.7002 52.2185 27.6002 51.9399 25.4002C49.9897 25.9002 48.0395 26.5002 46.0893 27.0002C46.5537 27.3002 46.9251 27.6002 47.2966 27.9002C47.7609 28.2002 47.7609 28.5002 47.4823 29.0002C46.6465 30.5002 45.625 31.8002 44.5106 33.0002C44.232 33.3002 43.8605 33.3002 43.6748 33.1002C43.4891 32.8002 43.4891 32.5002 43.7677 32.2002C44.6035 31.1002 45.4393 30.1002 46.2751 29.0002C46.3679 28.9002 46.3679 28.8002 46.4608 28.6002Z" fill="#7743DA"/>
</g>
<defs>
<clipPath id="clip0_8034_491">
<rect width="83.0227" height="89.4" fill="white" transform="translate(0.120361)"/>
</clipPath>
</defs>
</svg>
